<?xml version="1.0" encoding="utf-8"?>
<!-- Generator: Adobe Illustrator 27.2.0, SVG Export Plug-In . SVG Version: 6.00 Build 0)  -->
<svg version="1.1" id="Layer_2" xmlns="http://www.w3.org/2000/svg" xmlns:xlink="http://www.w3.org/1999/xlink" x="0px" y="0px"
	 viewBox="0 0 3400 2000" style="enable-background:new 0 0 3400 2000;" xml:space="preserve">
<style type="text/css">
	.st0{fill:#FFFFFF;}
	.st1{fill:#AADBFB;}
	.st2{fill:#85C2F9;}
	.st3{fill:#304298;}
	.st4{fill:#223466;}
	.st5{fill:#405CC6;}
	.st6{opacity:0.58;fill:#FFFFFF;}
	.st7{opacity:0.46;fill:#FFFFFF;}
	.st8{fill:#EDE7CA;}
	.st9{fill:#F9F4D2;}
	.st10{opacity:0.8;fill:#FFFFFF;}
	.st11{fill:#9AC8E2;}
	.st12{opacity:0.18;fill:#FFFFFF;}
	.st13{fill:#CCC6B0;}
	.st14{fill:#EF4538;}
	.st15{fill:#57ACEA;}
	.st16{fill:#2B8ED8;}
	.st17{opacity:0.53;fill:#FFFFFF;}
	.st18{fill:#CE3932;}
	.st19{fill:#FC675B;}
	.st20{fill:#0071BE;}
	.st21{fill:#006299;}
	.st22{fill:#0093E5;}
	.st23{fill:#CDEDEA;}
	.st24{fill:#BEE2EA;}
	.st25{fill:#29AAE3;}
	.st26{fill:#2495BC;}
	.st27{fill:#1B7289;}
	.st28{fill:#F4DCBD;}
	.st29{fill:#EFCFAC;}
	.st30{fill:#5A98F2;}
	.st31{fill:#B6FAFF;}
	.st32{fill:#86EAEF;}
	.st33{fill:#81DBF7;}
	.st34{fill:#7DCDF4;}
	.st35{fill:#3752A5;}
	.st36{opacity:0.68;fill:#414447;}
	.st37{opacity:0.54;fill:#FFFFFF;}
</style>
<rect y="0" class="st0" width="3400" height="2000"/>
<g>
	<path class="st1" d="M1416.35,615.15c8.62-17.89,14.07-34.53,26.76-43.3c26.12-18.05,108.15-40.52,108.15-40.52l-24.08-90.4
		c0,0-82.33,21.33-113.97,18.66c-15.38-1.29-28.38-13.01-44.76-24.24c-31.51-26.54-76.66-57.07-140.04-31.67
		c-63.38,25.4-175.5,89.1-222.62,93.25c-36.9,3.25-123.26,6.7-123.26,6.7l-76.49,20.38c0,0-52.87,14.09-40.53,54.65
		c10.83,35.62,46.93,18.17,51.04,37.61c4.11,19.44-11.89,17.11-21,32.97c-10.66,18.56-0.79,55.6,17.69,66.39
		c15.8,9.23,28.52-0.76,34.62,18.15c6.1,18.91-33.89,21.73-25.57,58.02c9.48,41.33,62.35,27.24,62.35,27.24l76.14-21.71
		c22.12-11.49,76.73-39.64,110.35-55.18c42.94-19.85,171.89-20.37,239.51-29.87C1378.24,702.8,1402.22,653.85,1416.35,615.15z"/>
	<g>
		<path class="st2" d="M1416.14,615.21c8.62-17.89,14.07-34.53,26.76-43.3c26.12-18.05,108.15-40.52,108.15-40.52l-8.12-30.46
			c0,0-82.03,22.47-108.15,40.52c-12.69,8.77-18.14,25.41-26.76,43.3c-14.13,38.7-38.1,87.64-105.72,97.15
			c-67.62,9.5-196.56,10.02-239.51,29.87c-33.62,15.54-88.23,43.69-110.35,55.18l-76.14,21.71c0,0-37.44,9.97-54.96-11.5
			c-0.69,4.22-0.57,9.06,0.73,14.72c9.48,41.33,62.35,27.24,62.35,27.24l76.14-21.71c22.12-11.49,76.73-39.64,110.35-55.18
			c42.94-19.85,171.89-20.37,239.51-29.87C1378.04,702.85,1402.01,653.91,1416.14,615.21z"/>
	</g>
	<path class="st2" d="M846.85,785.27c-8.32-36.29,31.67-39.11,25.57-58.02c-6.1-18.91-18.83-8.92-34.62-18.15
		c-18.48-10.79-28.35-47.83-17.69-66.39c9.11-15.86,25.12-13.54,21-32.97c-4.11-19.44-40.21-1.99-51.04-37.61
		c-12.34-40.57,40.53-54.65,40.53-54.65l-24.56,6.54c0,0-52.87,14.09-40.53,54.65c10.83,35.62,46.93,18.17,51.04,37.61
		c4.11,19.44-11.89,17.11-21,32.97c-10.66,18.56-0.79,55.6,17.69,66.39c15.8,9.23,28.52-0.76,34.62,18.15
		c6.1,18.91-33.89,21.73-25.57,58.02c9.48,41.33,62.35,27.24,62.35,27.24l24.56-6.54C909.2,812.51,856.33,826.6,846.85,785.27z"/>
	<g>
		<path class="st3" d="M1488.43,550.15l-25.11-94.26c-1.98-7.44,2.44-15.07,9.88-17.06l47.9-12.76c7.44-1.98,15.07,2.44,17.06,9.88
			l25.11,94.26c1.98,7.44-2.44,15.07-9.88,17.06l-47.9,12.76C1498.05,562.01,1490.41,557.58,1488.43,550.15z"/>
		<path class="st3" d="M1472.73,560.27l-27.78-104.26c-0.7-2.62,0.86-5.31,3.48-6.01l1.61-0.43c2.62-0.7,5.31,0.86,6.01,3.48
			l27.78,104.26c0.7,2.62-0.86,5.31-3.48,6.01l-1.61,0.43C1476.11,564.45,1473.43,562.89,1472.73,560.27z"/>
		<g>
			
				<rect x="1491.39" y="415.49" transform="matrix(0.2574 0.9663 -0.9663 0.2574 1544.1216 -1112.1331)" class="st4" width="8.57" height="66.28"/>
			
				<rect x="1496.16" y="433.37" transform="matrix(0.2574 0.9663 -0.9663 0.2574 1564.9417 -1103.4589)" class="st4" width="8.57" height="66.28"/>
			
				<rect x="1501.63" y="453.9" transform="matrix(0.2574 0.9663 -0.9663 0.2574 1588.8408 -1093.4998)" class="st4" width="8.57" height="66.28"/>
			
				<rect x="1506.92" y="473.77" transform="matrix(0.2574 0.9663 -0.9663 0.2574 1611.969 -1083.8621)" class="st4" width="8.57" height="66.28"/>
			
				<rect x="1511.77" y="491.98" transform="matrix(0.2575 0.9663 -0.9663 0.2575 1633.147 -1075.0291)" class="st4" width="8.57" height="66.28"/>
			
				<rect x="1515.65" y="506.55" transform="matrix(0.2574 0.9663 -0.9663 0.2574 1650.1256 -1067.96)" class="st4" width="8.57" height="66.28"/>
		</g>
		<path class="st5" d="M1556.75,534.37l-26.51-99.49c-0.35-1.33,0.44-2.7,1.77-3.06l0,0c1.33-0.35,2.71,0.44,3.06,1.77l26.51,99.49
			c0.35,1.33-0.44,2.7-1.77,3.06l0,0C1558.48,536.5,1557.11,535.7,1556.75,534.37z"/>
	</g>
	<path class="st6" d="M1302.25,426.12c-8.33-1.54-18.66-1.38-23.15,5.81c-3.52,5.63-1.67,12.93,0.27,19.28
		c5.6,18.24,11.19,36.48,16.79,54.72c1.65,5.39,3.71,11.3,8.65,14.04c3.01,1.67,6.6,1.84,10.05,1.82
		c13.71-0.08,27.39-2.63,40.21-7.49c5.05-1.92,10.36-4.56,12.65-9.45c1.39-2.96,1.47-6.35,1.37-9.62
		c-0.45-15.67-2.67-39.51-17.15-48.39C1336.39,437.31,1320.31,429.47,1302.25,426.12z"/>
	<path class="st6" d="M1419.37,474.49c-3.68,0.65-7.44,0.79-11.18,0.77c-4.52-0.01-9.48-0.11-12.99,2.73
		c-3.4,2.75-4.43,7.86-2.82,11.93c1.61,4.07,5.54,6.99,9.81,7.91c2.57,0.56,5.24,0.46,7.86,0.28c5.43-0.38,10.84-1.12,16.17-2.22
		c7.47-1.53,22.07-7.08,18.77-17.57C1441.67,467.78,1426.68,473.2,1419.37,474.49z"/>
	<path class="st6" d="M875.38,523.53c-17.13,4.05-34.05,8.99-50.66,14.81c-3.9,1.37-7.85,2.82-11.12,5.34
		c-3.28,2.52-5.83,6.3-5.87,10.43c-0.05,4.36,2.75,8.41,6.44,10.74c3.68,2.33,8.13,3.17,12.48,3.36
		c12.29,0.55,24.29-3.61,35.54-8.58c10.07-4.45,30.81-11.36,36.33-21.64C906.52,523.11,884.37,521.41,875.38,523.53z"/>
	<polygon class="st2" points="1046.35,633.24 1069.78,721.15 1096.26,714.09 	"/>
</g>
<g>
	<path class="st1" d="M1810.95,548.51c-6.79,13.15-14.13,26.7-14.66,41.49c-0.53,14.79,8.26,31.12,22.85,33.62
		c12.67,2.17,24.37-6.26,36.34-10.96c11.96-4.7,29.65-2.88,32.41,9.68c-9.17,14.13-4.34,35.42,10.03,44.21
		c14.37,8.79,35.53,3.39,43.93-11.22c4.39-7.64,10.97-19.18,18.3-14.29c2.6,1.73,3.56,5.01,4.77,7.9
		c8.48,20.25,39.79,25.61,54.53,9.35c6.47-7.14,9.46-16.69,12.26-25.91c4.35-14.29,8.69-28.58,13.04-42.87
		c7.79-25.62,15.41-54.15,3.79-78.27c-13.94-28.93-49.06-39.21-75.4-57.58c-14.42-10.06-27.47-24.94-27.68-42.52
		c-0.1-8.45,2.8-16.67,3.23-25.1c0.69-13.42-4.83-26.32-10.59-38.46c-17.25-36.43-37.59-71.4-60.73-104.4
		c-20.98-29.94-47.04-60.06-82.72-68.01c-46.53-10.36-94.82,20.23-141.46,10.38c-51.03-10.77-79.59-63.95-120.66-96.1
		c-13.03-10.2-30.43-18.65-45.65-12.15c-9.06,3.87-15.25,12.25-20.99,20.26c-10.04,14.01-20.07,28.02-30.11,42.03
		c-9.84,13.74-19.93,28.01-23.43,44.54c-6.18,29.21,9.27,58.31,25.43,83.41c10.56,16.4,21.66,32.45,33.29,48.12
		c5.48,7.38,11.31,14.89,19.35,19.36c7.9,4.4,17.24,5.46,26.28,5.25c46.36-1.1,85.83-32.35,129.34-48.38
		c6.21-2.29,12.63-4.29,19.24-4.59c8.67-0.39,17.17,2.17,25.47,4.7c18.78,5.72,38,11.65,53.62,23.53
		c15.63,11.88,27.17,31.14,24.37,50.56c-0.62,4.29-1.91,8.51-1.84,12.84c0.19,12.69,11.64,22.23,22.99,27.92
		c11.35,5.69,24.17,9.83,32.25,19.62C1845.4,454.6,1825.86,519.66,1810.95,548.51z"/>
	<path class="st1" d="M1385.52,258.99c-11.02-31.07-1.98-66.76-14.1-97.41c28.92-8.28,58.46-14.38,88.29-18.22
		c1.48-0.19,3.08-0.35,4.37,0.39c1.54,0.88,2.15,2.76,2.6,4.47c5.66,21.75,4.11,45.23-3.78,66.28
		c-5.79,15.45-14.96,26.13-30.13,31.72C1427.8,248.06,1384.66,256.56,1385.52,258.99z"/>
	<g>
		<path class="st3" d="M1403.49,155.63l2.36,95.52c0.19,7.54-5.77,13.8-13.31,13.99l-48.54,1.2c-7.54,0.19-13.8-5.77-13.99-13.31
			l-2.36-95.52c-0.19-7.54,5.77-13.8,13.31-13.99l48.54-1.2C1397.04,142.13,1403.3,148.09,1403.49,155.63z"/>
		<path class="st3" d="M1420.76,149.57l2.61,105.65c0.07,2.65-2.03,4.86-4.69,4.93l-1.63,0.04c-2.65,0.07-4.86-2.03-4.93-4.69
			l-2.61-105.65c-0.07-2.65,2.03-4.86,4.69-4.93l1.63-0.04C1418.49,144.82,1420.69,146.92,1420.76,149.57z"/>
		<g>
			
				<rect x="1369.17" y="218.2" transform="matrix(-0.0247 -0.9997 0.9997 -0.0247 1156.7559 1629.8126)" class="st4" width="8.39" height="64.92"/>
			
				<rect x="1368.72" y="200.08" transform="matrix(-0.0247 -0.9997 0.9997 -0.0247 1174.3943 1610.7938)" class="st4" width="8.39" height="64.92"/>
			
				<rect x="1368.21" y="179.28" transform="matrix(-0.0247 -0.9997 0.9997 -0.0247 1194.6816 1588.9626)" class="st4" width="8.39" height="64.92"/>
			
				<rect x="1367.71" y="159.15" transform="matrix(-0.0247 -0.9997 0.9997 -0.0247 1214.2815 1567.8314)" class="st4" width="8.39" height="64.92"/>
			
				<rect x="1367.25" y="140.69" transform="matrix(-0.0247 -0.9997 0.9997 -0.0247 1232.2638 1548.4631)" class="st4" width="8.39" height="64.92"/>
			
				<rect x="1366.89" y="125.93" transform="matrix(-0.0247 -0.9997 0.9997 -0.0247 1246.6656 1532.97)" class="st4" width="8.39" height="64.92"/>
		</g>
		<path class="st5" d="M1334.8,155.03l2.49,100.82c0.03,1.35-1.04,2.48-2.39,2.51l0,0c-1.35,0.03-2.47-1.04-2.51-2.39l-2.49-100.82
			c-0.03-1.35,1.04-2.47,2.39-2.51l0,0C1333.64,152.61,1334.77,153.68,1334.8,155.03z"/>
	</g>
	<path class="st2" d="M1439.61,134.32c4.53,2.4,9.06,4.8,13.59,7.2c5.04,2.67,11.19,5.36,16.18,2.59
		c5.69-3.16,5.96-11.06,8.74-16.94c5.71-12.12,23.15-14.71,34.86-8.21c11.71,6.5,18.54,19.2,23.11,31.79
		c18.3,50.33,8.78,109.81-24.3,151.92c6.74,6.71,17.96-0.33,24.02-7.67c26-31.46,39.57-72.93,37.19-113.68
		c20.14,6.67,37.31,21.84,46.4,41c4.26,8.98,8.21,20.07,17.83,22.54c5.27,1.35,10.77-0.44,15.97-2.05
		c33.63-10.42,73.55-12.75,100.91,9.41c21.22,17.19,30.35,45.47,49.68,64.77c6.78,6.77,17.72,12.42,25.42,6.73
		c9.01-6.66,4.19-20.81-1.4-30.52c-9.54-16.57-19.08-33.14-28.62-49.71c-3.29-5.72-6.38-13.57-1.75-18.28
		c5.46-5.53,14.66-0.25,20.25,5.14c28.11,27.15,52.08,58.57,70.84,92.86c9.77,17.87,17.67,41.43,4.82,57.22
		c-16.14,19.84-49.03,9.42-72.12,20.41c36.78,26.59,73.55,53.19,110.33,79.78c7.22,5.22,14.4,16.88,6.64,21.27
		c-2.74,1.55-6.14,0.99-9.22,0.35c-6.79-1.42-13.88-3.06-20.57-1.22c-6.69,1.85-12.6,8.6-10.84,15.31
		c25.96,1.03,51.93,2.05,77.89,3.08c7.87,0.31,16.21,0.78,22.68,5.27c5.71,3.97,9.07,10.54,11.18,17.17
		c9.29,29.24-4.31,64.08-30.96,79.29c-7.73-16.67-33.4-21.09-46.26-7.97c-11.16,11.38-10.91,29.35-16.34,44.34
		c-1.66,4.59-4.72,8.97-8.46,12.51c13.05,2.66,27.95-3.11,34.67-14.8c4.39-7.64,10.97-19.18,18.3-14.29c2.6,1.74,3.56,5.01,4.77,7.9
		c8.48,20.25,39.79,25.62,54.53,9.35c6.47-7.14,9.46-16.69,12.26-25.91c4.35-14.29,8.69-28.58,13.04-42.87
		c7.79-25.62,15.41-54.15,3.79-78.27c-13.94-28.93-49.06-39.21-75.4-57.58c-14.42-10.06-27.47-24.94-27.68-42.52
		c-0.1-8.45,2.8-16.67,3.23-25.1c0.69-13.42-4.83-26.32-10.59-38.46c-17.25-36.43-37.59-71.4-60.73-104.4
		c-20.98-29.94-61.67-101.21-97.35-109.15c-46.53-10.36-80.19,61.38-126.83,51.53c-51.03-10.77-79.59-63.95-120.66-96.1
		c-13.03-10.2-30.43-18.65-45.65-12.15c-9.06,3.87-15.25,12.25-20.99,20.26C1457.21,109.75,1448.41,122.04,1439.61,134.32z"/>
	<path class="st6" d="M1522.44,201.8c-0.67-6.5-3.59-14.21-10.07-15.08c-6.28-0.85-11.26,5.67-12.39,11.9
		c-1.13,6.23,0.04,12.75-1.41,18.91c-4.92,20.79-33.77,21.13-37.55,39.58c-1.8,8.81,5.71,38.41,16.04,41.1
		C1505.27,305.56,1524.35,220.29,1522.44,201.8z"/>
	<path class="st6" d="M1826.72,601.48c14.08-3.13,17.48-21.29,26.25-32.74c11.74-15.33,33.69-18.21,52.93-16.54
		c19.23,1.67,38.79,6.6,57.56,2.09c-4.99-6.71-13.63-9.71-21.94-10.6c-8.31-0.9-16.74-0.06-25.05-0.93
		c-9.03-0.94-17.72-3.84-26.33-6.73c-9-3.02-19.73-8.32-19.66-17.81c0.06-8.31,8.56-13.67,16-17.39
		c-3.21-6.78-7.78-14.52-15.26-14.96c-6.58-0.39-12.07,5.51-14.06,11.8c-2,6.28-1.53,13.05-2.2,19.61
		c-1.25,12.16-6.61,23.86-15,32.74c-5.77,6.11-12.88,10.88-18.4,17.22C1814.85,574.92,1805.89,606.1,1826.72,601.48z"/>
	<path class="st7" d="M1413.61,245.62c0.27,2.59,0.55,5.23,1.56,7.63c1.01,2.4,2.86,4.58,5.36,5.34c2.28,0.69,4.92,0.04,6.61-1.63
		c1.37-1.34,2.04-3.7,0.81-5.16c-0.55-0.64-1.35-0.99-2.06-1.45c-2.81-1.85-3.86-5.4-4.53-8.7c-1.29-6.31-1.92-12.74-1.88-19.18
		c0.02-3.44,0.09-7.73-3.18-9.88c-3.24-2.13-5.09-0.8-5.78,2.7c-0.82,4.16,1.01,10.32,1.45,14.58
		C1412.51,235.13,1413.06,240.38,1413.61,245.62z"/>
	<path class="st7" d="M1436.26,265.47c1.05,0.78,2.35,1.16,3.63,1.46c2.78,0.67,5.63,1.06,8.49,1.18c2.35,0.1,5.05-0.15,6.45-2.04
		c1.3-1.75,0.75-4.57-1.12-5.71c-1.21-0.74-2.71-0.77-4.13-0.77C1447.91,259.59,1427.22,258.51,1436.26,265.47z"/>
</g>
<g>
	<polygon class="st8" points="1632.3,816.88 1650.12,769.15 1995.83,907.93 1986.2,933.71 	"/>
	<polygon class="st9" points="1636.16,808.96 1653.98,761.22 1999.69,900.01 1990.07,925.79 	"/>
	<path class="st9" d="M1686.02,726.45c-12.25-21.95-34.74-36.96-58.81-44.19c-24.08-7.23-49.75-7.37-74.78-5.02
		c-32.46,3.04-69.18,13.73-82.2,43.62c-8.46,19.41-4.13,42.64,6.87,60.73c10.99,18.1,27.86,31.84,45.33,43.82
		c17.55,12.04,36.05,22.68,55.28,31.8c15.61,7.41,32.78,13.94,49.79,10.92c16.01-2.85,29.58-13.97,38.91-27.28
		C1687.62,810.59,1705.33,761.05,1686.02,726.45z"/>
	<path class="st8" d="M1511.57,704.95c25.03-2.34,50.7-2.21,74.78,5.02c24.08,7.23,46.56,22.24,58.81,44.19
		c19.27,34.53,1.68,83.96-19.5,114.22c0.61-0.08,1.21-0.15,1.82-0.26c16.01-2.85,29.58-13.97,38.91-27.28
		c21.22-30.25,38.93-79.8,19.62-114.4c-12.25-21.95-34.74-36.96-58.81-44.19c-24.08-7.23-49.75-7.37-74.78-5.02
		c-29.06,2.72-61.53,11.59-77.35,34.87C1486.87,708.27,1499.52,706.08,1511.57,704.95z"/>
	<path class="st10" d="M1485.57,748.52c-4.38,2.23-6.39,7.65-5.93,12.54s2.94,9.35,5.61,13.47c21.87,33.76,59.35,54.46,97.63,66.79
		c-25.45-11.99-52.27-25.17-67.2-49.01c-6.59-10.52-7.49-20.83-10.86-32.26C1502.71,752.86,1494.02,744.21,1485.57,748.52z"/>
</g>
<g>
	<g>
		<path class="st11" d="M850.52,1120.48c-20.71,28-35.67,60.26-50.4,92.11c-6.31,13.64-12.61,27.28-18.92,40.91
			c-8.93,19.31-17.88,38.68-24.79,58.66c44.1-43.31,88.19-86.61,132.29-129.92c14.51-14.25,29.76-29.63,36.79-49.28
			c7.06-19.72,4.66-56.76-16.76-55.19C886.92,1079.38,865.24,1100.58,850.52,1120.48z"/>
		<path class="st11" d="M1127.39,1236.69c-22.81,16.38-41.93,39.56-60.35,62.65c-18.42,23.09-36.84,46.77-58.91,64.75
			c11.35,16.53,24.93,30.85,40.29,42.46c10.85-16.48,21.91-32.81,33.16-48.98c16.68-23.97,34.07-47.88,55.12-66.68
			c21.05-18.79,46.43-32.17,70.14-31.18c6.74,0.28,13.51,1.67,20.38-0.89c1.26-0.47,2.63-1.19,3.34-2.54c1.15-2.19-0.1-4.45-1.36-6
			c-11.03-13.68-25.78-31.82-43.9-33.33C1166.24,1215.36,1145.34,1223.8,1127.39,1236.69z"/>
		<path class="st1" d="M812.03,1207.76c-43.78,52.84-76.99,115.09-109.69,176.57c-47.78,89.82-96.01,180.69-126.08,276.91
			c-1.15,3.68-2.28,7.68-1.31,10.94c1.28,4.3,5.64,5.67,9.54,6.69c124.67,32.64,219.84,133.06,344.72,165.11
			c76.99-76.69,140.06-173.18,181.04-276.98c18.05-45.71,32-93.03,54.86-136.71c31.48-60.17,80.36-115.35,89.77-180.38
			c-17.37-13.87-37.11-24.24-58.36-30.65c-21.4,71.07-61.87,138.46-113.74,189.42c-59.96-71.23-157.85-85-235.5-131.3
			c25.46-27.27,51.09-54.76,72.52-86.14c21.43-31.39,38.65-67.28,44.09-103.87c-1.32,8.85-47.58-9.11-49.41-9.24
			c0,0-9.5,21.42-14.73,28.84C873.71,1143.81,840.45,1173.46,812.03,1207.76z"/>
		<path class="st11" d="M929.2,1843.98c76.99-76.69,140.06-173.18,181.04-276.98c18.05-45.71,32-93.03,54.86-136.71
			c4.56-8.72,9.5-17.33,14.62-25.89c-19.94,18.15-36.99,41.09-49.05,66.37c-6.78,14.21-12,29.05-18.67,43.3
			c-8.62,18.41-19.55,35.61-29.41,53.38c-21.18,38.15-37.61,79.17-61.8,115.28c-17.59,26.25-38.81,49.19-59.89,71.95
			c-9.28,10.02-19.09,20.42-30.58,24.94c-20.46,8.04-38.63-4.87-53.73-17.31c4.69,13.58,13.18,24.69,24.15,31.59
			c-5.85,5.95-13.66,2.58-19.22-1.18c-82.65-55.86-163.38-118.46-260.9-142.8c-12.92-3.22-27.21-5.58-40.74,1.76
			c-0.24,0.13-0.46,0.29-0.7,0.42c-0.99,3.04-1.96,6.08-2.91,9.12c-1.15,3.68-2.28,7.68-1.31,10.94c1.28,4.3,5.64,5.67,9.54,6.69
			C709.15,1711.51,804.32,1811.93,929.2,1843.98z"/>
		<path class="st12" d="M803.28,1308.16c-8.61,0.1-18.37,1.53-25.33,9.18c-8.71,9.58-8.98,23.98-10.57,36.64
			c-3.39,26.97-16.02,53.35-29.97,77.83s-29.61,48.15-40.59,74.07c-0.95,2.25-1.88,4.59-1.95,6.9c-0.19,6.19,5.92,8.99,11.36,7.79
			c11.35-2.49,20.1-15.5,26.89-27.36c14.92-26.09,28.35-53.08,40.16-80.69c4.37-10.21,8.8-20.96,16.4-28.65
			c11.18-11.32,26.46-13.12,39.14-10.51s24.08,8.86,36.89,11.04c20.72,3.54,43.7-3.73,64.72-1.33c12.79,1.46,24.47,6.46,35.91,11.65
			c12.39,5.62,24.66,11.5,36.79,17.64c-6.72-18.84-23.38-28.68-39.16-37.49C914.96,1347.51,863.6,1307.43,803.28,1308.16z"/>
	</g>
	<g>
		<path class="st0" d="M798.18,1413.38l-2.33,4.44c2.23-1.21,4.4-1.89,6.5-2.04c2.1-0.15,4.14,0.23,6.14,1.13
			c2.44,1.1,4.25,2.71,5.44,4.82c1.18,2.11,1.61,4.12,1.28,6.03c-0.33,1.91-1.42,4.92-3.27,9.01l-9.82,21.75
			c-2.12,4.69-3.91,7.91-5.36,9.64c-1.45,1.73-3.31,2.8-5.57,3.2c-2.26,0.4-4.61,0.05-7.04-1.05c-1.95-0.88-3.54-2.15-4.79-3.81
			c-1.25-1.66-2.16-3.69-2.72-6.11l-5.35,11.84l-15.72-7.1l26.64-58.98L798.18,1413.38z M795.87,1430.41
			c1.44-3.19,2.2-5.18,2.27-5.96s-0.43-1.41-1.49-1.89c-1.04-0.47-1.88-0.38-2.53,0.26c-0.65,0.64-1.65,2.46-3,5.44l-9.66,21.4
			c-1.41,3.11-2.13,5.13-2.17,6.05s0.46,1.61,1.5,2.08c1.01,0.46,1.8,0.38,2.37-0.22c0.57-0.6,1.47-2.28,2.72-5.03L795.87,1430.41z"
			/>
		<path class="st0" d="M844.86,1420.78l-28.45,62.99l-16.19-7.31l28.45-62.99L844.86,1420.78z"/>
		<path class="st0" d="M850.38,1461.03l-14.75-6.66l1.56-3.46c1.8-3.99,3.65-6.87,5.55-8.62c1.9-1.75,4.61-2.83,8.14-3.23
			s7.51,0.39,11.94,2.39c5.32,2.4,8.9,5.15,10.75,8.25c1.85,3.1,2.43,6.14,1.74,9.12c-0.69,2.98-2.96,8.74-6.82,17.27l-11.7,25.91
			l-15.29-6.91l2.08-4.6c-1.79,1.41-3.66,2.24-5.59,2.47c-1.93,0.24-3.95-0.12-6.05-1.07c-2.75-1.24-4.92-3.15-6.52-5.73
			c-1.6-2.58-1.22-6.48,1.13-11.69l1.92-4.24c1.75-3.86,3.54-6.22,5.4-7.07c1.85-0.85,5.61-1.12,11.28-0.81
			c6.08,0.31,9.45,0.19,10.13-0.34c0.68-0.54,1.51-1.88,2.48-4.03c1.22-2.7,1.81-4.55,1.78-5.54c-0.03-1-0.52-1.71-1.45-2.13
			c-1.06-0.48-1.88-0.43-2.45,0.13c-0.57,0.57-1.51,2.3-2.81,5.17L850.38,1461.03z M852.17,1470.36c-3.35,0.71-5.5,1.59-6.47,2.65
			s-1.97,2.76-3.03,5.1c-1.21,2.67-1.81,4.48-1.81,5.41c0,0.94,0.52,1.64,1.55,2.11c0.99,0.45,1.76,0.43,2.34-0.04
			c0.57-0.48,1.45-2.01,2.62-4.6L852.17,1470.36z"/>
		<path class="st0" d="M910.17,1483.81l-13.93-6.29l1.27-2.8c1.08-2.39,1.62-3.96,1.64-4.72c0.02-0.76-0.52-1.38-1.61-1.88
			c-0.88-0.4-1.68-0.4-2.38-0.02c-0.7,0.39-1.32,1.16-1.85,2.33c-0.71,1.58-1.13,2.79-1.24,3.63c-0.11,0.84,0.18,1.95,0.89,3.33
			c0.7,1.38,2.39,3.69,5.05,6.92c3.56,4.29,5.6,7.75,6.14,10.36c0.54,2.62-0.04,5.8-1.74,9.56c-1.9,4.2-3.87,7.13-5.93,8.77
			c-2.06,1.65-4.62,2.47-7.7,2.47c-3.08,0-6.42-0.81-10.02-2.44c-3.99-1.8-7.13-3.97-9.41-6.5c-2.28-2.53-3.47-5.09-3.57-7.7
			c-0.1-2.61,0.82-6.06,2.76-10.37l1.12-2.49l13.93,6.29l-1.48,3.27c-1.25,2.78-1.89,4.66-1.92,5.65c-0.02,0.99,0.48,1.72,1.52,2.19
			c1.12,0.5,2.02,0.58,2.71,0.22s1.44-1.43,2.25-3.22c1.11-2.46,1.52-4.14,1.23-5.02c-0.32-0.89-2.53-4.11-6.65-9.65
			c-3.45-4.68-5.2-8.3-5.25-10.87c-0.06-2.57,0.57-5.31,1.88-8.21c1.86-4.12,3.78-6.92,5.75-8.39c1.97-1.47,4.5-2.14,7.59-2.03
			c3.09,0.11,6.36,0.95,9.81,2.51c3.42,1.55,6.14,3.3,8.15,5.25c2.01,1.95,3.33,3.93,3.97,5.94c0.64,2.01,0.82,3.68,0.54,5.02
			c-0.28,1.34-1,3.31-2.17,5.9L910.17,1483.81z"/>
		<path class="st0" d="M942.71,1470.36l-3.67,8.13l4.24,1.92l-3.69,8.17l-4.24-1.92l-12.48,27.62c-1.53,3.4-2.21,5.37-2.04,5.92
			c0.17,0.55,1.55,1.4,4.11,2.56l-3.76,8.33l-6.34-2.86c-3.58-1.62-6.07-2.92-7.46-3.91c-1.4-0.99-2.43-2.29-3.12-3.89
			c-0.68-1.6-0.85-3.16-0.51-4.68c0.34-1.52,1.67-4.84,3.99-9.98l11.84-26.22l-3.38-1.53l3.69-8.17l3.38,1.53l3.67-8.13
			L942.71,1470.36z"/>
		<path class="st0" d="M968.62,1476.67l-3.71,8.21l-16.19-7.31l3.71-8.21L968.62,1476.67z M963.49,1488.03l-23.32,51.63l-16.19-7.31
			l23.32-51.63L963.49,1488.03z"/>
		<path class="st0" d="M995.07,1525.76l-14.82-6.69l2.69-5.95c0.94-2.07,1.4-3.56,1.4-4.45c0-0.89-0.46-1.54-1.37-1.95
			c-0.91-0.41-1.66-0.36-2.27,0.15c-0.6,0.51-1.42,1.89-2.43,4.15l-11,24.36c-0.83,1.84-1.22,3.33-1.17,4.46
			c0.05,1.13,0.53,1.9,1.44,2.31c1.06,0.48,2,0.33,2.81-0.46c0.81-0.79,1.82-2.52,3.02-5.19l2.78-6.15l14.01,6.33
			c-1.89,4.11-3.44,7.14-4.64,9.08c-1.2,1.94-3.03,3.66-5.47,5.17s-5.09,2.27-7.95,2.31c-2.86,0.04-6.02-0.73-9.5-2.3
			c-4.44-2-7.61-4.35-9.52-7.04c-1.91-2.69-2.78-5.64-2.62-8.87c0.16-3.22,1.38-7.35,3.65-12.38l6.62-14.67
			c1.98-4.38,3.91-7.49,5.8-9.32c1.89-1.83,4.67-2.97,8.34-3.42c3.67-0.45,7.57,0.26,11.69,2.12c4.1,1.85,7.21,4.3,9.33,7.35
			s3.06,6.11,2.83,9.19C998.47,1516.95,997.26,1520.91,995.07,1525.76z"/>
		<path class="st0" d="M811.6,1520.88l-6.73,14.91c1.98-0.92,3.93-1.39,5.86-1.41c1.93-0.02,3.83,0.39,5.7,1.23
			c2.15,0.97,3.87,2.15,5.15,3.54c1.28,1.39,2.06,2.88,2.34,4.47c0.28,1.59,0.24,3.01-0.12,4.26c-0.36,1.24-1.4,3.77-3.12,7.58
			l-10.51,23.27c-1.71,3.79-3.24,6.49-4.58,8.12c-1.34,1.63-3.26,2.7-5.74,3.22c-2.48,0.52-5.01,0.2-7.58-0.96
			c-1.84-0.83-3.38-2.01-4.61-3.54c-1.23-1.52-2.14-3.39-2.74-5.6l-2.77,3.44l-14.71-6.64l28.45-62.99L811.6,1520.88z
			 M804.63,1549.07c1.21-2.67,1.83-4.49,1.86-5.46c0.03-0.97-0.44-1.68-1.43-2.12c-0.96-0.43-1.74-0.36-2.35,0.23
			c-0.61,0.58-1.56,2.32-2.86,5.19l-10.05,22.25c-1.25,2.78-1.89,4.63-1.92,5.55c-0.03,0.92,0.44,1.6,1.4,2.04
			c0.99,0.45,1.81,0.33,2.47-0.34c0.66-0.67,1.68-2.53,3.07-5.6L804.63,1549.07z"/>
		<path class="st0" d="M837.16,1570.18l-14.75-6.66l1.56-3.46c1.8-3.99,3.65-6.87,5.55-8.62c1.9-1.75,4.61-2.83,8.14-3.23
			c3.53-0.41,7.51,0.39,11.94,2.39c5.32,2.4,8.9,5.15,10.75,8.25c1.85,3.1,2.43,6.14,1.74,9.12c-0.69,2.98-2.96,8.74-6.82,17.27
			l-11.7,25.91l-15.29-6.91l2.08-4.6c-1.79,1.41-3.66,2.24-5.59,2.47c-1.93,0.24-3.95-0.12-6.05-1.07
			c-2.75-1.24-4.92-3.15-6.52-5.73c-1.6-2.58-1.22-6.48,1.13-11.69l1.92-4.24c1.75-3.86,3.54-6.22,5.4-7.07
			c1.85-0.85,5.61-1.12,11.28-0.81c6.08,0.31,9.45,0.19,10.13-0.34s1.51-1.88,2.48-4.03c1.22-2.7,1.81-4.55,1.78-5.54
			c-0.03-1-0.52-1.71-1.45-2.13c-1.06-0.48-1.88-0.43-2.45,0.13c-0.57,0.57-1.51,2.3-2.81,5.17L837.16,1570.18z M838.94,1579.51
			c-3.35,0.71-5.5,1.59-6.47,2.65c-0.96,1.06-1.97,2.76-3.03,5.1c-1.21,2.67-1.81,4.48-1.81,5.41c0,0.94,0.52,1.64,1.55,2.11
			c0.99,0.45,1.76,0.43,2.34-0.04c0.57-0.48,1.45-2.01,2.62-4.6L838.94,1579.51z"/>
		<path class="st0" d="M908.01,1578.1l-17.96,39.76c-2.42,5.37-4.12,8.78-5.07,10.24c-0.96,1.46-2.58,2.72-4.87,3.79
			c-2.3,1.07-4.99,1.46-8.09,1.17c-3.1-0.29-6.69-1.36-10.76-3.2c-5.01-2.26-8.64-4.93-10.91-7.99c-2.27-3.07-2.33-7.12-0.18-12.14
			l15.25,6.89c-1.03,2.28-0.72,3.8,0.94,4.55c1.19,0.54,2.14,0.55,2.85,0.02c0.71-0.53,1.56-1.9,2.57-4.14l1.76-3.9
			c-1.9,0.61-3.74,0.9-5.51,0.85c-1.77-0.05-3.48-0.44-5.11-1.18c-2.83-1.28-4.9-2.9-6.21-4.87c-1.31-1.97-1.89-4.03-1.72-6.19
			c0.16-2.16,1.02-4.95,2.56-8.37l8.47-18.75c2.21-4.9,4.69-8.03,7.42-9.39c2.74-1.36,5.91-1.22,9.51,0.41
			c1.97,0.89,3.59,2.1,4.84,3.64c1.26,1.54,2.16,3.4,2.7,5.58l2.89-3.39L908.01,1578.1z M886.07,1584.68
			c1.07-2.36,1.61-3.93,1.63-4.7c0.02-0.77-0.44-1.37-1.37-1.79c-0.91-0.41-1.72-0.33-2.43,0.24c-0.71,0.57-1.56,1.94-2.54,4.12
			l-7.84,17.35c-1.04,2.31-1.58,3.87-1.6,4.69c-0.03,0.82,0.42,1.43,1.32,1.84c1.04,0.47,1.9,0.36,2.59-0.33
			c0.69-0.69,1.69-2.5,3.01-5.43L886.07,1584.68z"/>
	</g>
</g>
<g>
	<path class="st9" d="M476.95,977.43c1.04,19.56,49.34,74.62,59.85,91.15c4.06,6.38,8.35,14.45,4.61,21.03
		c-7.12-9.74-14.25-19.49-21.37-29.23c-4.31-5.9-9.97-12.45-17.25-11.8c-7.86,0.7-12.46,10.13-11.03,17.88
		c1.44,7.76,6.97,14.02,12.28,19.86c-7.4,0.59-14.8,1.17-22.19,1.76c6.16,9.74,1.8,22.91-5.4,31.91c-7.2,9-16.95,15.81-23.49,25.3
		c-11.66,16.93-11.07,40.08-3.15,59.05c7.92,18.97,22.19,34.53,36.91,48.88c13.33,12.99,27.44,25.47,43.84,34.28
		c10.12,5.44,22.37,9.41,32.94,4.9c8.43-3.6,13.82-11.74,19.44-18.97c36.22-46.58,98.51-68.66,130.63-118.16
		c31.01-47.79,26.77-109.3,37.94-165.17c-1.35,6.77-133.36-38.08-145.2-41.47c-11.94-3.42-24.03-6.41-36.29-8.43
		c-5.12-0.85-14.09-3.73-19.13-2.42c-7.81,2.04-4.27,1.56-9.3,7.13C526.17,961.97,475.73,954.44,476.95,977.43z"/>
	<path class="st8" d="M713.34,1154.85c31.01-47.79,26.77-109.3,37.94-165.17c-1.17,5.86-100.08-26.9-134.43-38.05
		c27.01,28.95,52.82,61.26,61.57,99.86c2.14,9.43,2.11,21.49-6.32,26.24c-6.76,3.81-15.16,0.65-22.23-2.54
		c-26.08-11.76-52.15-23.51-78.23-35.27c19.45,16.74,38.89,33.49,58.34,50.23c-12-7.12-27.23-8.53-40.33-3.74
		c9.74,9.86,19.47,19.73,29.21,29.59c3.91,3.96,7.94,8.11,9.77,13.37c3.73,10.71-2.68,22.18-9.76,31.04
		c-7.08,8.86-15.49,17.83-16.51,29.13c-0.66,7.34,1.96,14.92-0.1,21.99c-1.48,5.08-5.2,9.17-8.97,12.88
		c-11.22,11.05-23.97,20.55-37.77,28.14c-5.16,2.84-10.63,5.45-16.5,5.88c-7.27,0.52-14.37-2.38-20.7-6.01
		c-22.14-12.69-37.97-34.43-48.12-57.84c-7.23-16.67-11.85-34.28-15.7-52.08c-0.6,0.78-1.22,1.55-1.78,2.36
		c-11.66,16.93-11.07,40.08-3.15,59.05c7.92,18.97,22.19,34.53,36.91,48.88c13.33,12.99,27.44,25.47,43.84,34.28
		c10.12,5.44,22.37,9.41,32.94,4.9c8.43-3.6,13.82-11.74,19.44-18.97C618.93,1226.43,681.21,1204.35,713.34,1154.85z"/>
	<path class="st13" d="M686.51,950.34c-32.89-11.12-66.95-20.02-101.67-20.52c-34.71-0.5-70.36,7.99-98.1,28.86
		c-3.9,2.93-7.8,6.34-9.32,10.97c-1.3,3.96-0.68,8.32,0.65,12.26c5.36,15.89,21.24,26.07,37.35,30.73
		c28.96,8.37,59.82,2.83,89.95,2.05c22.64-0.59,45.29,1.57,67.65,5.15c13.86,2.22,27.99,5,41.81,2.52
		c13.43-2.41,31.32-14.47,36.15-28.13c5.53-15.65-22.51-26.85-33.01-31.71C707.76,957.79,697.16,953.94,686.51,950.34z"/>
</g>
<g>
	
		<rect x="308.54" y="1025.54" transform="matrix(0.5712 0.8208 -0.8208 0.5712 1011.1049 195.1197)" class="st14" width="20.55" height="79.37"/>
	<path class="st15" d="M372.16,1254.71c-49.41-66.24-103.25-40.74-113.57-54.92c-30.69-42.13,69.69-114.84,69.69-114.84
		l-29.44-37.54c0,0-223.52,122.44-202.87,188.42c24.44,78.08,107.95,35.14,99.38,55.42c-1.71,4.05-4.42,7.97-7.41,11.7l-52.33,9.68
		c-27.91,5.16-48.53,28.95-49.67,57.31l-19.59,484.33c-0.74,18.18,13.81,33.32,32,33.32h275.43c18.16,0,32.68-15.08,32.01-33.22
		C401.03,1726.06,392.81,1282.39,372.16,1254.71z"/>
	<g>
		<path class="st16" d="M405.26,1839.22c-2.77,14.8-15.76,26.1-31.48,26.1H98.35c-15.6,0-28.5-11.13-31.41-25.76l-0.59,14.7
			c-0.74,18.18,13.81,33.32,32,33.32h275.43c18.16,0,32.68-15.08,32.01-33.22C405.62,1849.72,405.45,1844.66,405.26,1839.22z"/>
	</g>
	<path class="st16" d="M406.96,1854.37c-4.77-128.31-12.98-571.98-33.63-599.66c-49.41-66.24-103.25-40.74-113.57-54.92
		c-30.69-42.13,69.69-114.84,69.69-114.84l-29.44-37.54c0,0-9.34,5.11-24.01,13.81l18.6,23.73c0,0-100.38,72.71-69.69,114.84
		c10.32,14.17,64.16-11.32,113.57,54.92c20.65,27.68,10.84,474.15,15.61,602.46c0.67,18.14-30.89,30.42-49.04,30.42h69.9
		C393.11,1887.59,407.64,1872.51,406.96,1854.37z"/>
	<path class="st16" d="M189.6,1291.87c-1.62,4.28-4.18,8.44-7.01,12.38l-17.61,3.65c4.36-0.16,8.71-0.41,13.05-0.74
		c9.5-0.71,19.49-1.96,27.19-8.23c7.7-6.27,11.84-19.24,6.31-27.92c-5.15-8.09-15.52-8.79-24.38-8.09
		c-14.21,1.12-28.37,3.82-42.61,3.27c-13.76-0.53-27.3-4.51-38.14-14.31c-2.26-2.04-4.43-4.32-6.63-6.58
		C126.87,1311.23,197.27,1271.55,189.6,1291.87z"/>
	<path class="st17" d="M135.64,1191.14c-6.08,7.71-11.99,16.07-13.66,25.74c-1.67,9.68,2.13,20.97,11.07,25.02
		c9.77,4.43,21.61-1.41,28.02-10.02c6.4-8.61,8.94-19.38,12.5-29.51c5.89-16.73,14.87-32.14,25.13-46.53
		c5.08-7.12,10.5-13.99,16.06-20.74c3.08-3.74,16.08-14.67,16.28-19.27c0.36-8.29-12.38-1.77-17.77,0.71
		c-14.05,6.46-24.69,18.28-35.64,28.88C162.78,1159.84,148.47,1174.88,135.64,1191.14z"/>
	<path class="st17" d="M110.99,1354.51c-5.78,9.69-7.47,21.23-8.43,32.47c-1.24,14.4-1.49,28.89-0.76,43.33
		c0.75,14.66,2.79,30.01,11.46,41.86c7.61,10.4,22.56,17.03,33.62,10.42c8.7-5.2,11.7-16.17,13.61-26.12
		c3.08-16.03,5.28-32.23,6.59-48.5c0.86-10.63,1.36-21.42,4.58-31.59c3.22-10.17,9.61-19.86,19.24-24.43
		c4.98-2.36,10.63-3.28,15.28-6.25c4.65-2.97,8.04-9.24,5.26-14c-0.99-1.7-2.62-2.93-4.29-3.97
		C181.05,1311.45,126.11,1329.17,110.99,1354.51z"/>
	<polygon class="st14" points="247.67,1063.3 296.66,1132.63 334.41,1104.56 343.61,1075.52 317.96,1039.71 290.37,1036.8 	"/>
	<polygon class="st18" points="317.23,1039.9 316.89,1039.87 331.01,1059.1 322.15,1088.24 285.04,1116.52 297.02,1133.06 
		334.44,1104.55 343.3,1075.41 	"/>
	<polygon class="st18" points="331.01,1059.1 352.21,1043.74 357.26,1051 335.83,1065.23 	"/>
	<path class="st19" d="M268.03,1063.79c-1.55,1.54-3.13,3.29-3.41,5.46c-0.48,3.74,3.31,6.92,7.07,7.22
		c3.76,0.31,7.35-1.4,10.74-3.07c5.39-2.66,10.78-5.31,16.17-7.97c9.19-4.53,12.67-17.44-0.34-19.69
		C288.2,1044,274.31,1057.55,268.03,1063.79z"/>
	<polygon class="st16" points="288.3,1121.02 276.64,1132.63 249.73,1076.51 254.78,1073.37 	"/>
</g>
<g>
	<path class="st20" d="M3307.8,1258.11L3164,1156.21c-10.87-7.7-23.92-11.74-37.24-11.51l-267.94,1.12
		c-15.31,0.26-29.35,9.56-40.63,19.92l-76.83,70.61c-12.89,11.85-20.23,28.56-20.23,46.07v553.78c0,16.52,6.53,32.37,18.18,44.09
		l7.39,7.44c11.75,11.83,27.73,18.48,44.4,18.48h476.29c18.19,0,35.47-7.91,47.36-21.67l4.26-4.93
		c9.82-11.37,15.22-25.88,15.22-40.9v-529.54C3334.2,1288.87,3324.36,1269.84,3307.8,1258.11z M3279.93,1359.83
		c0,25.26-29.57,38.95-48.83,22.61l-121.42-103.01c-26.1-17.92-6.55-42.11-6.55-42.11c4.87-19.81,27.83-28.89,44.94-17.78
		l118.37,76.89c8.42,5.47,13.5,14.82,13.5,24.86V1359.83z"/>
	<g>
		<path class="st21" d="M3314.73,1841.44c-11.89,13.76-29.17,21.67-47.36,21.67h-476.29c-16.67,0-32.65-6.65-44.4-18.48l-7.39-7.44
			c-11.64-11.72-18.18-27.57-18.18-44.09v43.09c0,16.52,6.53,32.37,18.18,44.09l7.39,7.44c11.75,11.83,27.73,18.48,44.4,18.48
			h476.29c18.19,0,35.47-7.91,47.36-21.67l4.26-4.93c9.82-11.37,15.22-25.88,15.22-40.9v-43.09c0,15.02-5.4,29.53-15.22,40.9
			L3314.73,1841.44z"/>
	</g>
	<g>
		<path class="st21" d="M3103.13,1237.32c3.43-6.19,11.48-18.8,34.54-22.58c0,0-10.25-7.6-42.23,0
			c-18.17,4.32-46.86,41.08-22.27,64.69l121.42,103.01c11.66,9.89,46.16,15.11,56.53,7.1c-17.42-3.28-19.7-6.84-20.01-7.1
			l-121.42-103.01C3101.11,1272.15,3092.4,1256.66,3103.13,1237.32z"/>
		<path class="st21" d="M3307.8,1258.11L3164,1156.21c-10.87-7.7-23.92-11.74-37.24-11.51l-31.32,0.13
			c11.5,0.76,22.6,4.68,32.05,11.38l143.81,101.9c16.56,11.73,26.4,30.76,26.4,51.06v529.54c0,15.02-5.4,29.53-15.22,40.9
			l-4.26,4.93c-11.89,13.76-29.17,21.67-47.36,21.67h36.52c18.19,0,35.47-7.91,47.36-21.67l4.26-4.93
			c9.82-11.37,15.22-25.88,15.22-40.9v-529.54C3334.2,1288.87,3324.36,1269.84,3307.8,1258.11z"/>
	</g>
	<rect x="2873.49" y="1090.82" class="st20" width="187.95" height="96.8"/>
	<path class="st14" d="M3079.53,1111.9H2855.4v-52.74c0-11.54,9.36-20.9,20.9-20.9h182.33c11.54,0,20.9,9.36,20.9,20.9V1111.9z"/>
	<path class="st18" d="M3058.63,1038.26h-32.16c11.54,0,20.9,9.36,20.9,20.9v52.74h32.16v-52.74
		C3079.53,1047.62,3070.17,1038.26,3058.63,1038.26z"/>
	<rect x="2855.4" y="1130.31" class="st14" width="224.13" height="15.51"/>
	<path class="st19" d="M2868.36,1058.28c0.01,3.88,5.02,5.36,8.89,5.65c26.71,2.01,53.54,2.37,80.29,1.07
		c3.86-0.19,7.89-0.46,11.21-2.45c3.32-1.99,5.6-6.26,4.07-9.81c-1.87-4.33-7.64-4.97-12.35-4.96
		C2948.17,1047.81,2868.36,1039.74,2868.36,1058.28z"/>
	<rect x="3045.86" y="1130.31" class="st18" width="33.67" height="15.51"/>
	<path class="st22" d="M2820.89,1833.18l3.1-550.45c0-17.51,7.34-34.22,20.23-46.07l72.94-81.72h-50.68l-98.64,81.72
		c-12.89,11.85-20.23,28.56-20.23,46.07v486.13L2820.89,1833.18z"/>
	<path class="st21" d="M2885.76,1492.47L2885.76,1492.47c0-26.83,29.41-48.58,65.69-48.58h302.06c9.4,0,18.33,1.46,26.41,4.09
		c-11.39-14.43-32.55-24.12-56.77-24.12H2921.1c-36.28,0-65.69,21.75-65.69,48.58v0c0,19.88,16.15,36.97,39.28,44.49
		C2889.01,1509.74,2885.76,1501.38,2885.76,1492.47z"/>
	<path class="st21" d="M2881.73,1617.3L2881.73,1617.3c0-26.83,29.41-48.58,65.7-48.58h302.06c9.4,0,18.33,1.46,26.41,4.09
		c-11.39-14.43-32.55-24.12-56.77-24.12h-302.06c-36.28,0-65.7,21.75-65.7,48.58v0c0,19.88,16.15,36.97,39.28,44.49
		C2884.98,1634.57,2881.73,1626.22,2881.73,1617.3z"/>
	<path class="st21" d="M2885.76,1731.21L2885.76,1731.21c0-26.83,29.41-48.58,65.69-48.58h302.06c9.4,0,18.33,1.46,26.41,4.09
		c-11.39-14.43-32.55-24.12-56.77-24.12H2921.1c-36.28,0-65.69,21.75-65.69,48.58v0c0,19.88,16.15,36.97,39.28,44.49
		C2889.01,1748.48,2885.76,1740.13,2885.76,1731.21z"/>
</g>
<g>
	<path class="st21" d="M1591.08,1045.44c0,0,0.08,35.12,13.6,73.44c14.05,39.82,32.48,65.3,47.15,60.29
		c8.16-2.78-19.15-24.22-25.39-75.21c-4.21-34.42,2.72-69.68,2.72-69.68L1591.08,1045.44z"/>
	<path class="st20" d="M1475.02,1109.96c-1.03-7.72-22.14-26.12-49.42-26.19s-33.98-12.94-35.01-19.63
		c-1.03-6.69,12.87-41.23,105.03-58.45c92.16-17.23,198.21-7.45,198.21-7.45v36.04c0,0-65.9,1.54-99.88,25.74
		c-33.98,24.2-40.67,49.94-40.67,49.94H1475.02z"/>
	<path class="st21" d="M1536.68,1107.26l-53.04-0.22c-1.03-7.72-30.76-36.34-58.04-36.41c-20.73-0.05-29.57-7.5-33.08-14.01
		c-1.7,3.46-2.15,6.11-1.93,7.52c1.03,6.69,7.72,19.56,35.01,19.63c27.29,0.07,48.4,18.46,49.42,26.19h78.26
		c0,0,6.69-25.74,40.67-49.94c33.98-24.2,99.88-25.74,99.88-25.74v-5.16c0,0-65.28-1.5-100.03,20.4
		C1558.51,1071.76,1536.68,1107.26,1536.68,1107.26z"/>
	<path class="st23" d="M1658.07,1568.12c0.01-65.28-48.97-103.36-45.34-128.74c3.63-25.39,52.59-32.64,45.34-106.98
		c-7.24-74.35-99.03-135.06-99.03-135.06v-70.9h-88.8v70.9c0,0-91.79,60.72-99.03,135.06c-7.24,74.35,41.71,81.6,45.34,106.98
		c3.63,25.39-45.35,63.47-45.34,128.74l-15.44,315.83c-0.47,9.7,7.26,17.82,16.97,17.82h283.81c9.71,0,17.44-8.12,16.97-17.82
		L1658.07,1568.12z"/>
	<path class="st24" d="M1658.06,1568.12c0.01-65.28-48.97-103.36-45.34-128.74s52.59-32.64,45.34-106.98
		c-7.24-74.35-99.03-135.06-99.03-135.06v-70.9h-21.81v54.44c0,0,91.79,60.72,99.03,135.06c7.24,74.35-41.71,81.6-45.34,106.98
		c-3.63,25.39,45.35,63.47,45.34,128.74l15.44,315.83c0.47,9.7-7.26,17.82-16.97,17.82h-278.96c0.27,9.09,7.71,16.47,16.96,16.47
		h283.81c9.71,0,17.44-8.12,16.97-17.82L1658.06,1568.12z"/>
	<rect x="1461.88" y="1107.26" class="st20" width="105.78" height="77.37"/>
	<rect x="1549.45" y="1107.26" class="st21" width="18.21" height="77.37"/>
	<path class="st21" d="M1693.83,998.24c1.96,0.96,20.1,2.77,20.1,2.77v29.01l-20.1,4.25V998.24z"/>
	<path class="st17" d="M1474.7,1126.64c0.3,9.61,0.59,19.22,0.89,28.83c0.12,3.83,0.28,7.83,2.15,11.18
		c1.87,3.35,6.02,5.75,9.59,4.35c3.07-1.21,4.63-4.73,4.84-8.02c0.22-3.29-0.58-6.56-0.68-9.86c-0.33-10.46,9.99-27.8,0.7-36.81
		C1483.51,1107.89,1474.4,1117.01,1474.7,1126.64z"/>
	<path class="st17" d="M1431.53,1055.72c3.71,0.03,7.26-1.42,10.61-3.01c13.91-6.58,26.46-15.9,40.7-21.74
		c15.52-6.36,32.42-8.32,48.84-11.72c1.67-0.35,3.49-0.81,4.46-2.2c1.48-2.12-0.01-5.28-2.32-6.45c-2.31-1.17-5.06-0.91-7.64-0.6
		c-24.76,3.01-49.16,9-72.52,17.77c-7.85,2.95-22.25,6.07-28.44,11.94C1418.96,1045.66,1421.64,1055.64,1431.53,1055.72z"/>
	<path class="st17" d="M1413.88,1340.23c-2.26,12.9-3.32,26.57,1.49,38.74c4.81,12.18,16.98,22.29,30,20.88
		c2.11-0.23,4.33-0.83,5.7-2.46c1.14-1.36,1.48-3.2,1.67-4.96c1.29-12.08-2.99-23.96-5.07-35.92
		c-6.95-40.06,10.92-80.17,32.1-114.88c6.8-11.15,1.71-23.45-10.71-14.69c-10.18,7.17-18.79,23.5-25.18,33.97
		C1429.07,1285.18,1418.78,1312.22,1413.88,1340.23z"/>
	<path class="st17" d="M1433.07,1514.16c-2.33,4.95-2.64,10.58-2.83,16.05c-2.04,56.55,3.68,113.44-3,169.63
		c-3.56,29.99-10.54,61.11-0.99,89.77c2.34,7.03,7.21,14.78,14.62,14.72c9.07-0.07,13.25-11.23,14.38-20.23
		c2.08-16.72,2.08-33.62,2.08-50.47c-0.01-51.73-0.01-103.45-0.02-155.18c0-19.37-0.01-38.8-2.53-58
		C1453.05,1507.26,1440.48,1498.41,1433.07,1514.16z"/>
</g>
<g>
	<path class="st25" d="M369.84,292.9l0.15-89.33c0.02-9.2-3.2-18.11-9.07-25.19l-17.56-21.14c-7.46-8.98-18.52-14.18-30.19-14.2
		l-172.35-0.28c-11.67-0.02-22.75,5.15-30.23,14.1l-17.63,21.08c-5.9,7.06-9.14,15.96-9.16,25.16l-0.15,89.33
		c-0.02,9.8,3.63,19.26,10.22,26.51l4.04,4.45c6.47,7.12,10.11,16.38,10.22,26l2.64,232.49c0.06,4.91-0.81,9.79-2.55,14.38
		l-18.26,48.19c-1.61,4.26-2.47,8.76-2.55,13.31L85.31,792.5c-0.19,11.89,5.02,23.23,14.16,30.84l8.62,7.18
		c7.05,5.87,15.93,9.09,25.1,9.1l185.93,0.29c9.17,0.01,18.06-3.18,25.12-9.02l8.57-7.09c9.21-7.61,14.45-19,14.26-30.94
		l-2.18-134.71c-0.07-4.5-0.92-8.96-2.5-13.17l-18.12-48.32c-1.72-4.6-2.57-9.48-2.5-14.39l3.41-232.48
		c0.14-9.63,3.81-18.87,10.31-25.97l4.06-4.43C366.15,312.15,369.83,302.7,369.84,292.9z"/>
	<path class="st26" d="M355.48,323.81l4.06-4.43c6.62-7.23,10.29-16.68,10.31-26.48l0.15-89.33c0.02-9.2-3.2-18.11-9.07-25.19
		l-17.56-21.14c-6.11-7.36-14.65-12.18-23.95-13.69L331.4,158c5.88,7.08,9.09,15.99,9.07,25.19l-0.15,89.33
		c-0.02,9.8-3.69,19.25-10.31,26.48l-4.06,4.43c-6.5,7.1-10.16,16.34-10.31,25.97l-3.41,232.48c-0.07,4.91,0.78,9.79,2.5,14.39
		l18.12,48.32c1.58,4.22,2.43,8.67,2.5,13.17l2.18,134.71c0.19,11.94-5.05,23.33-14.26,30.94l-8.57,7.09
		c-7.07,5.84-15.95,9.03-25.12,9.02l-185.93-0.29c-3.2-0.01-6.36-0.41-9.42-1.17c1.56,1.9,3.3,3.68,5.22,5.28l8.62,7.18
		c7.05,5.87,15.93,9.09,25.1,9.1l185.93,0.29c9.17,0.01,18.06-3.18,25.12-9.02l8.57-7.09c9.21-7.61,14.45-19,14.26-30.94
		l-2.18-134.71c-0.07-4.5-0.92-8.96-2.5-13.17l-18.12-48.32c-1.72-4.6-2.57-9.48-2.5-14.39l3.41-232.48
		C345.31,340.16,348.98,330.92,355.48,323.81z"/>
	<path class="st17" d="M109.03,184.04c-3.55,3.7-7.15,8.36-6.3,13.42c0.8,4.74,5.44,8.04,10.17,8.93c4.72,0.89,9.57-0.1,14.3-0.9
		c30.95-5.23,62.6-2.5,93.99-2.01c2.65,0.04,5.4,0.05,7.8-1.07c5.28-2.46,6.83-9.13,7.43-14.93c0.32-3.06,0.52-6.32-0.86-9.07
		c-2.68-5.35-9.75-6.37-15.73-6.71c-23.6-1.33-47.2-2.64-70.8-4C129.72,166.59,123.04,170.04,109.03,184.04z"/>
	<path class="st17" d="M111.06,628.34c-0.18,0.71-0.33,1.47-0.09,2.16c0.42,1.24,1.87,1.74,3.14,2.05
		c10.73,2.58,21.92,2.25,32.95,1.9c17.87-0.56,35.75-1.13,53.62-1.69c4.41-0.14,9.12-0.37,12.71-2.95c5.12-3.68,6.18-11.4,3.4-17.05
		c-2.79-5.65-8.6-9.33-14.68-11.01c-6.08-1.68-12.48-1.61-18.78-1.53C158.06,600.52,119.17,595.73,111.06,628.34z"/>
	<polygon class="st14" points="341.69,154.84 111.96,154.84 121.18,132.27 329.52,132.27 	"/>
	<polygon class="st18" points="290.89,132.64 302.87,154.84 342.45,154.84 330.27,132.27 121.94,132.27 121.79,132.64 	"/>
	<polygon class="st27" points="111.96,154.84 342.45,154.84 345.72,160.08 108.89,158.88 	"/>
	<path class="st26" d="M347.29,274.98c-8.02,10.93-20.41,18-33.36,22.01c-12.95,4-26.57,5.21-40.07,6.39
		c-25.25,2.21-50.5,4.43-75.75,6.64c-7.64,0.67-15.47,1.39-22.38,4.73c-2.42,1.17-4.84,2.84-5.66,5.4
		c-1.06,3.32,1.11,6.99,4.11,8.77c2.99,1.79,6.6,2.13,10.08,2.39c32.88,2.48,65.92,1.38,98.88,2.4c7.75,0.24,15.63,0.62,22.94,3.19
		c7.31,2.57,14.1,7.67,16.91,14.9c1.16,2.97,1.6,6.2,1.47,9.39c-0.04,0.84,0.01,1.89,0.78,2.23c0.77,0.33,1.28-1.37,0.46-1.17
		L347.29,274.98z"/>
</g>
<g>
	<path class="st15" d="M2151.16,1763.98c0.08-3.56,3.41-5.69,6.61-5.71c6.04-0.05,12.06,1.73,17.94,2.94
		c3.71,0.77,13.41,4.09,16.87,1.62c0.41-0.29,1.78-5.66,2.83-7.13c1.95-2.72,5.03-4.46,8.09-5.62c5.25-1.99,10.84-2.44,16.31-3.48
		c-0.78-7.86-3.14-15.51-5.18-23.17c-33-7.86-65.97-12.64-90.56-14.7c-7.9-0.66-18.7-0.34-31.12-0.96
		c-18.28-0.73-23.31-17.45-21.01-29.36l-0.18-0.06c9.98-40.67,15.22-103.08,15.22-103.08l-3.77-1.34c0,0-36.85,110.25-44.94,115.56
		c-3.9,2.56-7.04,3.03-9.24,2.83c-2.02-1.22-4.94-4.35-4.14-12.22c0.94-9.25,31.5-115.72,31.5-115.72l-4.32-1.54
		c0,0-35.99,103.24-42.02,111.46c-5.75,7.85-9.47,8.44-10.15,8.48c-1.96-1.42-4.36-4.66-3.62-11.88
		c0.94-9.25,31.5-115.72,31.5-115.72l-4.32-1.54c0,0-35.99,103.24-42.02,111.46c-5.7,7.78-9.4,8.43-10.13,8.48
		c-0.06-0.02-0.12-0.04-0.18-0.06l0.08-0.04c0,0-7.11-1.19-5.92-12.96c0.94-9.25,31.5-115.72,31.5-115.72l-4.32-1.54
		c0,0-35.99,103.24-42.02,111.46c-5.7,7.77-9.4,8.42-10.12,8.48c-0.5-0.17-1-0.34-1.5-0.5c-2-1.03-5.4-4.03-4.55-12.45
		c0.94-9.25,31.5-115.72,31.5-115.72l-4.32-1.54c0,0-35.99,103.24-42.02,111.46c-6.38,8.69-10.56,8.17-10.56,8.17l0,0
		c-0.01-0.01-6.55-2.79-5.35-14.54c0.94-9.25,31.5-115.72,31.5-115.72l-4.32-1.54c0,0-35.99,103.24-42.02,111.46
		c-4.89,6.66-8.58,8.88-10.05,9.56c-1.89-1.6-4.5-5.25-3.72-12.96c0.94-9.25,31.5-115.72,31.5-115.72l-4.32-1.54
		c0,0-35.99,103.24-42.02,111.46c-6.38,8.7-10.26,8.48-10.26,8.48l1.41,1.31c-0.85-0.3-1.7-0.6-2.55-0.89l1.17-0.52
		c0,0-7.11-1.19-5.92-12.96c0.94-9.25,31.5-115.72,31.5-115.72l-4.32-1.54c0,0-35.99,103.24-42.02,111.46
		c-6.38,8.7-10.26,8.48-10.26,8.48l0.2,0.19c-0.11-0.04-0.23-0.08-0.34-0.13l0.14-0.06c0,0-7.11-1.19-5.92-12.96
		c0.94-9.25,31.5-115.72,31.5-115.72l-4.32-1.54c0,0-35.99,103.24-42.02,111.46c-5.11,6.97-8.43,6.95-9.55,6.67
		c-1.51-0.76-2.6-1.4-3.22-1.91c-16.65-13.63,18.13-126.74,18.13-126.74l-4.51-1.61c0,0-74.82,146.47-65.08,175.28
		c12.38,36.65,253.83,116.63,282.15,110.05c28.32-6.58,38.67-21.94,64.08-15.35c16.79,4.36,43.07,22.51,71.74,42.9
		C2151.5,1782.46,2150.95,1773.24,2151.16,1763.98z"/>
	<path class="st15" d="M2328.9,1870.53c2.48-34.47-35.11-75.35-78.73-109.72c-1.32,8.37-2.76,16.66-6.06,24.63
		c-1.11,2.69-4.28,3.44-6.83,3.17c-3.86-0.42-7.58-1.49-11.34-2.42c-2.83-0.7-7.55-2.51-10.45-1.41c-2.86,1.07-4.58,4.84-7.52,6.23
		c-2.57,1.21-5.33,1.29-8.08,0.68c-10.34-2.27-17.92-10.39-26.72-15.91c-3.87,8.98-7.3,18.11-11.01,27.14
		c24.04,39.72,49.82,81.29,73.14,95.54C2280.94,1926.33,2326.34,1906.09,2328.9,1870.53z"/>
	<g>
		<path class="st16" d="M1945.5,1577.93c-8.19,29.23-17.03,61.53-17.53,66.44c-0.85,8.42,2.55,11.42,4.55,12.45
			c0.5,0.17,1,0.34,1.5,0.5c0.13-0.01,0.36-0.04,0.68-0.13c-0.5-1.76-0.72-4.04-0.42-6.97c0.94-9.25,31.5-115.72,31.5-115.72
			l-4.32-1.54C1961.47,1532.96,1954.12,1554.05,1945.5,1577.93z"/>
		<path class="st16" d="M1976.51,1588.21c-8.19,29.23-17.03,61.53-17.53,66.44c-1.19,11.76,5.92,12.96,5.92,12.96l-0.08,0.04
			c0.06,0.02,0.12,0.04,0.18,0.06c0.14-0.01,0.39-0.04,0.75-0.14c-0.51-1.78-0.75-4.08-0.44-7.06c0.94-9.25,31.5-115.72,31.5-115.72
			l-4.32-1.54C1992.48,1543.24,1985.13,1564.33,1976.51,1588.21z"/>
		<path class="st16" d="M1914.75,1565.76c-8.19,29.23-17.03,61.53-17.53,66.44c-1.19,11.75,5.34,14.54,5.35,14.54c0,0,0,0,0,0
			c0,0,0.58,0.07,1.62-0.28c-0.67-2.09-1.02-4.83-0.66-8.41c0.94-9.25,31.5-115.72,31.5-115.72l-4.32-1.54
			C1930.72,1520.79,1923.36,1541.88,1914.75,1565.76z"/>
		<path class="st16" d="M2007.49,1598.58c-8.19,29.23-17.03,61.53-17.53,66.44c-0.73,7.22,1.66,10.45,3.62,11.88
			c0.31-0.02,1.25-0.15,2.72-1.03c-0.19-1.41-0.22-3.05-0.02-4.99c0.94-9.25,31.5-115.72,31.5-115.72l-4.32-1.54
			C2023.46,1553.62,2016.11,1574.71,2007.49,1598.58z"/>
		<path class="st16" d="M2036.1,1607.78c-8.19,29.23-17.03,61.53-17.53,66.44c-0.8,7.87,2.12,11.01,4.14,12.22
			c0.71,0.06,1.52,0.06,2.43-0.07c-0.37-1.66-0.51-3.73-0.25-6.3c0.94-9.25,31.5-115.72,31.5-115.72l-4.32-1.54
			C2052.07,1562.82,2044.71,1583.91,2036.1,1607.78z"/>
		<path class="st16" d="M2065.44,1672.48c0.06,0.02,0.12,0.04,0.18,0.06c-1.75,9.08,0.77,20.97,10.18,26.42
			c-4.16-6-5.12-14.01-3.86-20.56c-0.06-0.02-0.12-0.04-0.18-0.06c9.98-40.67,15.22-103.08,15.22-103.08l-3.77-1.34
			c0,0-1.59,4.76-4.19,12.35C2076.75,1607.64,2072.18,1645.02,2065.44,1672.48z"/>
		<path class="st16" d="M1886.14,1556.56c-8.19,29.23-17.03,61.53-17.53,66.44c-0.78,7.7,1.83,11.35,3.72,12.96
			c0.57-0.26,1.47-0.76,2.64-1.64c-0.21-1.55-0.26-3.34-0.04-5.46c0.94-9.25,31.5-115.72,31.5-115.72l-4.32-1.54
			C1902.11,1511.59,1894.76,1532.68,1886.14,1556.56z"/>
		<path class="st16" d="M2328.9,1870.53c0.74-10.33-2.12-21.25-7.66-32.38c3.22,8.4,4.75,16.62,4.18,24.51
			c-2.55,35.57-47.96,55.81-93.61,27.92c-22.04-13.46-46.26-51.31-69.14-88.94c-0.17,0.43-0.35,0.86-0.52,1.28
			c24.04,39.72,49.82,81.29,73.14,95.54C2280.94,1926.33,2326.34,1906.09,2328.9,1870.53z"/>
		<path class="st16" d="M2151.79,1790.29c-31.08-22.15-60-42.69-78.01-47.36c-25.4-6.59-35.75,8.78-64.08,15.35
			c-25.41,5.9-222.35-57.87-271.54-97.51c35.01,38.82,251.15,109.56,277.86,103.36c28.32-6.58,38.67-21.94,64.08-15.35
			c16.79,4.36,43.07,22.51,71.74,42.9C2151.82,1791.22,2151.81,1790.76,2151.79,1790.29z"/>
		<path class="st16" d="M1779.01,1601.3c0.62,0.51,1.71,1.15,3.22,1.91c0.13,0.03,0.29,0.06,0.48,0.08
			c-9.65-24,20.75-122.87,20.75-122.87l-4.51-1.61c0,0-2.79,5.46-7.21,14.47C1782.69,1526.01,1766.63,1591.17,1779.01,1601.3z"/>
		<path class="st16" d="M1855.16,1546.18c-8.19,29.23-17.03,61.53-17.53,66.44c-1.19,11.76,5.92,12.96,5.92,12.96l-1.17,0.52
			c0.84,0.3,1.69,0.59,2.55,0.89c0,0,0,0,0,0l-1.41-1.31c0,0,0.3,0.02,0.88-0.15c-0.51-1.78-0.75-4.08-0.44-7.06
			c0.94-9.25,31.5-115.72,31.5-115.72l-4.32-1.54C1871.13,1501.22,1863.78,1522.31,1855.16,1546.18z"/>
		<path class="st16" d="M1824.15,1535.9c-8.19,29.23-17.03,61.53-17.53,66.44c-1.19,11.76,5.92,12.96,5.92,12.96l-0.14,0.06
			c0.11,0.04,0.23,0.08,0.34,0.13l-0.2-0.19c0,0,0.28,0.01,0.82-0.13c-0.5-1.76-0.72-4.04-0.42-6.97
			c0.94-9.25,31.5-115.72,31.5-115.72l-4.32-1.54C1840.12,1490.94,1832.77,1512.03,1824.15,1535.9z"/>
	</g>
	<path class="st7" d="M2151.31,1722.47c5.65,1.14,11.36,3.09,17.04,2.1c1.01-0.18,2.18-0.61,2.42-1.61
		c0.28-1.17-0.92-2.14-2.01-2.65c-3.3-1.56-6.99-2.07-10.6-2.55c-8.09-1.09-16.19-2.18-24.28-3.27c-6.07-0.82-15.24-0.97-21.49-0.27
		c-6.1,0.68-7.3,3.82-4.5,6.87c2.73,2.98,17.36,0.09,21.26-0.02C2136.57,1720.88,2144.02,1720.99,2151.31,1722.47z"/>
</g>
<g>
	<path class="st28" d="M1130.55,971.52c9.01,2.4,17.89,5.54,26.44,9.35c-2.66,8.35-4.53,16.97-5.61,25.79
		c2.65-8.05,6.3-15.73,10.89-22.94c15.91,3.94,31.62,9.47,46.57,16.41c-6.34,5.05-10.64,11.69-12.39,19.13
		c4.95-6.33,11.17-11.93,18.42-16.58c15.49,5.41,30.73,11.61,45.58,18.53c-3.14,2.76-5.52,6.09-7,9.76
		c2.45-2.24,5.34-4.17,8.58-5.72c1.05-0.5,2.2-0.98,3.54-0.95c1.33,0.03,2.7,0.54,4.01,1.04c11.89,4.62,23.44,10.09,34.45,16.31
		c-12.57,3.19-22.84,9.63-30.74,17.53s-13.55,17.23-18.25,26.9c-8.64-2.39-17.21-5.1-25.7-8.1c-14.4-5.1-28.5-11.04-42.57-16.98
		c-10.71-4.52-21.43-9.04-32.14-13.55c-10.07-4.25-22.06-7.97-31.46-13.32c-6.54-3.72-4.84-7.83-3.06-12.17
		c2.95-7.23,5.3-14.58,6.81-22.31C1128.72,990.43,1129.64,980.97,1130.55,971.52z"/>
	<g>
		<path class="st29" d="M1147.18,984.77c-5.14,8.26-9.02,17.6-12.23,26.78c-1.62,4.63-3.05,9.42-4,14.24
			c-0.54,2.75-2.01,6.78,0.74,8.68c0.77,0.54,2.22,0.39,2.83-0.37c1.95-2.41,0.99-6.58,1.26-9.51c0.45-4.75,1.74-9.32,3.15-13.87
			c2.69-8.67,6.24-17.05,8.47-25.86C1147.44,984.73,1147.26,984.65,1147.18,984.77L1147.18,984.77z"/>
	</g>
	<g>
		<path class="st29" d="M1165.89,993.2c-6.17,6.11-11.64,12.93-16.02,20.43c-4.08,6.99-9.47,15.84-10.57,23.97
			c-0.48,3.56,4.55,5.24,5.57,1.53c0.13-0.46,0.25-0.92,0.38-1.38c0.42-1.53-1.02-2.94-2.54-2.54c-0.46,0.12-0.93,0.25-1.39,0.37
			c1.09,1.41,2.17,2.83,3.26,4.24c1.95-3.72,2.85-7.96,4.35-11.89c1.54-4.02,3.29-7.96,5.23-11.8c3.85-7.61,8.14-14.96,12.86-22.07
			C1167.48,993.38,1166.46,992.63,1165.89,993.2L1165.89,993.2z"/>
	</g>
	<g>
		<path class="st29" d="M1169.62,1004.35c-4.55,5.62-8.21,11.86-11.41,18.35c-2.8,5.67-6.74,12.88-6.81,19.27
			c-0.02,1.32,1.79,1.77,2.45,0.66c3.19-5.29,4.31-12.28,6.67-18.04c2.79-6.81,6.36-13.21,9.85-19.67
			C1170.62,1004.48,1169.97,1003.91,1169.62,1004.35L1169.62,1004.35z"/>
	</g>
	<g>
		<path class="st29" d="M1191.13,1002c-8.12,3.26-13.13,14.84-16.31,22.35c-2,4.72-3.66,9.6-4.71,14.62
			c-0.95,4.54-2.5,10.47-1.04,14.98c0.71,2.2,4.35,3.23,5.47,0.71c1.79-4.03,1.52-8.64,2.35-12.97c0.89-4.62,2.03-9.2,3.58-13.64
			c1.55-4.45,3.54-8.72,5.74-12.88c2.07-3.92,5.17-7.71,5.96-12.14C1192.26,1002.48,1191.78,1001.74,1191.13,1002L1191.13,1002z"/>
	</g>
	<g>
		<path class="st29" d="M1215.23,1017.85c-6.67,7.37-12.42,14.88-17.37,23.55c-2.39,4.19-4.62,8.48-6.51,12.91
			c-1.74,4.08-4.1,8.52-4.21,13.01c-0.04,1.62,2.02,1.93,2.84,0.77c2.34-3.32,3.27-7.65,4.82-11.4c2-4.83,4.13-9.6,6.54-14.24
			c4.27-8.23,9.25-16.47,14.69-23.98C1216.37,1018,1215.62,1017.43,1215.23,1017.85L1215.23,1017.85z"/>
	</g>
	<g>
		<path class="st29" d="M1234.38,1017.49c-6.52,8.31-12.88,16.39-17.76,25.85c-2.21,4.28-4.23,8.71-5.81,13.27
			c-1.42,4.09-4.08,9.6-1.7,13.61c0.83,1.4,2.46,1.37,3.62,0.47c3.2-2.51,3.19-7.74,4.4-11.45c1.59-4.87,3.51-9.6,5.74-14.21
			c4.25-8.77,8.82-17.47,13.39-26.07C1236.87,1017.81,1235.26,1016.38,1234.38,1017.49L1234.38,1017.49z"/>
	</g>
	<g>
		<path class="st29" d="M1244.22,1043.68c-4.17,5.79-8.12,11.71-11.65,17.92c-2.09,3.68-6.43,9.65-2.5,13.33
			c0.66,0.62,1.85,0.57,2.3-0.3c1.1-2.11,1.44-4.45,2.29-6.68c1.06-2.77,2.31-5.51,3.53-8.21c2.34-5.15,4.83-10.21,7.58-15.16
			C1246.34,1043.56,1244.89,1042.76,1244.22,1043.68L1244.22,1043.68z"/>
	</g>
	<g>
		<path class="st29" d="M1276.73,1036.04c-8.46,3.44-14.89,9.56-20.59,16.6c-5.32,6.58-10.74,14.8-13.09,23.01
			c-1.14,3.99,4.13,7.17,7.04,4.1c2.42-2.56,3.21-6.94,4.74-10.09c1.99-4.08,4.34-7.96,6.86-11.73
			c4.84-7.23,10.97-13.44,16.22-20.36C1278.44,1036.88,1277.55,1035.71,1276.73,1036.04L1276.73,1036.04z"/>
	</g>
	<g>
		<path class="st15" d="M1273.79,1091.28c-2.75-14.07-18.55-20.74-32.13-25.36c-46.69-15.88-92.38-34.7-136.72-56.31
			c-6.33-3.08-12.84-6.4-17.2-11.93c-4.01-5.1-5.78-11.57-8.81-17.32c-9.91-18.79-32.99-27.84-54.18-26.28
			c-14.31,1.05-28.21,6.14-42.56,6.09c-14.25-0.06-27.94-5.18-41.25-10.29c-81.6-31.34-149.39-47.8-223.92-93.46
			c-10.83-6.63-28.3-22.89-41.97-28.62c-5.81-2.44-12.29-4.51-18.33-2.68c-12.01,3.64-14.46,21.07-7.48,31.5
			c6.98,10.43,19.48,15.42,31.23,19.83c91.47,34.33,182.94,68.66,274.41,102.98c13.65,5.12,27.75,10.32,42.32,9.79
			c11.12-0.4,21.85-4.14,32.91-5.4c11.06-1.26,23.51,0.57,30.76,9.01c6.64,7.74,7.36,19.2,13.68,27.2
			c4.84,6.12,12.31,9.43,19.48,12.51c52.97,22.77,105.94,45.54,158.91,68.31c6.45,2.77,15.27,4.98,19.41-0.69
			C1274.2,1097.68,1274.38,1094.32,1273.79,1091.28z"/>
	</g>
	<path class="st16" d="M1273.54,1091.92c-0.09-0.46-0.19-0.91-0.31-1.35c-4.26,5.13-12.78,2.99-19.06,0.29
		c-52.97-22.77-105.94-45.54-158.91-68.31c-7.17-3.08-14.64-6.39-19.48-12.51c-6.33-8-7.04-19.46-13.68-27.2
		c-7.25-8.45-19.7-10.27-30.76-9.01c-11.06,1.26-21.79,5-32.91,5.4c-14.57,0.53-28.67-4.67-42.32-9.79
		c-91.47-34.33-182.94-68.66-274.41-102.98c-11.75-4.41-24.25-9.4-31.23-19.83c-2.19-3.27-3.44-7.22-3.78-11.22
		c-2.64,6.81-1.86,15.61,2.33,21.87c6.98,10.43,19.48,15.42,31.23,19.83c91.47,34.33,182.94,68.66,274.41,102.98
		c13.65,5.12,27.75,10.32,42.32,9.79c11.12-0.4,21.85-4.14,32.91-5.4c11.06-1.26,23.51,0.57,30.76,9.01
		c6.64,7.74,7.36,19.2,13.68,27.2c4.84,6.12,12.31,9.43,19.48,12.51c52.97,22.77,105.94,45.54,158.91,68.31
		c6.45,2.77,15.27,4.98,19.41-0.69C1273.94,1098.32,1274.13,1094.95,1273.54,1091.92z"/>
</g>
<g>
	
		<rect x="3117.04" y="303.17" transform="matrix(0.8433 0.5375 -0.5375 0.8433 666.7985 -1642.4302)" class="st30" width="65.46" height="38.03"/>
	<path class="st31" d="M2931.35,909.89l-224.88-143.33c-15.88-10.12-20.55-31.21-10.43-47.09l211.11-331.22
		c28.53-44.77,87.96-57.93,132.72-29.4l120.29,76.67c44.77,28.53,57.93,87.96,29.4,132.72l-211.11,331.22
		C2968.32,915.35,2947.24,920.02,2931.35,909.89z"/>
	<path class="st32" d="M3186.91,461.32c7.04,25.35,3.71,53.47-11.54,77.41l-211.11,331.22c-10.12,15.88-31.21,20.55-47.09,10.43
		l-224.88-143.33c-0.69-0.44-1.35-0.91-2-1.39c-0.63,11.88,4.97,23.76,15.72,30.61l224.88,143.33
		c15.88,10.12,36.97,5.45,47.09-10.43l211.11-331.22C3210.58,534.23,3208.41,492.21,3186.91,461.32z"/>
	
		<rect x="3046.95" y="328.08" transform="matrix(0.8433 0.5375 -0.5375 0.8433 686.299 -1620.1786)" class="st33" width="148.84" height="77.33"/>
	
		<rect x="3145.7" y="356.88" transform="matrix(0.8433 0.5375 -0.5375 0.8433 708.8592 -1639.9519)" class="st34" width="41.69" height="77.33"/>
	
		<rect x="3042.81" y="395.15" transform="matrix(0.8433 0.5375 -0.5375 0.8433 709.7719 -1593.0413)" class="st32" width="87.51" height="50.84"/>
	
		<rect x="2956.59" y="411.81" transform="matrix(0.8433 0.5375 -0.5375 0.8433 788.5139 -1502.3112)" class="st32" width="27.56" height="378.31"/>
	<path class="st33" d="M3313.89,305.72c-26.3-27.36-140.67-92.76-140.67-92.76c-9.15-5.83-21.29-3.14-27.12,6.01l-31.04,48.7
		c-5.83,9.15-3.14,21.29,6.01,27.12l65.66,41.85c9.15,5.83,21.29,3.14,27.12-6.01l23.52-36.89c9.18,4.07,18.98,8.89,28.39,14.42
		c32.7,19.21,41.6,35.09,41.6,35.09l24.61,12.18C3331.96,355.44,3339.74,332.61,3313.89,305.72z"/>
	<path class="st34" d="M3325,321.68c4.17,13.41,1.09,22.46,1.09,22.46l-24.61-12.18c0,0-8.9-15.88-41.6-35.09
		c-9.42-5.53-19.22-10.36-28.4-14.42l-23.52,36.89c-5.83,9.15-17.97,11.84-27.12,6.01l-65.66-41.85c-1.37-0.87-2.59-1.89-3.66-3.01
		c0.45,5.96,3.6,11.63,9.03,15.09l65.66,41.85c9.15,5.83,21.29,3.14,27.12-6.01l23.52-36.89c9.18,4.07,18.98,8.89,28.4,14.42
		c32.7,19.21,41.6,35.09,41.6,35.09l24.61,12.18C3331.46,356.22,3336.48,341.45,3325,321.68z"/>
	
		<rect x="3027.07" y="396.26" transform="matrix(0.8433 0.5375 -0.5375 0.8433 699.9451 -1604.6057)" class="st30" width="148.84" height="3.36"/>
	<path class="st17" d="M2953.55,413.13c-5.69,8.56-10.99,17.39-15.68,26.54c-3.73,7.29-7.16,15.33-5.88,23.42
		c1.28,8.09,9.18,15.61,17.1,13.5c5.91-1.58,9.4-7.47,12.53-12.73c6.9-11.57,15.02-22.42,24.19-32.29
		c5.48-5.9,11.51-11.58,18.9-14.78c12.11-5.25,25.96-3.19,39.06-1.6c17.36,2.11,19.33-10.12,8.6-20.88
		c-7.15-7.17-17.3-15.55-27.25-18.33C2994.3,367.35,2969.25,389.48,2953.55,413.13z"/>
	<path class="st17" d="M2906.88,486.66c-5.15,6.36-7.72,14.36-10.71,21.99c-20.48,52.34-63.68,92.55-89.27,142.59
		c-3.08,6.02-5.96,12.46-5.82,19.22c0.15,6.76,4.18,13.9,10.76,15.5c9.3,2.27,17.2-6.74,22.27-14.86
		c26.7-42.76,45.22-90.88,77.57-129.53c7.83-9.36,16.58-18.33,21.32-29.57C2941.41,492.04,2926.51,462.41,2906.88,486.66z"/>
	<path class="st17" d="M3157.78,219.61c-3.6,1.05-6.48,3.74-8.86,6.64c-5.27,6.43-8.72,14.33-9.87,22.56
		c-0.27,1.9-0.38,3.96,0.64,5.58c1.66,2.64,5.66,2.82,8.37,1.26c2.7-1.56,4.44-4.31,6.2-6.89c3.44-5.06,7.71-10.06,13.57-11.79
		c6.49-1.91,13.44,0.63,19.33,3.96c5.89,3.32,11.43,7.51,17.95,9.31c1.71,0.47,3.7,0.72,5.11-0.36c1.69-1.29,1.68-3.97,0.56-5.77
		s-3.03-2.93-4.87-3.99c-9.19-5.27-18.39-10.62-27.81-15.47C3172.2,221.62,3164.55,217.64,3157.78,219.61z"/>
</g>
<g>
	<g>
		<g>
			
				<rect x="472.75" y="305.75" transform="matrix(0.9762 -0.217 0.217 0.9762 -48.5781 177.9677)" class="st35" width="626.48" height="8.82"/>
			<path class="st35" d="M1034.33,266.62c7.94,2.8,17.04,1.28,25.49-0.68c19.94-4.63,42.76-11.15,59.12-0.65
				c7.98,5.12,12.65,13.45,16.57,21.65c12.23,25.55,20.19,53.23,37.25,76.2c2.61,3.51,5.6,7.03,9.88,8.73
				c10.78,4.28,23.73-5.98,25.36-16.85c1.63-10.87-4.33-21.1-10.51-30.19c-17.08-25.15-37.33-48.31-58.38-70.73
				c-11.48-12.22-25.11-25.11-43.03-25.83c-6.81-0.28-13.61,1.28-20.3,2.83c-12.33,2.85-39.67,4.26-49.3,12.06
				C1017.95,250.06,1024.92,263.29,1034.33,266.62z"/>
		</g>
		<g>
			
				<rect x="556.25" y="279.48" transform="matrix(-0.9347 0.3553 -0.3553 -0.9347 1783.1135 240.2989)" class="st35" width="626.48" height="8.82"/>
			<path class="st35" d="M638.11,384.03c-5.09,6.71-13.53,10.44-21.66,13.44c-19.2,7.1-41.85,14.19-49.74,31.95
				c-3.85,8.66-3.17,18.18-1.94,27.19c3.83,28.06,12.4,55.56,10.77,84.14c-0.25,4.37-0.81,8.95-3.45,12.73
				c-6.65,9.5-23.11,8.05-30.45-0.14c-7.34-8.18-7.98-20-7.82-31c0.44-30.4,4.62-60.87,9.89-91.17
				c2.87-16.52,7.17-34.77,21.75-45.23c5.53-3.97,12.07-6.41,18.51-8.8c11.87-4.4,35.49-18.25,47.81-17.03
				C642.69,361.19,644.14,376.07,638.11,384.03z"/>
		</g>
		<path class="st36" d="M470.01,346.53c0.53,14.97,5.41,29.42,10.55,43.49c13.9,38.05,31.78,77.37,65.43,99.92
			c6.38,4.28,13.27,7.88,20.63,10.07c13.24,3.95,27.49,3.2,41.05,0.56c29.67-5.77,57.28-20.45,80.03-40.34
			c8.1-7.09,15.67-14.89,21.7-23.8c7.38-10.9,12.33-23.23,17.22-35.46c17.4-43.48,35.14-89.38,29.02-135.81
			c-1.38-10.45-4.1-21.04-10.36-29.53c-7.99-10.83-20.87-17.03-33.84-20.64c-18.54-5.16-38.32-5.83-57.17-1.94
			c-25.06,5.18-47.81,18.08-72.15,25.97c-9.14,2.96-18.52,5.22-27.49,8.66C516.37,262.4,468.4,301.36,470.01,346.53z"/>
		<path class="st36" d="M640.63,252.27c6.99,14.31,7.91,30.85,6.75,46.74c-2.12,28.83-11.1,57.77-29.38,80.17
			c-22.66,27.78-56.91,42.93-89.85,57.1c-8.34,3.59-16.67,7.17-25.01,10.76c12.48,13.86,24.97,27.72,37.45,41.58
			c3.25,3.6,6.55,7.25,10.66,9.83c8.2,5.13,18.44,5.34,28.11,5.38c14.34,0.07,28.89,0.11,42.73-3.64
			c11.98-3.24,23.02-9.22,33.7-15.53c11.15-6.59,22.11-13.66,31.71-22.35c20.69-18.72,34.13-44.04,45.3-69.61
			c10.96-25.09,20.21-51.24,23.32-78.45c3.11-27.21-0.25-55.7-13.3-79.77c-2.79-5.15-6.14-10.21-11.03-13.43
			c-5.75-3.79-12.9-4.58-19.75-5.26c-17.98-1.78-36.08-3.36-54.16-2.52c-11.59,0.54-43.56,1.46-49.99,12.59
			C622.27,230.93,633.63,237.93,640.63,252.27z"/>
		<path class="st5" d="M1150.85,142.73c-9.89-16.47-24.85-30.69-42.78-37.98c-34.75-14.13-81.42-7.4-117.2-1.03
			c-21.27,3.79-42.29,9.63-62.23,17.95c0.12-0.36,0.2-0.73,0.17-1.14c-5.25-1.99-11.12-0.34-16.42,1.51
			c-15.46,5.4-30.29,12.42-45.28,19.04c-55.94,24.69-118.77,39.74-178.51,52.77c-15.27,3.33-26.58,4.96-38.87,14.61c0,0,0,0,0,0
			c-24.91,3.92-49.26,11.67-72.31,21.91c-33.21,14.76-75.64,35.33-96.51,66.49c-10.77,16.08-15.2,36.24-14.17,55.43
			c1.55,28.77,13.73,55.84,27.01,81.41c8.6,16.55,17.83,32.93,29.79,47.24c13.13,15.72,30.45,29.19,50.7,32.25
			c8.63,1.3,17.44,0.67,26.07-0.62c44.03-6.56,85.2-30.69,112.44-65.91c17.96-23.22,29.82-50.71,37.58-79.02
			c7.9-28.84,11.69-58.8,11.24-88.7c1.44-3.63,2.98-7.21,4.71-10.72c5.9-11.97,13.91-23.15,24.71-30.99
			c11.65-8.46,26.32-12.67,40.68-11.67c8.76,0.61,17.36,3.17,25.1,7.33c0.7,1.22,1.4,2.42,2.11,3.61
			c17.52,29.22,39.77,55.59,65.63,77.77c22.28,19.11,47.51,35.23,75.39,44.41c42.29,13.92,89.91,10.86,130.06-8.37
			c7.87-3.77,15.52-8.18,21.94-14.09c15.06-13.88,21.86-34.74,23.94-55.11c1.89-18.56,0.36-37.29-1.78-55.82
			C1170.75,196.68,1165.68,167.44,1150.85,142.73z M737.16,364.37c-7.25,25.31-18.23,49.91-34.74,70.74
			c-25.04,31.6-62.7,53.39-102.86,59.53c-7.87,1.2-15.9,1.83-23.75,0.72c-18.43-2.6-34.12-14.51-45.99-28.44
			c-10.81-12.69-19.11-27.24-26.84-41.96c-11.94-22.73-22.86-46.79-24.09-72.45c-0.82-17.11,3.34-35.12,13.26-49.54
			c19.22-27.94,58.01-46.56,88.36-59.94c35.37-15.59,74.02-24.92,112.74-22.38c16.32,1.07,33.88,5,43.99,17.47
			c8.01,9.88,9.8,23.24,10.41,35.92C749.13,304.37,745.57,335,737.16,364.37z M845.99,196.53c-0.41,5.21,0.24,10.34,1.58,15.35
			c-18.23-2.07-27.21-4.79-44.53,1.56c-13.97,5.12-34.81,17.2-45.03,30.55c-1.73-6.49-4.39-12.62-8.59-17.88
			c-11.2-14.06-30.5-18.6-48.43-19.93c-2.31-0.17-4.62-0.3-6.94-0.39c2.93-0.68,5.87-1.36,8.8-2.07
			c18.75-4.53,37.39-9.54,55.89-15.02c36.6-10.84,72.66-23.52,107.99-37.98c9.81-4.01,19.56-8.17,29.25-12.45
			c-7.28,4.45-14.32,9.31-21.06,14.63C860.84,164.04,847.39,178.61,845.99,196.53z M1161.52,223.22
			c1.84,16.52,3.11,33.22,1.27,49.79c-2.02,18.19-8.35,36.85-22.16,49.32c-5.88,5.31-12.89,9.3-20.08,12.71
			c-36.71,17.41-80.11,20.45-118.55,8.3c-25.34-8.01-48.22-22.24-68.4-39.14c-23.42-19.62-43.53-43.01-59.3-68.96
			c-6.59-10.85-12.6-22.92-11.49-35.59c1.4-16,13.74-29.08,26.66-39.11c30.66-23.79,67.9-37.71,105.94-44.61
			c32.64-5.91,75.2-12.21,106.77,0.17c16.29,6.39,29.83,18.98,38.73,33.61C1154.25,171.65,1158.69,197.71,1161.52,223.22z"/>
		<path class="st6" d="M496.26,343.37c-0.98,24.77,7.68,49.03,19.41,70.86c-7.21-26.22-9.16-54.2-3-80.68
			c6.16-26.48,20.81-51.36,42.63-67.58c-13.69,10.18-30.15,15.94-41.46,29.56C502.8,308.83,496.94,326.21,496.26,343.37z"/>
		<path class="st6" d="M892.98,201.79c1.56,13.92,11.07,26.67,23.97,32.14c-8.43-14.82-9.53-33.58-2.9-49.28
			c5.64-13.37,16.38-24.12,28.6-31.95s25.94-12.97,39.7-17.59C951.93,145.33,888.09,158.06,892.98,201.79z"/>
	</g>
	<path class="st36" d="M1169.48,216.88c-2.46-21.39-5.25-43.38-15.67-62.22c-3.97-7.17-8.97-13.74-14.47-19.82
		c-8.61-9.53-18.55-17.98-29.93-23.95c-27.38-14.36-60.25-13.08-90.74-7.93c-33.26,5.62-65.81,15.44-96.63,29.14
		c-36.86,16.38-88.87,50.37-62.36,97.05c9.16,16.13,23.95,28.13,36.7,41.6c9.22,9.74,17.47,20.38,27.13,29.69
		c9.27,8.93,19.74,16.53,30.55,23.51c38.36,24.77,84.48,42.35,129.3,33.62c11.48-2.24,22.57-6.14,33.41-10.55
		c9.08-3.69,18.11-7.8,25.83-13.83c16.43-12.83,25.42-33.36,28.47-53.98C1174.13,258.58,1171.87,237.59,1169.48,216.88z
		 M1053.51,240.95c8.39,8.28,12.25,20.01,15.4,31.36c4.62,16.67,8.32,33.6,11.08,50.69c-20.47-13.31-40.94-26.63-61.41-39.94
		c-6.15-4-12.39-8.08-17.06-13.73c-10.62,13.17-20.35,27.05-29.1,41.53c-3.45-5.95-4.53-12.94-5.44-19.75
		c-3.82-28.8-5.46-57.89-4.9-86.93c-9.27,6.19-18.55,12.37-27.82,18.56c3.55-9.64,7.09-19.28,10.64-28.92
		c0.54-1.47,1.91-3.24,3.21-2.76c-7.96-3.91-15.45-8.79-22.23-14.51c15.27-0.21,30.51-2.63,45.09-7.15
		c7.83-2.43,15.82-5.5,23.97-4.57c-1.09-13.56-1.46-25.16-5.62-37.97c10.55,16.02,19.27,33.52,26.78,51.15
		c13.46-9.43,22.14-24.52,35.64-33.89c-2.81,14.48-7.96,28.51-15.2,41.36c20.19,6.07,40.05,13.26,59.46,21.51
		C1081.84,218.3,1067.68,229.62,1053.51,240.95z"/>
</g>
<g>
	<path class="st20" d="M2699.54,455.08c-5.43-5.32-11.32-10.15-17.68-13.93c-5.41-3.22-11.24-5.37-17.28-6.91
		c-150.85,148.22-348.74,330.91-421.42,384.45c-11.43,8.42-24.82,17.17-38.72,14.3c-14.7-3.03-24.03-18.67-24.85-33.65
		c-0.82-14.98,4.88-29.47,10.48-43.39c43.33-107.63,86.66-215.26,129.99-322.9c9.39-23.33,103.34-112.68,127.13-120.85
		c51.12-17.55,102.23-35.1,153.35-52.64c0.95-3.48,1.89-6.97,2.79-10.46c1.95-7.61,3.98-15.39,4.7-23.26
		c-9.43-6.4-19.85-10.66-30.61-14.1c-30.79,9.83-61.58,19.67-92.37,29.5c-27.06,8.64-58.99,14-83.64,28.59
		c-8.71,5.16-19.85,12.33-30.68,20.75c-11.95-5.3-24.46-9.74-32.93-19.44c-16.33-18.71-10.37-47.45-16.98-71.39
		c-7.08-25.64-26.73-50.83-52.18-58.58c-27.94-8.51-66.33-8.86-91.02,10.81c-32.32,25.76-35,42.12-40.97,67.79
		c-6.05,26.01,10.74,73.18,20.88,79.69c9.43,6.06,18.51,5.84,24.49-1.08c7.1-8.22,4.71-21.63,0.69-30.64
		c-4.89-10.96-12.61-21.11-13.66-33.07c-0.75-8.56,2.09-17.11,6.29-24.61c10.82-19.28,31.49-32.92,53.55-34.37
		s44.72,9.75,56.23,28.62c15.6,25.58,9.49,58.26,2.91,87.49c-2.28,10.1-4.55,20.67-1.92,30.69c1.54,5.87,4.69,11.18,7.97,16.28
		c3.22,5.01,6.63,9.9,10.19,14.67c-9.76,11-18.18,22.66-24.17,31.66c-15.85,23.86-22.86,55.46-32.9,82.04
		c-29.17,77.22-58.35,154.45-87.52,231.67c-10.38,27.47-20.86,55.35-23.65,84.59c-2.79,29.24,2.97,60.5,21.95,82.92
		c18.98,22.42,52.92,33.23,79.22,20.16c9.55-4.75,17.49-12.13,25.29-19.4c104.42-97.46,208.83-194.92,313.25-292.37
		c-0.03-0.03-0.06-0.06-0.09-0.09C2616.97,534.79,2658.26,494.93,2699.54,455.08z"/>
	<path class="st20" d="M2915.42,277.39c-7.6-28.37-30-50.93-55.62-65.3c-25.62-14.37-54.49-21.65-82.98-28.78
		c-43.6-10.91-87.21-21.83-130.81-32.74c2.92,3.96,5.65,8.06,8.04,12.37c2.16,3.88,6.92,10.63,4.7,15.03
		c-1.23,2.43-3.62,4.77-5.37,6.81c-5.25,6.12-11.03,11.81-16.94,17.34c56.66,12.89,113.33,25.79,169.99,38.68
		c14.63,3.33,29.78,6.9,41.63,16.11c11.84,9.22,19.37,25.8,13.48,39.6c-5.57,13.06-20.39,19.07-33.82,23.66
		c-42.35,14.47-128.28,36.16-229.47,59.17c3.63,4.23,6.84,8.81,9.39,13.93c3.52,7.07,6.13,14.74,8.05,22.58
		c80.27-17.39,160.53-34.79,240.8-52.18c10.42-2.26,21.01-4.58,30.35-9.72C2912.56,339.82,2923.02,305.76,2915.42,277.39z"/>
</g>
<g>
	<path class="st31" d="M2505.42,968.96c19.89,0.06,40.9,7.94,51.6,24.71c6.73,10.55,8.73,23.33,10.58,35.7
		c12.36,82.59,24.73,165.18,37.09,247.77c1.94,12.95,3.54,27.4-4.1,38.04c-4.13,5.74-10.4,9.48-16.52,13.01
		c-34.05,19.64-68.91,37.86-104.47,54.6c-1.79-4.3-11.48-21.41-13.26-25.71c33.75-13.5,65.78-22.51,101.29-42.65
		c5.3-3.01,9.43-8.07,11.99-13.6c2.27-4.91,2.64-10.47,2.83-15.88c1.82-50.06-7.52-99.78-17.08-148.95
		c-7.72-39.68-15.62-79.36-25.58-118.54c-3.14-12.35-15.53-26.95-58.29-22.69c-21.72,2.16-51.44,14-68.35,27.8
		c-10.62,8.67-4.26,18.24-13.99,27.9c-4.54,4.5-9.22,9.14-15.15,11.55c-5.93,2.4-13.48,2-17.83-2.68c-4.5-4.85-4.21-12.4-2.74-18.85
		C2373.13,997.88,2485.52,968.9,2505.42,968.96z"/>
	<polygon class="st31" points="2168.19,1024.6 2155.33,1030.03 1932.27,1124.21 2232.29,1633.51 2248.2,1626.79 2261.15,1657.47 
		2547.85,1536.42 2534.89,1505.75 2547.01,1500.63 2391.25,930.43 	"/>
	<polygon class="st32" points="2345.13,949.9 2499.28,1514.22 2490.08,1524.09 2498.47,1543.97 2256.38,1646.18 2261.15,1657.47 
		2547.85,1536.42 2534.89,1505.75 2547.01,1500.63 2391.25,930.43 	"/>
	<path class="st31" d="M1970.88,1107.91l-134.45,56.77l8.34,19.76c0,0,66.3-0.39,108,31.34c49.15,37.39,81.32,81.28,81.32,81.28
		L1970.88,1107.91z"/>
	<path class="st32" d="M2248.2,1626.79l277.32-97.82c0,0,12-24.24,9.38-23.23c-2.62,1.01-285.47,118.28-285.47,118.28
		L2248.2,1626.79z"/>
	
		<rect x="2122.25" y="1046.28" transform="matrix(0.9213 -0.389 0.389 0.9213 -237.0085 930.973)" class="st32" width="117.01" height="9.11"/>
	
		<rect x="2164.37" y="1146.02" transform="matrix(0.9213 -0.389 0.389 0.9213 -272.4871 955.2062)" class="st32" width="117.01" height="9.11"/>
	
		<rect x="2207.1" y="1247.24" transform="matrix(0.9213 -0.389 0.389 0.9213 -308.4932 979.7997)" class="st32" width="117.01" height="9.11"/>
	
		<rect x="2249.21" y="1346.98" transform="matrix(0.9213 -0.389 0.389 0.9213 -343.9718 1004.033)" class="st32" width="117.01" height="9.11"/>
	
		<rect x="2283.88" y="1429.11" transform="matrix(0.9213 -0.389 0.389 0.9213 -373.1836 1023.9857)" class="st32" width="117.01" height="9.11"/>
	
		<rect x="2326" y="1528.85" transform="matrix(0.9213 -0.389 0.389 0.9213 -408.6622 1048.219)" class="st32" width="117.01" height="9.11"/>
	<path class="st37" d="M2005.33,1175.28c5.07,9.21,14.34,15.15,22,22.33c13.82,12.94,22.63,30.21,31.19,47.1
		c24.09,47.52,48.38,94.93,72.85,142.25c4.21,8.13,14.24,17.42,20.67,10.9c-2.58-18.33-9.87-35.61-17.09-52.66
		c-24.6-58.09-49.2-116.17-73.8-174.26c-2.77-6.54-5.62-13.21-10.42-18.44C2033.31,1133.49,1989.42,1146.36,2005.33,1175.28z"/>
	<path class="st37" d="M2205.47,1533.17c4.22,8.12,8.46,16.29,13.91,23.64c1.4,1.89,3.03,3.82,5.3,4.45
		c3.98,1.11,8.01-2.58,8.86-6.63c0.84-4.05-0.55-8.19-1.93-12.09c-7.86-22.23-15.72-44.46-23.58-66.69
		c-3.9-11.02-7.82-22.1-13.48-32.33c-11.44-20.67-39.99-17.91-31.11,8.57C2172.7,1479.77,2192.01,1507.22,2205.47,1533.17z"/>
</g>
</svg>
