<?xml version="1.0" encoding="utf-8"?>
<!-- Generator: Adobe Illustrator 27.0.0, SVG Export Plug-In . SVG Version: 6.00 Build 0)  -->
<svg version="1.1" xmlns="http://www.w3.org/2000/svg" xmlns:xlink="http://www.w3.org/1999/xlink" x="0px" y="0px"
	 viewBox="0 0 500 500" style="enable-background:new 0 0 500 500;" xml:space="preserve">
<style type="text/css">
	.st0{fill:#EBEBEB;}
	.st1{fill:#F5F5F5;}
	.st2{fill:#E0E0E0;}
	.st3{fill:#263238;}
	.st4{fill:#BA68C8;}
	.st5{opacity:0.15;}
	.st6{opacity:0.6;fill:#FFFFFF;}
	.st7{opacity:0.5;fill:#BA68C8;}
	.st8{fill:#455A64;}
	.st9{opacity:0.5;fill:#FFFFFF;}
	.st10{fill:#37474F;}
	.st11{fill:#FFA8A7;}
	.st12{fill:#F28F8F;}
	.st13{opacity:0.1;}
	.st14{opacity:0.2;}
	.st15{fill:#FAFAFA;}
	.st16{opacity:0.05;fill:#FFFFFF;}
	.st17{opacity:0.3;fill:#FFFFFF;}
	.st18{fill:#FFFFFF;}
	.st19{opacity:0.2;fill:#BA68C8;}
	.st20{opacity:0.3;}
	.st21{opacity:0.95;fill:#263238;}
	.st22{opacity:0.95;fill:#455A64;}
	.st23{opacity:0.05;}
</style>
<g id="Floor">
	<path id="Buildings_2_" class="st0" d="M14.97,204.46l9.04,5.22v-36.53l4.52-2.61l4.04,2.33c0.11-8.12,0.31-21.32,0.48-21.32
		c0.18,0,0.39,13.82,0.49,21.88l4.03,2.33v10.44l9.04,5.22v-31.31l9.04-5.22l9.04,5.22V199l9.04,5.22v-30.27l9.04-5.22l9.04,5.22
		v-26.1l4.1-2.37c0.11-7.69,0.27-16.62,0.42-16.62c0.14,0,0.3,8.57,0.41,16.14l4.11-2.37l13.56,7.83v5.22l9.04,5.22v15.66l9.04-5.22
		v-26.1l8.59-4.96c0.11-8.11,0.29-19.25,0.45-19.25c0.16,0,0.34,11.14,0.45,19.25l8.58,4.96v15.66l9.04-5.22l9.04,5.22v10.44
		l9.04,5.22v-44.12l4.52-2.61l4.52,2.61v10.44l4.52-2.61l9.04,5.22v-15.66l4.52-2.61l9.04,5.22v22.69l4.52-2.61v-5.22l4.56-2.63
		c0.09-7.34,0.32-24.19,0.52-24.19c0.19,0,0.42,15.98,0.51,23.59l3.45-1.99l9.04,5.22v-8.86l13.56-7.83l9.04,5.22v-10.44l5.69-3.29
		c0.1-7.72,0.32-23.3,0.51-23.3c0.19,0,0.4,14.83,0.5,22.72l2.34-1.35l9.04,5.22v26.1l4.52,2.61v-10.44l9.04-5.22l9.04,5.22v15.66
		l13.56-7.83v-10.44l9.04-5.22l9.04,5.22v15.66l4.52-2.61l9.04,5.22v20.88l9.04,5.22v-16.66l9.04-5.22l13.56,7.83v-12.84l4.01-2.31
		c0.09-7.48,0.32-23.89,0.52-23.89c0.19,0,0.41,15.58,0.51,23.3l4.01-2.32l13.56,7.83v18.48l13.56-7.83l18.08,10.44v-15.66
		l8.52-4.92c0.09-7.15,0.32-24.51,0.52-24.51c0.2,0,0.43,17.36,0.52,24.51l8.52,4.92v20.88l9.04,5.22v18.06l13.56,7.83v-15.66
		l4.07-2.35c0.11-8.09,0.29-19.01,0.45-19.01c0.16,0,0.33,10.46,0.44,18.49l4.08-2.35l13.56,7.83v147.19l-488.14,0V209.67
		L14.97,204.46z"/>
	<ellipse id="Floor_3_" class="st1" cx="250" cy="354.41" rx="244.07" ry="135.52"/>
</g>
<g id="Shadows_6_">
	<path id="Shadows_4_" class="st2" d="M265.41,325.66l152.67,88.14c23.18-5.07,39.51-14.49,48.96-28.27L314.37,297.4
		c-15.52-8.96-39.06-9.9-52.58-2.09C248.26,303.11,249.89,316.7,265.41,325.66z"/>
	<path id="Shadows_3_" class="st2" d="M467.21,378.71c0.84,0.12,1.68,0.3,2.53,0.53c1.42,0.4,2.86,0.8,4.19,1.44
		c1.94,0.94,3.53,1.95,4.01,4.11c1.27,5.65-5.02,6.45-8.37,9.11c-0.84,0.67-1.51,1.66-1.59,2.75c-0.1,1.25,0.64,1.92,1.22,2.9
		c1.67,2.84,1.81,5.76,0.22,8.64c-1.45,2.62-3.84,4.76-6.5,6.12c-5.75,2.94-12.39,3.21-18.68,4.09c-1.82,0.26-3.91,0.68-5.5,1.64
		c-3.25,1.97-5.4,5.11-7.84,7.96c-3.16,3.69-7.56,6.69-12.56,7.08c-6.93,0.54-15.39-1.52-20.33-6.65c-2.73-2.83-6.1-5.04-9.97-5.78
		c-10.07-1.94-20.85-3.26-25.15-9.7c-3.95-5.91,1.45-11.57,10.78-14.49c8.61-2.69,20.11-1.96,27.49-6.01
		c9.13-5.02,5.63-16.3,23.21-15.43c3.45,0.17,6.64,0.51,9.86,1.26c6.36,1.49,9.64,1.7,16.49,0.7c3.46-0.5,6.97-0.85,10.47-0.7
		C463.26,378.37,465.24,378.41,467.21,378.71z"/>
	<ellipse id="Shadows_2_" class="st2" cx="229.66" cy="366.98" rx="67.82" ry="39.16"/>
	<ellipse id="Shadows_5_" class="st2" cx="394.91" cy="323.31" rx="60.4" ry="34.87"/>
	<ellipse id="Shadows_1_" class="st2" cx="123.79" cy="411.69" rx="67.82" ry="39.16"/>
	<ellipse id="Shadows" class="st2" cx="92.21" cy="336.73" rx="67.82" ry="39.16"/>
	<path id="Shadow_55_" class="st2" d="M224.97,458.64l41.51-23.97c1.54-0.89,1.54-2.33,0-3.22l-41.51-23.96
		c-1.54-0.89-4.04-0.89-5.58,0l-41.51,23.96c-1.54,0.89-1.54,2.33,0,3.22l41.51,23.96C220.93,459.53,223.43,459.53,224.97,458.64z"
		/>
</g>
<g id="Character">
	<g id="Character_14_">
		<g id="Bottom_3_">
			<path class="st3" d="M396.32,341.28c0.17,1.51,0.45,5.42,8.14,6.48c7.7,1.06,12.78-2.24,14.53-4.85
				c2.35-3.52,1.51-5.63,1.84-9.06c0.33-3.43,3.75-6.9,4.57-8.66c0.49-2.46-0.1-4.1-0.1-4.1L396.32,341.28z"/>
			<path class="st3" d="M348.31,316.82c-0.27,0.21-0.34,2.52,0.48,3.55c0.56,0.71,5.66,4.12,11.75,3.14
				c6.09-0.98,9.02-2.68,12.43-4.87c3.5-2.24,5.96-2.64,9.6-2.76c3.52-0.12,6.1-0.9,6.37-1.83c0.47-1.62,0.47-2.65-0.3-2.6
				L348.31,316.82z"/>
			<path class="st4" d="M396.88,337.78c0.68-1.26,2.67-3.09,3.54-4.22c2.66-3.47,4.13-6.9,5.3-11.1c0.94-3.37,1.55-4.29,0.47-11.96
				c-0.91-6.48-1.89-12.12-3.11-17.7c-0.21-0.95-0.66-2.35,0.6-3.32c0.37-0.28,0.81-0.45,1.27-0.56c4.42-1.09,8.97-1.66,13.52-1.7
				c3.06-0.03,5.47,0.46,6.2,2.21c0.53,1.27,0.13,4.51,0.07,5.89c-0.33,6.9-0.94,13.26-0.69,17.34c0.07,1.15,0.59,2.45,0.96,3.85
				c0.52,2,0.56,4.19-0.12,6.53c-0.63,1.29-1.38,2.52-2.17,3.72c-1.36,2.07-2.56,4.34-2.79,6.81c-0.1,1.08-0.02,2.18-0.18,3.25
				c-0.54,3.74-3.11,6.69-6.72,7.82c-4.69,1.47-11.74,1.24-15.88-2.05C395.71,341.46,396.2,339.04,396.88,337.78z"/>
			<path class="st5" d="M396.88,337.78c0.68-1.26,2.67-3.09,3.54-4.22c2.66-3.47,4.13-6.9,5.3-11.1c0.94-3.37,1.55-4.29,0.47-11.96
				c-0.91-6.48-1.89-12.12-3.11-17.7c-0.21-0.95-0.66-2.35,0.6-3.32c0.37-0.28,0.81-0.45,1.27-0.56c4.42-1.09,8.97-1.66,13.52-1.7
				c3.06-0.03,5.47,0.46,6.2,2.21c0.53,1.27,0.13,4.51,0.07,5.89c-0.33,6.9-0.94,13.26-0.69,17.34c0.07,1.15,0.59,2.45,0.96,3.85
				c0.52,2,0.56,4.19-0.12,6.53c-0.63,1.29-1.38,2.52-2.17,3.72c-1.36,2.07-2.56,4.34-2.79,6.81c-0.1,1.08-0.02,2.18-0.18,3.25
				c-0.54,3.74-3.11,6.69-6.72,7.82c-4.69,1.47-11.74,1.24-15.88-2.05C395.71,341.46,396.2,339.04,396.88,337.78z"/>
			<path class="st5" d="M398.72,343.64c10.26,1.69,15.92-1.69,16.97-6.17c1.06-4.48,2.03-7.91,4.82-11.49
				c2.79-3.58,2.57-5.31,1.72-8.49c-0.86-3.17-1.57-9.43-1.3-16.6c0.37-9.72,0.92-8.58-3.08-11.42l-0.08-2.21
				c0.23,0,0.46-0.02,0.69-0.03c3.06-0.03,5.47,0.46,6.2,2.21c0.53,1.27,0.13,4.51,0.07,5.89c-0.33,6.9-0.94,13.26-0.69,17.34
				c0.07,1.15,0.59,2.45,0.96,3.85c0.52,2,0.56,4.19-0.12,6.53c-0.63,1.29-1.38,2.52-2.17,3.72c-1.36,2.07-2.56,4.34-2.79,6.81
				c-0.1,1.08-0.02,2.18-0.18,3.25c-0.54,3.74-3.11,6.69-6.72,7.82C408.88,345.95,402.91,345.92,398.72,343.64z"/>
			<path class="st4" d="M389,311.81c-2.96,2.59-8.18,1.96-11.16,2.45c-4.21,0.69-6.18,3.81-12.03,5.83
				c-9.43,3.26-15.39-0.5-17.16-2.14c-1.17-2.09-1.58-6.09,2.44-7.37c0.98-0.31,1.94-0.66,2.89-1.04c2.01-0.8,3.93-1.68,5.84-2.75
				c1.52-0.86,2.99-1.91,4.3-3.13c2.58-2.39,4.44-3.64,5.19-7.05c1.11-5.06,0.17-10.28-0.31-15.44c-0.33-3.57-0.27-4.22,0.8-4.91
				c0.4-0.26,1.03-0.48,1.5-0.55c5.82-0.81,12.18-2.01,17.79-0.27c0.74,0.23,2.05,1.06,2.48,1.72c0.42,0.65-0.09,2.54-0.39,4.11
				c-1.03,5.38-1.84,9.05-2.5,14.49c-0.31,2.55-0.07,4.82,0.39,8.14C389.39,306.07,390.11,310.07,389,311.81z"/>
			<path class="st5" d="M389,311.81c-2.96,2.59-8.18,1.96-11.16,2.45c-4.21,0.69-6.18,3.81-12.03,5.83
				c-9.43,3.26-15.39-0.5-17.16-2.14c-1.17-2.09-1.58-6.09,2.44-7.37c0.98-0.31,1.94-0.66,2.89-1.04c2.01-0.8,3.93-1.68,5.84-2.75
				c1.52-0.86,2.99-1.91,4.3-3.13c2.58-2.39,4.44-3.64,5.19-7.05c1.11-5.06,0.17-10.28-0.31-15.44c-0.33-3.57-0.27-4.22,0.8-4.91
				c0.4-0.26,1.03-0.48,1.5-0.55c5.82-0.81,12.18-2.01,17.79-0.27c0.74,0.23,2.05,1.06,2.48,1.72c0.42,0.65-0.09,2.54-0.39,4.11
				c-1.03,5.38-1.84,9.05-2.5,14.49c-0.31,2.55-0.07,4.82,0.39,8.14C389.39,306.07,390.11,310.07,389,311.81z"/>
			<path class="st5" d="M370.89,314.78c2-1.64,4.75-2.69,8.79-2.69c4.45,0,6.29-0.9,6.59-3.6c0.3-2.7-1.24-6.52-1.85-9.56
				c-0.61-3.04,1.24-13.1,1.85-16.25c0.51-2.61-0.34-5.43-2.42-8.09c1.8,0.08,3.56,0.33,5.26,0.86c0.74,0.23,2.05,1.06,2.48,1.72
				c0.42,0.65-0.09,2.54-0.39,4.11c-1.03,5.38-1.84,9.05-2.5,14.49c-0.31,2.55-0.07,4.82,0.39,8.14c0.3,2.17,1.03,6.16-0.08,7.9
				c-2.96,2.59-8.18,1.96-11.16,2.45c-4.21,0.69-6.18,3.81-12.03,5.83c-4.44,1.53-8.09,1.51-10.92,0.89
				C363,321.32,369.15,316.21,370.89,314.78z"/>
			<path id="XMLID_3857_" class="st4" d="M421.52,158.64c0.34,11.44,0.21,24.05,0.09,36.54c-0.22,22.32,0.16,52.78,0.16,52.78
				s2.29,7.13,2.42,13.46c0.37,18.14,0.38,25.47-0.97,28.92c0,0-9.54,5.76-18.38,1.09c-2.79-1.45-6.26-24.66-8.52-39.07
				c-2.1-13.4-3.04-31.87-3.04-31.87l-1.72,20.17c0,0,1.05,7.88,1.21,18.42c0.1,6.1-1.35,15.77-2.76,18.66
				c-3.4,3.19-17.41,2.49-19.58-0.04c-3.77-7.11-3.52-28.04-4.28-38.47c-1.08-14.87-0.45-63.91,0.66-72.53
				C367.92,158.07,421.52,158.64,421.52,158.64z"/>
			<path id="XMLID_3872_" class="st6" d="M421.52,158.64c0.34,11.44,0.21,24.05,0.09,36.54c-0.22,22.32,0.16,52.78,0.16,52.78
				s2.29,7.13,2.42,13.46c0.37,18.14,0.38,25.47-0.97,28.92c0,0-9.54,5.76-18.38,1.09c-2.79-1.45-6.26-24.66-8.52-39.07
				c-2.1-13.4-3.04-31.87-3.04-31.87l-1.72,20.17c0,0,1.05,7.88,1.21,18.42c0.1,6.1-1.35,15.77-2.76,18.66
				c-3.4,3.19-17.41,2.49-19.58-0.04c-3.77-7.11-3.52-28.04-4.28-38.47c-1.08-14.87-0.45-63.91,0.66-72.53
				C367.92,158.07,421.52,158.64,421.52,158.64z"/>
			<path class="st7" d="M421.69,170.91c-1.57,1.52-11.41,5.32-32.81,4.7c-12.37-0.36-20.66-4.08-22.35-5.04
				c0.08-1.7,0.18-3.03,0.29-3.88c1.11-8.62,53.41-8.04,53.41-8.04c0.18,2.75,1.3,5.2,1.46,8.51
				C421.74,168.22,421.65,169.86,421.69,170.91z"/>
			<path class="st7" d="M393.29,220.49l-3.62-32.3c0,0-7.13-1.35-12.34-5.21c0,0,2.03,4.59,9.91,7.86l4.35,27.27l-0.02,22.56
				L393.29,220.49z"/>
		</g>
		<g id="Top">
			<g>
				<path class="st8" d="M372.61,98.25c-7.66,0.89-10.79,6.44-15.05,15.09c-3.39,6.89-10.02,22.45-10.02,22.45
					s-17.76-3.63-21.46-5.96c-2.53-1.6-2.06-2.62-6.25-5.33c-2.95-1.91-6.08-2.8-7.92-4.69c-1.46-1.49-3.77,0.89-1.44,4.08
					c0.8,1.1,2.46,2.47,2.46,2.47s-2.79-0.56-4.34-1.67c-3.32-2.38-4.79-5.4-8.89-5.89c-1.73-0.21-2.07,0.99-1.43,2.32
					c-0.56,0.19-1.77,1.24-0.99,2.94c-1,0.28-1.08,2.28-0.7,2.85c-0.51,0.74-1.36,2.9,2.41,7.08c1.67,1.85,5.41,4.87,6.45,5.37
					c0.29,0.14,4.28,1.3,9.18,2.24c4.63,0.88,6.01,1.43,9.97,3.09c4.58,1.92,13.18,6.29,23.43,10.1c8.53,3.17,10.94-1.7,14.98-9.28
					c2.67-5.01,8.92-21.6,8.92-21.6C375.16,113.95,375.58,104.38,372.61,98.25z"/>
				<path class="st4" d="M373,97.24c-8.42,3.03-9.86,4.13-15.09,14.71c-5.14,10.39-10.74,23.31-10.74,23.31l-13.43-3.21
					c0,0,0.77,2.53-0.78,7.96c-1.55,5.43-4.77,7.08-4.77,7.08s10.35,5.26,18.53,8.24c8.18,2.98,9.97,1.55,12.59-2.23
					c2.61-3.78,14.2-30.61,14.2-30.61S379.14,105.22,373,97.24z"/>
				<path class="st9" d="M373,97.24c-8.42,3.03-9.86,4.13-15.09,14.71c-5.14,10.39-10.74,23.31-10.74,23.31l-13.43-3.21
					c0,0,0.77,2.53-0.78,7.96c-1.55,5.43-4.77,7.08-4.77,7.08s10.35,5.26,18.53,8.24c8.18,2.98,9.97,1.55,12.59-2.23
					c2.61-3.78,14.2-30.61,14.2-30.61S379.14,105.22,373,97.24z"/>
				<path class="st10" d="M334.48,132.22l-5.17-1.16c0,0,0.52,3.01-0.61,6.94c-1.59,5.55-4.29,6.81-4.29,6.81l5.35,3.18
					C329.75,147.99,335.8,141.06,334.48,132.22z"/>
			</g>
			<g>
				<path class="st4" d="M402.83,89.88c8.6,2.02,18.85,6.12,23.68,10.25c0,0-1.54,21.53-3.36,33.72
					c-1.54,10.3,2.41,27.61-1.46,33.31c0,0-7.84,6.12-32.7,5.4c-14.01-0.4-22.23-5.16-22.23-5.16c-4.73-3.56-2.37-24.18-1.16-44.64
					c0.97-16.4,4.61-21.41,7.4-25.52c2.02-1.37,13.26-5.27,13.26-5.27L402.83,89.88z"/>
				<path class="st6" d="M402.83,89.88c8.6,2.02,18.85,6.12,23.68,10.25c0,0-1.54,21.53-3.36,33.72
					c-1.54,10.3,2.41,27.61-1.46,33.31c0,0-7.84,6.12-32.7,5.4c-14.01-0.4-22.23-5.16-22.23-5.16c-4.73-3.56-2.37-24.18-1.16-44.64
					c0.97-16.4,4.61-21.41,7.4-25.52c2.02-1.37,13.26-5.27,13.26-5.27L402.83,89.88z"/>
				<path class="st7" d="M402.83,89.88l-16.57,2.09c0,0-5.45,1.89-9.44,3.5c1.94,2.6,5.33,5.58,11.04,6.84
					c-3.66,14.39-4.97,55.7-3.94,69.91c0.8,0.09,1.63,0.16,2.49,0.22c-0.98-14.76,0.38-55.75,4.05-69.69
					c1.13,0.13,2.32,0.2,3.61,0.19c16.54-0.1,21.8-8.77,21.82-8.8C411.7,92.37,407.06,90.87,402.83,89.88z"/>
			</g>
			<g>
				<g>
					<path class="st8" d="M438.81,177.45c1.37-5.83,3.39-11.14,4.42-16.24c2.54-12.55,2.42-13.55,1.45-18.89
						c-2.81-15.44-4.44-23.49-7.21-31.16c-3.34-9.27-6.84-10.06-15.47-13.91c-4.94,4.42-5,17.91-2.05,25.3
						c3.28,10.99,7.58,27.31,7.58,27.31c-0.25,2.54-0.73,18.84-2.64,26.14c-0.65,2.52-2.41,3.51-3.89,4.34
						c-2.76,1.55-3.99,5.33-6.07,7.39c-1.62,1.61-2.87,2.12-2.67,2.65c0.25,0.68,1.54,1.15,3.51,0.68c1.36-0.32,2.59-0.95,3.68-1.82
						c0.54-0.43,0.96-1.02,1.57-1.35c0.88-0.47,0.89,0.39,0.81,1.02c-0.14,1.12-0.64,2.12-1.07,3.17c-0.71,1.74-1.56,3.45-2.51,5.07
						c-0.88,1.5-1.81,2.18-3.32,3.99c-0.87,1.05-2.08,2.04-2.49,3.34c-0.28,0.9-0.36,2.35,0.73,2.74c0.5,0.18,1.18-0.42,1.59-0.66
						c0.54-0.33,1.14-0.94,1.79-1.04c0.57-0.09,1.22,0.2,1.78,0.3c0.89,0.15,1.91,0.1,2.77-0.21c0.44-0.16,0.78-0.36,1.12-0.66
						c0.12-0.1,0.32-0.36,0.46-0.41c0.58-0.23,1.47,0,2.09-0.15c1.49-0.37,2.33-1.76,3.71-2.32c0.79-0.32,1.52-0.71,2.18-1.26
						c0.86-0.72,1.94-1.88,2.45-2.88c2.07-4.1,4.27-9.47,4.72-14.04C438.03,181.91,438.39,179.68,438.81,177.45z"/>
				</g>
				<path class="st4" d="M421.44,96.78c7.75,2.75,10.88,4.33,13.66,8.05c2.78,3.72,5.37,15.62,6.86,21.7
					c1.49,6.08,3.43,16.52,3.72,18.44c0.3,1.92,0.16,4.2-0.98,10.22c-1.3,6.88-3.92,18.27-3.92,18.27s-2.27,2.71-7.91,1.43
					c-5.63-1.28-7.36-4.35-7.36-4.35l1.58-20.69l-8.84-29.5C418.27,120.35,413.84,103.03,421.44,96.78z"/>
				<path class="st9" d="M421.44,96.78c7.75,2.75,10.88,4.33,13.66,8.05c2.78,3.72,5.37,15.62,6.86,21.7
					c1.49,6.08,3.43,16.52,3.72,18.44c0.3,1.92,0.16,4.2-0.98,10.22c-1.3,6.88-3.92,18.27-3.92,18.27s-2.27,2.71-7.91,1.43
					c-5.63-1.28-7.36-4.35-7.36-4.35l1.58-20.69l-8.84-29.5C418.27,120.35,413.84,103.03,421.44,96.78z"/>
				<path class="st10" d="M425.29,169.28l-0.64,5.29c0,0,2,2.72,7.54,3.9c4.85,1.03,7.85-0.91,7.85-0.91l1.25-5.46
					c0,0-3.34,1.49-8.34,0.56C427.25,171.61,425.29,169.28,425.29,169.28z"/>
			</g>
			<g id="XMLID_3845_">
				<path id="XMLID_3851_" class="st11" d="M405.72,67.02c1.64-1.64,3.83-1.19,4.93,0.55c1.7,2.7-0.31,7.61-2.87,8.8
					c-3.75,1.74-4.96-0.93-4.96-0.93v15.65c-2.65,4.63-7.24,7.99-15.69,7.22c-3.95-0.36-3.91-4.4-0.88-6.35l0.03-5.1
					c0,0-3.11,0.6-5.16,0.28c-3.41-0.54-5.24-3.35-6.27-7.05c-1.65-5.94-1.96-17.38,0.33-28.92c5.61-4.56,17.08-2.78,25.1,2.31
					C404.03,56.27,405.72,67.02,405.72,67.02z"/>
				<g id="XMLID_3846_">
					<path class="st3" d="M389.88,66.31c0,0.9,0.73,1.63,1.63,1.63c0.9,0,1.63-0.73,1.63-1.63c0-0.9-0.73-1.63-1.63-1.63
						C390.6,64.68,389.88,65.41,389.88,66.31z"/>
					<path id="XMLID_3850_" class="st3" d="M391.43,60.58l3.44,1.45c0.38-0.98-0.08-2.11-1.03-2.51
						C392.89,59.12,391.81,59.59,391.43,60.58z"/>
					<path class="st3" d="M376.3,65.38c0,0.9,0.73,1.63,1.63,1.63c0.9,0,1.63-0.73,1.63-1.63c0-0.9-0.73-1.63-1.63-1.63
						C377.03,63.75,376.3,64.48,376.3,65.38z"/>
					<path id="XMLID_3849_" class="st3" d="M375.27,60.95l3.55-1.23c-0.31-1-1.35-1.54-2.33-1.2
						C375.51,58.86,374.97,59.95,375.27,60.95z"/>
					<path id="XMLID_3848_" class="st12" d="M388.11,78.06l-3.11,0.81c0.21,0.89,1.07,1.43,1.93,1.2
						C387.79,79.85,388.32,78.95,388.11,78.06z"/>
					<polygon id="XMLID_3847_" class="st12" points="384.76,63.75 384.19,74.95 378.38,73.35 					"/>
				</g>
				<g>
					<path class="st4" d="M371.71,66.21c0.26,7.78,2.13,12.24,2.81,13.51c-0.79-3.17-0.94-6.46-0.93-8.42
						c0.01-2.65-0.15-9.74,1.09-13.28c1.24-3.53,9.52-6.08,17.75-2.14c6.05,2.9,8.16,8.13,7.69,18.34
						c-0.63,12.09-11.05,12.74-16.94,13.15c0.24,1.92,0.12,3.75,0,4.81c-0.07,0.59-4.26,2.47-4.26,2.47c0.16,2.14,5.77,5.86,14.88,6
						c12.65,0.19,20.14-7.31,20.14-7.31c-1.71-0.91-1.19-32.11-1.64-34.92c-0.84-5.3-3.35-16.39-19.55-16.79
						C371.67,41.1,371.4,56.86,371.71,66.21z"/>
					<path class="st6" d="M371.71,66.21c0.26,7.78,2.13,12.24,2.81,13.51c-0.79-3.17-0.94-6.46-0.93-8.42
						c0.01-2.65-0.15-9.74,1.09-13.28c1.24-3.53,9.52-6.08,17.75-2.14c6.05,2.9,8.16,8.13,7.69,18.34
						c-0.63,12.09-11.05,12.74-16.94,13.15c0.24,1.92,0.12,3.75,0,4.81c-0.07,0.59-4.26,2.47-4.26,2.47c0.16,2.14,5.77,5.86,14.88,6
						c12.65,0.19,20.14-7.31,20.14-7.31c-1.71-0.91-1.19-32.11-1.64-34.92c-0.84-5.3-3.35-16.39-19.55-16.79
						C371.67,41.1,371.4,56.86,371.71,66.21z"/>
					<path class="st13" d="M383.3,89.1c0-0.01,0-0.02,0-0.03c-0.01-0.25-0.02-0.51-0.04-0.78c0-0.05-0.01-0.1-0.01-0.15
						c-0.02-0.26-0.04-0.52-0.08-0.78c4.97-0.35,13.16-0.87,15.98-8.28c-0.15,0.58-0.61,3.78-2.17,5.44
						c-0.83,0.89-1.91,1.99-3.32,2.6C389.84,88.78,385.26,89.1,383.3,89.1z"/>
				</g>
			</g>
			<g id="Mask">
				<path class="st3" d="M395.37,84.09c4.91-4.26,4.25-13.71,3.78-17.72c-0.65-5.49-2.8-9.79-10.35-11.37
					c-8.94-1.87-14,2.17-14.57,4.68c0-3.03,0.61-4.61,4.14-6.64c3.53-2.03,12.84-1.78,17.98,2.22
					C402.58,60.11,402.83,78.81,395.37,84.09z"/>
				<g>
					<path class="st4" d="M370.69,89.77c1.18,1.11,2.33,1.39,3.22,0.95c0.86-0.43,8.35-3.8,9.24-4.24c0.87-0.43,1.49-1.54,1.67-3.25
						c0.36-3.46-1.24-8.03-3.57-10.22c-1.19-1.12-2.34-1.4-3.23-0.95c-0.86,0.43-8.27,3.81-9.15,4.19c-0.91,0.4-1.56,1.53-1.74,3.28
						C366.76,83,368.36,87.58,370.69,89.77z"/>
					<path class="st14" d="M370.69,89.77c1.18,1.11,2.33,1.39,3.22,0.95c0.86-0.43,8.35-3.8,9.24-4.24
						c0.87-0.43,1.49-1.54,1.67-3.25c0.36-3.46-1.24-8.03-3.57-10.22c-1.19-1.12-2.34-1.4-3.23-0.95c-0.86,0.43-8.27,3.81-9.15,4.19
						c-0.91,0.4-1.56,1.53-1.74,3.28C366.76,83,368.36,87.58,370.69,89.77z"/>
					<g>
						<path class="st14" d="M383.07,75.48c0.17,0.31,0.33,0.63,0.47,0.95C383.4,76.11,383.24,75.79,383.07,75.48z"/>
						<path class="st14" d="M384.81,83.24c0.22-2.12-0.29-4.65-1.26-6.8l-16.03,7.45c0.6,2.32,1.74,4.54,3.17,5.88
							c1.18,1.11,2.33,1.4,3.22,0.95c0.86-0.43,8.35-3.8,9.24-4.24C384.01,86.06,384.63,84.95,384.81,83.24z"/>
						<path class="st14" d="M381.95,73.79c0.19,0.23,0.37,0.48,0.55,0.74C382.33,74.27,382.14,74.02,381.95,73.79z"/>
						<path class="st14" d="M381.24,73.02c0.2,0.19,0.4,0.41,0.59,0.63C381.64,73.42,381.44,73.21,381.24,73.02z"/>
						<path class="st14" d="M382.51,74.55c0.18,0.27,0.35,0.56,0.52,0.85C382.86,75.1,382.69,74.82,382.51,74.55z"/>
					</g>
					
						<ellipse transform="matrix(0.9546 -0.2978 0.2978 0.9546 -6.3412 116.9233)" class="st4" cx="380.59" cy="79.27" rx="3.78" ry="7.67"/>
				</g>
				<path class="st2" d="M384.96,53.98c-3.48,0.15-7.54-0.65-10.89,4.44c-3.35,5.1-0.53,11.17-0.53,11.17s1.11,2.77,9.52,4.65
					c8.41,1.88,15.2,0.61,16.34-4.89C400.55,63.86,397.9,54.6,384.96,53.98z"/>
				<path class="st15" d="M395.18,68c-1.76,0.26-3.13-0.66-3.71-2.3c-0.62-1.75-0.01-3.81-0.38-5.62c-0.49-2.4-2.74-2.61-4.7-1.99
					c-1.26,0.4-2.49,0.96-3.83,1.05c-2.67,0.19-1.57-2.86-0.61-5.12c-2.67,0.11-5.46,0.71-7.87,4.39c-0.03,0.05-0.05,0.1-0.09,0.15
					c-0.04,0.55-0.05,1.12-0.02,1.71c0.09,1.82,0.88,3.03,2.29,4.12c1.48,1.14,3.49,1.07,5.08,0.06c1.59-1.01,3.71-3.18,5.78-1.91
					c0.82,0.51,1.16,1.21,1.28,2.13c0.2,1.54,0.21,3.05,0.72,4.54c0.89,2.63,3.32,4.25,6.08,3.76c1.99-0.35,3.35-1.88,4.13-3.67
					c0.07-0.16,0.12-0.32,0.18-0.48c0.23-1.44,0.2-3.1-0.18-4.77c-0.25,0.56-0.49,1.15-0.83,1.6C397.69,66.74,396.58,67.8,395.18,68
					z"/>
				<path class="st8" d="M378.78,69.01c2.47-2.47,4.93-2.85,6.85-0.42c1.61,2.03,3.33,4.37,6.78,4.9c3.46,0.53,7.07-3.02,7-4.13
					c0.77,2.05,0.8,9.74-2.15,13.67c-2.55,3.41-8.04,7.36-12.25,7.72c-4.22,0.36-7.6-1.69-8.71-3.16s-2.72-5.89-3.46-11.34
					c-0.48-3.53,0.7-6.66,0.7-6.66S376.31,71.48,378.78,69.01z"/>
				<g>
					<path class="st4" d="M390.2,78c1.47-0.85,2.79-0.92,3.74-0.34c0.92,0.56,3.48,1.96,4.43,2.53c0.93,0.56,1.5,1.72,1.5,3.37
						c0,3.34-2.34,7.4-5.24,9.07c-1.47,0.85-2.8,0.92-3.75,0.34c-0.92-0.56-3.4-1.96-4.34-2.48c-0.98-0.53-1.58-1.72-1.58-3.42
						C384.96,83.72,387.31,79.67,390.2,78z"/>
					<path class="st14" d="M390.2,78c1.47-0.85,2.79-0.92,3.74-0.34c0.92,0.56,3.48,1.96,4.43,2.53c0.93,0.56,1.5,1.72,1.5,3.37
						c0,3.34-2.34,7.4-5.24,9.07c-1.47,0.85-2.8,0.92-3.75,0.34c-0.92-0.56-3.4-1.96-4.34-2.48c-0.98-0.53-1.58-1.72-1.58-3.42
						C384.96,83.72,387.31,79.67,390.2,78z"/>
					<path class="st14" d="M394.64,92.62c1.12-0.65,2.16-1.65,3.01-2.84l-11.72-6.76c-0.61,1.34-0.96,2.74-0.96,4.05
						c0,1.7,0.61,2.88,1.58,3.42c0.94,0.52,3.42,1.92,4.34,2.48C391.84,93.54,393.17,93.47,394.64,92.62z"/>
					<path class="st4" d="M394.64,80.53c-2.89,1.67-5.24,5.73-5.24,9.07s2.34,4.69,5.23,3.02c2.89-1.67,5.24-5.73,5.24-9.07
						C399.87,80.21,397.53,78.86,394.64,80.53z"/>
				</g>
			</g>
		</g>
	</g>
</g>
<g id="Pipeline_1_">
	<g id="Pipeline">
		<g id="pipeline">
			<g>
				<path class="st10" d="M327.3,299.21c0-5.19-3.43-10.38-10.29-14.35c-13.72-7.92-35.97-7.92-49.7,0
					c-6.86,3.96-10.29,9.15-10.29,14.35c0,1.34,0,6.64,0,7.98c0,5.19,3.43,10.39,10.29,14.35c13.72,7.92,35.97,7.92,49.7,0
					c6.86-3.96,10.29-9.15,10.29-14.35C327.3,305.85,327.3,300.55,327.3,299.21z"/>
				<path class="st8" d="M327.3,299.21c0,5.19-3.43,10.38-10.29,14.35c-13.72,7.92-35.97,7.92-49.69,0
					c-6.86-3.97-10.29-9.16-10.29-14.35c0-3.08,1.21-6.16,3.62-8.98v6.81c0,2.33,0.77,4.65,2.31,6.85c1.54,2.19,3.85,4.24,6.93,6.02
					c12.31,7.1,32.26,7.1,44.58,0c6.16-3.55,9.23-8.21,9.23-12.87v-6.81C326.1,293.05,327.3,296.13,327.3,299.21z"/>
			</g>
			<g>
				<path class="st10" d="M341.12,214.98c-16.8-9.7-36.86-9.7-53.65,0c-16.8,9.7-26.83,27.07-26.83,46.47v35.6l0,0
					c0,4.66,3.08,9.32,9.23,12.87c12.31,7.11,32.27,7.11,44.58,0c6.16-3.55,9.23-8.21,9.23-12.87l0,0v-19.33l99.59,57.5l31.52-54.6
					L341.12,214.98z"/>
				<path class="st16" d="M445.52,279.54c-2.05,0.46-4.23,1.34-6.48,2.63c-3.92,2.27-7.6,5.56-10.8,9.47
					c-10.62-6.13-21.24-12.27-31.86-18.39c-13.14-7.58-26.28-15.17-39.41-22.75c-4.52-2.61-17.04-9.79-18.87-10.74
					c-8.11-4.22-17.34-7.85-26.08-8.55c-6.89-0.56-12.63,0.87-19.28,2.27c-2.68,0.57-6.15,1.21-8.55-0.51
					c-2.81-2.02-2.31-6.23-0.76-8.91c5.53-9.53,20.72-12.65,30.86-12.65c8.66,0,17.29,2.35,24.97,6.78L445.52,279.54z"/>
				<path class="st5" d="M303.46,314.02c4-0.89,7.76-2.25,10.99-4.11c6.16-3.55,9.23-8.21,9.23-12.87v-19.33l-7.39-4.27
					c-5.71-3.3-12.84,0.82-12.84,7.41V314.02z"/>
			</g>
			<g>
				<path class="st3" d="M416.75,320.78c0,14.21,9.98,19.98,22.29,12.87c12.31-7.11,22.29-24.39,22.29-38.61
					c0-14.21-9.98-19.98-22.29-12.87C426.73,289.28,416.75,306.57,416.75,320.78z"/>
				<path d="M429.09,332.99c-5.4,0-8.63-4.56-8.63-12.2c0-12.79,9.36-29,20.44-35.4c2.89-1.67,5.69-2.55,8.1-2.55
					c5.4,0,8.63,4.56,8.63,12.2c0,12.79-9.36,29-20.44,35.4C434.3,332.11,431.5,332.99,429.09,332.99
					C429.09,332.99,429.09,332.99,429.09,332.99z"/>
			</g>
			<g>
				<g>
					<path class="st8" d="M341.78,292.35l-6.91-3.99c-4.5-2.6-7.28-8.16-7.28-16.08c0-15.84,11.13-35.11,24.85-43.04
						c6.86-3.96,13.07-4.34,17.57-1.74l6.91,3.99c0.17,0.1,0.32,0.2,0.49,0.3c0.16,0.1,0.3,0.2,0.45,0.3
						c0.17,0.12,0.34,0.24,0.5,0.37c0.15,0.12,0.3,0.24,0.45,0.38c0.11,0.09,0.22,0.19,0.33,0.3c0.29,0.26,0.56,0.55,0.83,0.85
						c0.21,0.24,0.43,0.5,0.63,0.76c0,0.01,0.01,0.03,0.03,0.04c0.09,0.14,0.19,0.27,0.28,0.4c0.3,0.43,0.57,0.88,0.85,1.35
						c0.08,0.15,0.17,0.32,0.24,0.48c0.17,0.31,0.33,0.66,0.48,1.01c0.08,0.18,0.15,0.35,0.22,0.53c0.07,0.17,0.14,0.35,0.2,0.54
						l-5.9-3.41c-2.02-1.16-4.42-1.66-7.09-1.43c-2.66,0.24-5.59,1.21-8.67,2.99c-12.31,7.11-22.28,24.39-22.29,38.6
						c0,7.11,2.5,12.1,6.53,14.43l5.9,3.41c-0.19,0.04-0.38,0.07-0.57,0.09c-0.19,0.03-0.38,0.06-0.57,0.08
						c-0.38,0.05-0.76,0.09-1.11,0.1c-0.18,0.01-0.37,0.02-0.54,0.03c-0.55,0-1.08-0.01-1.6-0.05c-0.16-0.02-0.32-0.04-0.49-0.05
						c-0.02-0.01-0.04-0.01-0.05-0.01c-0.33-0.05-0.66-0.1-0.97-0.17c-0.39-0.08-0.78-0.17-1.15-0.29
						c-0.15-0.04-0.29-0.09-0.42-0.14c-0.19-0.06-0.37-0.13-0.55-0.2c-0.2-0.07-0.39-0.16-0.57-0.25c-0.16-0.07-0.32-0.15-0.48-0.24
						C342.11,292.53,341.95,292.44,341.78,292.35z"/>
				</g>
				<path class="st3" d="M341.78,292.35c-4.5-2.6-7.28-8.16-7.28-16.09c0-15.84,11.13-35.11,24.85-43.04
					c6.87-3.96,13.08-4.33,17.57-1.74c2.67,1.54,4.73,4.12,5.97,7.62l-5.9-3.41c-2.02-1.16-4.42-1.66-7.09-1.43
					c-2.66,0.24-5.59,1.21-8.67,2.99c-12.31,7.11-22.28,24.39-22.29,38.6c0,7.11,2.5,12.1,6.53,14.43l5.9,3.41
					C347.71,294.38,344.45,293.89,341.78,292.35z"/>
			</g>
			<g>
				<g>
					<path class="st8" d="M392.22,321.45l-6.91-3.99c-4.5-2.6-7.28-8.16-7.28-16.08c0-15.84,11.13-35.11,24.85-43.04
						c6.86-3.96,13.07-4.34,17.57-1.74l6.91,3.99c0.17,0.1,0.32,0.2,0.49,0.3c0.16,0.1,0.3,0.2,0.45,0.3
						c0.17,0.12,0.34,0.24,0.5,0.37c0.15,0.12,0.3,0.24,0.45,0.38c0.11,0.09,0.22,0.19,0.33,0.3c0.29,0.26,0.56,0.55,0.83,0.85
						c0.21,0.24,0.43,0.5,0.63,0.76c0,0.01,0.01,0.03,0.03,0.04c0.09,0.14,0.19,0.27,0.28,0.4c0.3,0.43,0.57,0.88,0.85,1.35
						c0.08,0.15,0.17,0.32,0.24,0.48c0.17,0.31,0.33,0.66,0.48,1.01c0.08,0.18,0.15,0.35,0.22,0.53c0.07,0.17,0.14,0.35,0.2,0.54
						l-5.9-3.41c-2.02-1.16-4.42-1.66-7.09-1.43c-2.66,0.24-5.59,1.21-8.67,2.99c-12.31,7.11-22.28,24.39-22.29,38.6
						c0,7.11,2.5,12.1,6.53,14.43l5.9,3.41c-0.19,0.04-0.38,0.07-0.57,0.09c-0.19,0.03-0.38,0.06-0.57,0.08
						c-0.38,0.05-0.76,0.09-1.11,0.1c-0.18,0.01-0.37,0.02-0.54,0.03c-0.55,0-1.08-0.01-1.6-0.05c-0.16-0.02-0.32-0.04-0.49-0.05
						c-0.02-0.01-0.04-0.01-0.05-0.01c-0.33-0.05-0.66-0.1-0.97-0.17c-0.39-0.08-0.78-0.17-1.15-0.29
						c-0.15-0.04-0.29-0.09-0.42-0.14c-0.19-0.06-0.37-0.13-0.55-0.2c-0.2-0.07-0.39-0.16-0.58-0.25c-0.16-0.07-0.32-0.15-0.48-0.24
						C392.55,321.64,392.38,321.55,392.22,321.45z"/>
				</g>
				<path class="st3" d="M392.22,321.46c-4.5-2.6-7.28-8.16-7.28-16.09c0-15.84,11.13-35.11,24.85-43.04
					c6.87-3.96,13.08-4.33,17.57-1.74c2.67,1.54,4.73,4.12,5.97,7.62l-5.9-3.41c-2.02-1.16-4.42-1.66-7.09-1.43
					c-2.66,0.24-5.59,1.21-8.67,2.99c-12.31,7.11-22.28,24.39-22.29,38.6c0,7.11,2.5,12.1,6.53,14.43l5.9,3.41
					C398.15,323.49,394.88,323,392.22,321.46z"/>
			</g>
		</g>
		<g>
			<path class="st4" d="M454.11,332.99c0,9.72-0.15,15.24-2.12,19.79c-1.4,3.21-7.57,5.15-9.18-1.85
				c-1.43-6.27-0.95-13.39-6.68-10.39c-4.23,2.22-13.44,2.74-13.44-10.87c-1.44-2.09-2.22-5.11-2.22-8.87
				c0-5.31,1.61-11.23,4.3-16.77c0,0,18.46,8.25,24.79,14.32C452.54,321.21,454.11,323.27,454.11,332.99z"/>
			<path class="st17" d="M436.77,312.48c-1.24-0.23-3.33-0.63-3.69,0.93c-0.09,0.86,0.78,1.4,1.38,1.86
				c2.12,1.76,4.89,2.98,6.42,5.31c0.35,0.65,0.43,1.92-0.57,2.04c-1.18,0.14-2.5-1.86-3.34-0.21c-0.99,2.01,0.12,4.3-0.14,6.39
				c-0.3,1.71-1.63,0.44-2.38,1.5c-0.7,0.98-0.69,3.22-0.4,4.33c0.3,1.18,1.02,1.14,1.36,0.06c0.16-0.52,0.17-1.55,1.02-1.38
				c0.89,0.18,1.1,1.68,2.2,0.81c1.14-0.9,0.91-2.96,1.06-4.22c0.03-3.5,2.08-4.37,4.54-1.93c3.47,3.85,3.48,9.42,3.87,14.32
				c0.05,0.97,0.34,2.51,1.45,2.87c2.54,0.12,2.72-4.21,2.86-6.04c0.11-6.16,0.9-13.18-3.24-18.29
				C445.92,316.92,441.72,314.01,436.77,312.48z"/>
			<path class="st17" d="M450.39,347.61c-1.98-1.82-4.96,4.25-2.71,5.19c1.69,0.7,3.33-1.58,3.33-3
				C451.02,349.13,450.94,348.11,450.39,347.61z"/>
			<path class="st5" d="M427.98,340.04c-1.79-2.14-1.69-4.55-1.67-7.17c0.02-2.06,0.17-4.27-0.39-6.28
				c-0.37-1.34-2.41-3.63-0.56-4.63c0.55-0.3,1.65,0.11,1.95-0.66c0.41-1.07-1.26-2.9-1.91-3.6c-0.36-0.39-1-0.99-0.47-1.52
				c0.51-0.51,1.82,0.02,2.38,0.15c0.62,0.14,1.88,0.56,1.88-0.36c0-0.92-1.87-2.03-2.47-2.5c-1.47-1.13-2.96-2.06-4.53-3.04
				c-1.11,3.53-1.74,7.06-1.74,10.35c0,3.76,0.79,6.79,2.22,8.87c0,8.82,3.87,11.7,7.74,12.03
				C429.52,341.29,428.65,340.84,427.98,340.04z"/>
			<g class="st5">
				<path d="M446.37,354.81c-1.02-0.51-1.71-1.44-2.09-2.49c-1.04-2.82-0.83-6.25-0.69-9.2c0.08-1.69,0.26-3.37,0.34-5.06
					c0.04-0.88,0.22-2.73-0.36-3.48c-1.78-2.32-4.45,4.05-6.38,5.49c4.61-1.59,4.28,5.01,5.62,10.86c0.94,4.12,3.47,5.13,5.67,4.62
					C447.91,355.12,446.99,355.12,446.37,354.81z"/>
				<path d="M436.38,340.34l-0.01,0.07c0.04-0.02,0.09-0.04,0.13-0.06C436.46,340.34,436.42,340.35,436.38,340.34z"/>
			</g>
		</g>
		<g>
			<path class="st4" d="M467.58,375.89c1.55,0.47,2.96,1.14,4.16,2.06c2.25,1.73,4.58,4.97,3.46,8c-1.3,3.52-5.94,4.59-8.72,6.61
				c-3.75,2.72-0.3,5.53,0.43,8.62c1.11,4.71-4.72,9.53-11.86,11.58c-4.54,1.31-9.27,1.73-13.9,2.62c-1.74,0.33-3.91,0.37-5.48,1.14
				c-1.72,0.84-3.07,2.57-4.27,4.01c-2.93,3.53-5.1,6.45-9.54,8.24c-3.91,1.58-9.17,2.34-13.36,1.69
				c-3.48-0.54-7.57-2.85-10.01-5.37c-2.73-2.83-6.1-5.04-9.97-5.78c-10.06-1.93-20.84-3.26-25.14-9.7
				c-3.95-5.91,1.45-11.56,10.78-14.48c8.6-2.69,20.1-1.95,27.47-6.01c9.13-5.02,5.62-16.29,23.19-15.42
				c3.44,0.17,6.64,0.51,9.86,1.26c6.36,1.49,9.64,1.69,16.48,0.7C456.53,374.88,462.74,374.42,467.58,375.89z"/>
			<g>
				<g class="st13">
					<path class="st18" d="M456.26,391.3c-0.34-3.08,1.98-4.6,3.28-7.12c1.33-2.59,1.85-5.93-0.04-8.27
						c-0.28-0.34-0.58-0.65-0.9-0.94c-2.51,0.08-5.05,0.35-7.42,0.7c0,0,0,0-0.01,0c0.99,0.93,2.2,1.8,2.52,2.34
						c1.33,2.22,1.09,4.04-0.21,6.15c-0.81,1.32-1.41,2.25-2.62,3.25c-0.91,0.75-2.07,1.47-2.41,2.68
						c-0.47,1.67,1.14,3.29,2.19,4.43c3.18,3.45,5.46,7.93,2.01,12.11c-1.81,2.19-4.62,3.54-6.88,5.21
						c-1.16,0.86-1.81,1.92-2.01,3.09c3.78-0.62,7.59-1.1,11.28-2.16c1.98-0.57,3.86-1.36,5.52-2.3c0.39-1.02,0.98-1.97,1.43-3
						c0.8-1.87,1.01-3.76,0.24-5.67C460.75,398.17,456.7,395.27,456.26,391.3z"/>
					<path class="st18" d="M446.7,395.86c-1.02-1.85-3.9-2.64-4.17-4.91c-0.24-1.98,2.64-4.1,3.68-5.61
						c1.32-1.91,1.77-3.59,0.39-5.59c-0.82-1.19-1.9-2.4-3.15-3.48c-1.35-0.03-2.66-0.15-4.06-0.36c0.64,0.3,1.27,0.6,1.9,0.95
						c2.09,1.16,4.45,2.44,4.53,5.18c0.11,4.21-8.3,6.53-5.96,10.95c1,1.89,3.4,2.57,4.57,4.32c1.43,2.14,0.06,3.43-1.69,4.68
						c-3.54,2.54-7.31,4.69-8.3,9.31c-0.45,2.09-0.16,3.82,0.66,5.54c0.18-0.11,0.37-0.22,0.56-0.32c0.23-0.11,0.47-0.2,0.72-0.29
						c-0.53-1.54-0.62-3.42-0.21-4.89c0.57-2.04,2.41-4.47,3.9-5.86c1.75-1.63,4.16-2.14,5.85-3.75
						C447.96,399.79,447.98,398.18,446.7,395.86z"/>
					<path class="st18" d="M392.28,416.35c-0.87,0.99-1.52,2.18-1.91,3.44c2.56,0.83,4.87,2.28,6.88,4.09
						c-0.15-0.54-0.24-1.12-0.25-1.74c-0.05-2.64,1.51-3.57,3.68-4.81c1.95-1.11,3.92-1.96,6.1-2.45c2.56-0.57,6.02-0.86,6.92-3.85
						c1.41-4.66-5.44-6.05-8.38-7.68c-3.29-1.82-1.55-3,1.27-4.51c2.46-1.32,6.11-3.85,3.5-6.75c-1.67-1.85-4.25-3.22-6.82-4.02
						c-0.5,0.37-1.03,0.73-1.63,1.05c-3.01,1.65-6.7,2.5-10.6,3.12c1.41,0.55,3.08,1.31,3.4,2.34c0.77,2.5-4.74,3.72-5.64,5.73
						c-3.28,7.3,14.16,6.49,8.69,12.35C395.99,414.29,393.76,414.66,392.28,416.35z"/>
					<path class="st18" d="M417.68,401.37c-1.53-2.31,1.21-3.94,2.61-5.6c1.5-1.78,2.48-4.66,1.26-6.95
						c-1.19-2.24-4.84-3.43-6.99-4.44c-2.07-0.97-4.26-1.65-6.54-1.84c-0.03,0-0.08-0.01-0.11-0.01c-0.5,0.8-1.01,1.6-1.58,2.37
						c2.92,0.52,6.29,1.49,8.66,3c1.82,1.16,3.12,2.94,2.8,5.17c-0.23,1.6-1.25,2.9-2.51,3.79c-1.07,0.75-2.27,1.64-2.59,2.99
						c-0.33,1.41,0.05,2.86,1.2,3.75c2.81,2.15,6.98,3.57,7.14,7.82c0.19,5.16-10.19,6.93-13.88,8.87
						c-2.45,1.29-4.89,2.56-5.06,5.62c-0.04,0.74,0.14,1.52,0.48,2.27c0.49,0.29,0.99,0.55,1.5,0.8c-0.53-1.08-0.82-2.22-0.36-3.21
						c0.73-1.59,3.23-2.04,4.7-2.49c5.31-1.63,12.24-3.12,15.47-8.07c1.9-2.92,1.85-6.59-0.58-9.31
						C421.77,404.2,418.94,403.28,417.68,401.37z"/>
				</g>
				<path class="st5" d="M425.55,426.69c-2.31,0.74-4.68,1.28-7.09,1.3c-3.03,0.02-6.16-0.09-9.07-0.97
					c-2.95-0.89-5.52-3.13-7.71-5.25c-2.7-2.61-5.28-5.17-8.86-6.52c-3.85-1.45-7.83-2.1-11.85-2.91
					c-4.78-0.96-10.53-0.88-14.57-3.88c-1.65-1.22-3.13-2.59-3.43-4.71c-0.04-0.25-0.09-0.64-0.12-1.06
					c-1.12,2.15-1.06,4.51,0.54,6.91c4.3,6.44,15.08,7.76,25.14,9.7c3.87,0.74,7.24,2.95,9.97,5.78c2.43,2.52,6.52,4.83,10.01,5.37
					c4.19,0.65,9.44-0.11,13.36-1.69C423.29,428.18,424.49,427.48,425.55,426.69z"/>
				<path class="st5" d="M473.64,381.42c0.11,2.4-0.13,3.76-2.18,5.24c-1.39,1.01-2.81,1.87-4.32,2.7
					c-0.98,0.53-2.92,1.38-3.41,2.44c-0.63,1.38,0.25,2.76,1.07,4.06c-0.17-1.13,0.18-2.23,1.67-3.31c2.78-2.02,7.42-3.08,8.72-6.61
					c0.88-2.37-0.36-4.86-2.01-6.67C473.37,380,473.61,380.72,473.64,381.42z"/>
			</g>
			<path class="st17" d="M463.3,398.85c-0.42-0.62-1.05-1.04-1.97-1.02c-1.79,0.05-3.18,2.49-3.94,3.86c-2,3.61-6.02,5.96-9.63,7.67
				c-0.7,0.33-2.85,0.81-2.67,1.88c0.15,0.89,1.48,0.82,2.14,0.81c5.37-0.06,10.59-2.11,14.54-5.73c1.26-1.16,2.6-3.09,2.36-4.87
				C464.02,400.57,463.79,399.57,463.3,398.85z"/>
			<path class="st17" d="M442.9,410.93c-0.13-0.12-0.33-0.23-0.62-0.32c-0.86-0.26-2.53,0.24-3.05,0.98
				c-0.68,0.96,0.87,1.27,1.64,1.29C441.9,412.9,443.66,411.66,442.9,410.93z"/>
			<path class="st17" d="M424.78,375.39c-2.66-0.06-5.39,0.37-7.71,1.11c-1.09,0.35-3.53,1.07-3.04,2.81
				c0.46,1.61,4.17,0.65,5.23,0.32c2.66-0.82,4.92-1.31,7.74-1.56c2.23-0.19,4.02,0,6.19,0.27c0.87,0.11,2.59,0.5,3.28-0.27
				c0.55-0.66-1.48-1.17-2.25-1.42C431.27,375.69,427.88,375.46,424.78,375.39z"/>
			<path class="st17" d="M371.41,398.02c-2.8,1.43-6.1,3.9-5.1,6.84c0.48,1.41,2.64,3.1,4.1,2.28c1.32-0.74,0.71-2.48,0.81-3.68
				c0.04-0.51,0.11-1.14,0.33-1.6c0.21-0.45,0.52-0.88,0.88-1.22c0.97-0.92,2.12-1.44,3.33-1.99c1.12-0.51,2.24-1.05,3.4-1.44
				c0.49-0.17,2.63-0.82,1.47-1.48c-0.67-0.38-1.72-0.17-2.43-0.04c-1.67,0.29-3.31,0.85-4.89,1.47
				C372.76,397.38,372.1,397.67,371.41,398.02z"/>
			<path class="st17" d="M373.19,406.59c-0.79-0.11-1.55,0.21-1.69,1.09c-0.2,1.23,0.83,1.6,1.84,1.83
				c0.96,0.21,2.26-0.05,1.73-1.32c-0.3-0.72-0.91-1.39-1.69-1.56C373.32,406.61,373.25,406.6,373.19,406.59z"/>
		</g>
		<g>
			<path class="st19" d="M368.2,355.7c-0.56,3.6-3.54,6.1-5.79,8.68c-2.06,2.37-3.87,5.55-2.91,8.76c0.84,2.84,3.59,4.47,5.48,6.53
				c1.24,1.35,1.93,2.43,1.67,4.66c-0.16,1.39-2.15,4.52-0.12,7.07c-1.21-3.3,1.17-5.1,1.74-7.68c0.29-1.31,0.26-2.8-0.63-4.2
				c-0.77-1.2-1.63-2.33-2.35-3.56c-2.28-3.92,1.84-7.38,3.96-10.26c3.02-4.11,4.22-8.51,1.71-13.14c-0.93-1.72-3.27-2.98-4.81-3.98
				c-1.58-1.02-2.13-2.48-2.27-4.35c-0.16,1.41-0.48,2.62,0.08,3.98C365.15,351.09,368.81,351.79,368.2,355.7z"/>
			<path class="st19" d="M374.79,358.71c0.3,1.36,0.19,2.97-0.24,4.13c-0.46,1.26-1.06,2.26-2.07,3.53
				c-1.55,1.95-3.48,3.6-3.67,6.23c-0.16,2.24,1.74,3.93,2.66,5.82c0.47,0.95,1.23,3.53,0.47,4.38c3.94-3.45-1.61-7.43-0.06-11.27
				c1.29-3.21,3.47-4.63,3.89-7.68C376.04,361.91,375.38,359.44,374.79,358.71z"/>
			<path class="st19" d="M473.37,343.43c-0.33,2.73-2.5,4.69-4.13,6.69c-1.49,1.84-2.76,4.28-1.96,6.68
				c0.71,2.11,2.82,3.27,4.3,4.77c0.97,0.99,1.51,2.17,1.37,3.86c-0.08,1.05-0.54,2.4-1.74,3.9c1.85-1.21,2.58-2.16,2.93-4.12
				c0.18-0.99,0.35-2.38-0.57-3.82c-0.58-0.91-1.29-1.71-1.87-2.62c-1.82-2.89,1.19-5.61,2.71-7.84c2.17-3.18,2.95-6.53,0.94-9.94
				c-0.75-1.27-2.54-2.16-3.73-2.87c-1.22-0.73-1.67-1.81-1.83-3.22c-0.08,1.07-0.29,1.99,0.17,2.99
				C470.95,340.04,473.72,340.47,473.37,343.43z"/>
			<path class="st19" d="M466.35,344.64c0.26,1.02,0.22,2.23-0.07,3.12c-0.31,0.96-0.74,1.73-1.47,2.72
				c-1.12,1.51-2.53,2.8-2.6,4.79c-0.06,1.69,1.41,2.91,2.16,4.31c0.38,0.7,1.02,2.62,0.47,3.28c2.87-2.7-1.41-5.56-0.35-8.49
				c0.89-2.45,2.49-3.58,2.72-5.89C467.38,347.02,466.81,345.17,466.35,344.64z"/>
			<path class="st19" d="M386.91,363.53c-0.18,2.17-1.84,3.78-3.06,5.42c-1.12,1.5-2.06,3.47-1.35,5.34
				c0.62,1.65,2.33,2.5,3.54,3.64c0.8,0.75,1.26,1.36,1.2,2.7c-0.04,0.83-0.72,2.23-1.26,3.44c0.75-1.01,1.97-2.32,2.2-3.88
				c0.11-0.79,0.03-1.68-0.56-2.47c-0.51-0.68-1.07-1.31-1.55-2.02c-1.53-2.23,0.77-4.47,1.91-6.28c1.62-2.58,2.14-5.25,0.45-7.89
				c-0.63-0.98-2.07-1.63-3.04-2.16c-0.98-0.54-1.37-1.39-1.54-2.49c-0.04,0.84-0.17,1.58,0.22,2.36
				C384.9,360.93,387.1,361.19,386.91,363.53z"/>
			<path class="st19" d="M390.96,365.04c0.24,0.8,0.24,1.76,0.04,2.47c-0.22,0.77-0.53,1.39-1.08,2.19
				c-0.84,1.23-1.92,2.29-1.91,3.87c0,1.34,1.2,2.26,1.84,3.35c0.32,0.55,0.88,2.04,0.47,2.58c2.19-2.22-1.28-4.35-0.53-6.7
				c0.63-1.96,1.86-2.91,1.98-4.74C391.84,366.89,391.34,365.45,390.96,365.04z"/>
		</g>
	</g>
</g>
<g id="Barrels">
	<g id="Barrel_1_">
		<g>
			<path class="st8" d="M33.75,190.81v138.91c0,8.63,5.71,17.27,17.12,23.86c22.83,13.2,59.86,13.2,82.69,0
				c0.72-0.4,1.4-0.82,2.07-1.25c1.35-0.85,2.59-1.75,3.74-2.64c0.57-0.47,1.15-0.92,1.67-1.4c0.55-0.47,1.05-0.95,1.55-1.42
				c0.42-0.42,0.85-0.85,1.22-1.27c0.45-0.47,0.87-0.95,1.25-1.42c0.3-0.37,0.6-0.75,0.87-1.12c0.27-0.37,0.55-0.72,0.77-1.1
				c0.52-0.77,1-1.55,1.4-2.32c0.12-0.22,0.25-0.42,0.32-0.65c0.25-0.47,0.47-0.95,0.65-1.42c0.2-0.47,0.37-0.92,0.52-1.4
				c0.15-0.42,0.27-0.87,0.4-1.32c0.17-0.62,0.3-1.25,0.4-1.87c0.1-0.55,0.17-1.1,0.2-1.62c0.05-0.55,0.07-1.07,0.07-1.62V190.93
				c0-4.34-1.42-8.66-4.27-12.73c-0.37-0.52-0.77-1.02-1.15-1.5c-0.4-0.5-0.82-1-1.27-1.47v-0.02c-0.45-0.47-0.92-0.95-1.4-1.42
				c0,0,0,0,0-0.02c-0.4-0.37-0.8-0.77-1.22-1.12c-0.1-0.1-0.2-0.2-0.32-0.27v-0.02c-0.02-0.02-0.07-0.07-0.12-0.1
				c-0.5-0.42-1-0.85-1.55-1.27c-0.57-0.45-1.17-0.9-1.8-1.35c-0.62-0.45-1.27-0.9-1.95-1.32c-0.67-0.45-1.35-0.87-2.07-1.27
				c-22.83-13.18-59.86-13.18-82.69,0c-1.42,0.82-2.74,1.67-3.99,2.57c0,0.02-0.02,0.02-0.02,0.02c-0.62,0.45-1.22,0.9-1.8,1.35
				c-0.07,0.05-0.15,0.12-0.22,0.17c-0.42,0.32-0.82,0.67-1.2,1c-0.07,0.05-0.15,0.12-0.25,0.2v0.02c-0.2,0.15-0.37,0.32-0.55,0.47
				c-0.17,0.17-0.35,0.32-0.52,0.47c-0.15,0.15-0.3,0.3-0.45,0.42c-0.03,0.03-0.03,0.05-0.03,0.05c-0.25,0.25-0.47,0.47-0.7,0.72
				c-0.25,0.22-0.47,0.47-0.7,0.7v0.02c-0.45,0.47-0.87,0.97-1.27,1.47c-0.27,0.35-0.57,0.72-0.85,1.12c-0.1,0.12-0.2,0.25-0.3,0.4
				c-0.35,0.5-0.67,1-0.97,1.52c-0.02,0-0.02,0-0.02,0.02c-0.15,0.25-0.3,0.5-0.42,0.75c-0.15,0.25-0.3,0.52-0.42,0.77
				c-0.25,0.45-0.45,0.92-0.65,1.37c-0.02,0.07-0.08,0.15-0.1,0.22c-0.07,0.2-0.15,0.37-0.22,0.57c-0.1,0.22-0.2,0.47-0.27,0.72
				c-0.03,0.1-0.08,0.2-0.1,0.3c-0.07,0.2-0.12,0.4-0.17,0.6c-0.07,0.15-0.12,0.3-0.15,0.47c-0.1,0.35-0.2,0.7-0.25,1.05
				c-0.1,0.37-0.17,0.77-0.25,1.17c-0.07,0.5-0.15,1-0.17,1.5v0.02C33.78,189.81,33.75,190.31,33.75,190.81z"/>
			<path class="st20" d="M33.74,280.75l0.02-44.21c0-0.01-0.01-0.01-0.02-0.02c-3.33-4.78-5.09-10.03-5.09-15.5
				c0-5.37,1.7-10.56,5.09-15.42l0.02-14.67c0,0.55,0.03,1.07,0.08,1.62v0.12c0.05,0.4,0.07,0.77,0.15,1.17
				c0.02,0.17,0.07,0.35,0.1,0.52c0.05,0.47,0.15,0.92,0.27,1.4c0.05,0.27,0.15,0.55,0.22,0.8c0.07,0.27,0.17,0.55,0.25,0.8
				c0.15,0.45,0.3,0.9,0.5,1.35c0.15,0.4,0.32,0.8,0.52,1.2c0.15,0.35,0.32,0.67,0.52,1.02c0.25,0.47,0.52,0.95,0.82,1.42
				c0.3,0.5,0.62,0.97,0.97,1.45c0.32,0.45,0.67,0.9,1.02,1.35c0.3,0.4,0.62,0.77,1,1.17c0.15,0.2,0.35,0.4,0.52,0.6
				c0.25,0.27,0.5,0.52,0.8,0.8c0.67,0.72,1.45,1.42,2.25,2.07c0.42,0.37,0.85,0.72,1.3,1.07c0.57,0.47,1.17,0.92,1.8,1.35
				c0.57,0.4,1.15,0.8,1.75,1.17c0.72,0.47,1.47,0.95,2.27,1.4c1.21,0.7,2.49,1.35,3.78,1.97c0,32.35,0,75.85,0,89.27
				c0,15.29-0.64,33.95,12.81,45.37c13.45,11.43,44.34,13.83,69.7-0.1l0,0c-0.5,0.35-1,0.69-1.53,1.02
				c-0.67,0.42-1.35,0.85-2.07,1.25c-22.83,13.2-59.86,13.2-82.69,0c-11.4-6.59-17.12-15.22-17.12-23.86v-18.03
				c0-0.01-0.01-0.01-0.02-0.02c-3.33-4.78-5.09-10.03-5.09-15.5C28.65,290.8,30.35,285.61,33.74,280.75z"/>
			<path class="st13" d="M136.11,252.66c-11.81,6.82-27.38,10.59-43.9,10.59c-16.49,0-32.09-3.77-43.9-10.59
				c-6.33-3.66-11.23-7.98-14.57-12.75v-15.33c0.08,8.59,5.79,17.14,17.11,23.68c11.43,6.59,26.39,9.9,41.35,9.9
				c14.96,0,29.92-3.31,41.35-9.9c11.39-6.57,17.09-15.17,17.12-23.8v15.46C147.35,244.7,142.44,248.99,136.11,252.66z"/>
			<path class="st13" d="M136.11,327.99c-11.81,6.82-27.38,10.59-43.9,10.59c-16.49,0-32.09-3.77-43.9-10.59
				c-6.33-3.66-11.23-7.98-14.57-12.75v-15.33c0.08,8.59,5.79,17.14,17.11,23.68c11.43,6.59,26.39,9.9,41.35,9.9
				c14.96,0,29.92-3.31,41.35-9.9c11.39-6.57,17.09-15.17,17.12-23.8v15.46C147.35,320.03,142.44,324.33,136.11,327.99z"/>
			<path class="st16" d="M144.83,324.49c0,7.58,0.44,16.24-13.22,25.23c-12.98,8.55-29.78,11.09-52.25,7.91
				c15.66,0.31,25.29,1.18,41.97-7.6c13.67-7.19,12.24-18.82,12.24-18.82L144.83,324.49z"/>
			<path class="st16" d="M103.59,325.9c13.66-1.2,32.11-7.33,41.23-18.32V211.8c-10.57,9.63-27.57,14.99-41.23,16.19V325.9z"/>
			<g>
				<g>
					<path class="st10" d="M155.78,296.17c0,5.47-1.76,10.71-5.09,15.52c-3.33,4.78-8.24,9.08-14.58,12.75
						c-11.81,6.82-27.38,10.59-43.9,10.59c-16.49,0-32.09-3.77-43.9-10.59c-6.34-3.66-11.25-7.99-14.58-12.77
						c-3.33-4.78-5.09-10.03-5.09-15.5c0-5.37,1.7-10.56,5.09-15.42v15.42c0,8.65,5.73,17.28,17.13,23.87
						c11.43,6.59,26.39,9.9,41.35,9.9c14.96,0,29.92-3.31,41.35-9.9c11.43-6.59,17.13-15.22,17.13-23.87v-15.45
						C154.07,285.61,155.78,290.8,155.78,296.17z"/>
				</g>
				<path class="st20" d="M54.64,322.01L54.64,322.01c-1.29-0.63-2.56-1.29-3.78-2c-11.4-6.59-17.13-15.22-17.13-23.87v-15.42
					c-3.38,4.86-5.09,10.05-5.09,15.42c0,5.47,1.76,10.71,5.09,15.5c3.33,4.78,8.24,9.11,14.58,12.77c1.99,1.15,4.09,2.2,6.27,3.17
					C52.15,326.35,52.85,321.81,54.64,322.01z"/>
				<g>
					<path class="st8" d="M108.32,331.89c6.31-1.24,12.5-3.01,18.4-5.47c5.87-2.5,11.48-5.67,16.25-9.87
						c4.72-4.15,8.82-9.36,10.42-15.49c1.61-6.08,0.52-12.89-2.92-18.31c3.81,5.18,5.37,12.12,3.84,18.54
						c-1.46,6.49-5.74,11.86-10.51,16.21c-4.95,4.25-10.69,7.47-16.72,9.83C121.04,329.66,114.71,331.12,108.32,331.89z"/>
				</g>
			</g>
			<g>
				<g>
					<path class="st10" d="M155.78,221.03c0,5.47-1.76,10.71-5.09,15.52c-3.33,4.78-8.24,9.08-14.58,12.75
						c-11.81,6.82-27.38,10.59-43.9,10.59c-16.49,0-32.09-3.77-43.9-10.59c-6.34-3.66-11.25-7.99-14.58-12.77
						c-3.33-4.78-5.09-10.03-5.09-15.5c0-5.37,1.7-10.56,5.09-15.42v15.42c0,8.65,5.73,17.28,17.13,23.87
						c11.43,6.59,26.39,9.9,41.35,9.9c14.96,0,29.92-3.31,41.35-9.9c11.43-6.59,17.13-15.22,17.13-23.87v-15.45
						C154.07,210.47,155.78,215.66,155.78,221.03z"/>
				</g>
				<path class="st20" d="M54.64,246.87L54.64,246.87c-1.29-0.63-2.56-1.29-3.78-2c-11.4-6.59-17.13-15.22-17.13-23.87v-15.42
					c-3.38,4.86-5.09,10.05-5.09,15.42c0,5.47,1.76,10.71,5.09,15.5c3.33,4.78,8.24,9.11,14.58,12.77c1.99,1.15,4.09,2.2,6.27,3.17
					C52.15,251.2,52.85,246.66,54.64,246.87z"/>
				<g>
					<path class="st8" d="M108.32,256.74c6.31-1.24,12.5-3.01,18.4-5.47c5.87-2.5,11.48-5.67,16.25-9.87
						c4.72-4.15,8.82-9.36,10.42-15.49c1.61-6.08,0.52-12.89-2.92-18.31c3.81,5.18,5.37,12.12,3.84,18.54
						c-1.46,6.49-5.74,11.86-10.51,16.21c-4.95,4.25-10.69,7.47-16.72,9.83C121.04,254.51,114.71,255.98,108.32,256.74z"/>
				</g>
			</g>
			<path class="st10" d="M33.75,190.81v0.12c0,0.55,0.03,1.07,0.08,1.62v0.12c0.05,0.4,0.07,0.77,0.15,1.17
				c0.02,0.17,0.07,0.35,0.1,0.52c0.05,0.47,0.15,0.92,0.27,1.4c0.05,0.27,0.15,0.55,0.22,0.8c0.07,0.27,0.17,0.55,0.25,0.8
				c0.15,0.45,0.3,0.9,0.5,1.35c0.15,0.4,0.32,0.8,0.52,1.2c0.15,0.35,0.32,0.67,0.52,1.02c0.25,0.47,0.52,0.95,0.82,1.42
				c0.3,0.5,0.62,0.97,0.97,1.45c0.32,0.45,0.67,0.9,1.02,1.35c0.3,0.4,0.62,0.77,1,1.17c0.15,0.2,0.35,0.4,0.52,0.6
				c0.25,0.27,0.5,0.52,0.8,0.8c0.67,0.72,1.45,1.42,2.25,2.07c0.42,0.37,0.85,0.72,1.3,1.07c0.57,0.47,1.17,0.92,1.8,1.35
				c0.57,0.4,1.15,0.8,1.75,1.17c0.72,0.47,1.47,0.95,2.27,1.4c22.83,13.2,59.86,13.2,82.69,0c0.8-0.45,1.55-0.92,2.27-1.4
				c0.6-0.37,1.17-0.77,1.75-1.17c0.62-0.42,1.22-0.87,1.8-1.35c0.45-0.35,0.87-0.7,1.3-1.07c0.8-0.65,1.57-1.35,2.25-2.07
				c0.3-0.27,0.55-0.52,0.8-0.8c0.17-0.2,0.37-0.4,0.52-0.6c0.37-0.4,0.7-0.77,1-1.17c0.35-0.45,0.7-0.9,1.02-1.35
				c0.35-0.47,0.67-0.95,0.97-1.45c0.3-0.47,0.57-0.95,0.82-1.42c0.2-0.35,0.37-0.67,0.52-1.02c0.2-0.4,0.37-0.8,0.52-1.2
				c0.2-0.45,0.35-0.9,0.5-1.35c0.07-0.25,0.17-0.52,0.25-0.8c0.07-0.25,0.17-0.52,0.22-0.8c0.12-0.47,0.22-0.92,0.27-1.4
				c0.02-0.17,0.07-0.35,0.1-0.52c0.08-0.4,0.1-0.77,0.15-1.17v-0.12c0.05-0.55,0.07-1.07,0.07-1.62c0-4.34-1.42-8.66-4.27-12.73
				c-0.37-0.52-0.77-1.02-1.15-1.5c-0.4-0.5-0.82-1-1.27-1.47v-0.02c-0.45-0.47-0.92-0.95-1.4-1.42c-0.4-0.4-0.8-0.77-1.22-1.15
				c-0.1-0.1-0.2-0.2-0.32-0.27c-0.02-0.05-0.07-0.07-0.12-0.12c-0.5-0.42-1-0.85-1.55-1.27c-0.57-0.45-1.17-0.9-1.8-1.35
				c-1.25-0.87-2.6-1.75-4.02-2.57c-22.83-13.18-59.86-13.18-82.69,0c-1.42,0.82-2.74,1.67-3.99,2.55c0,0.02-0.02,0.02-0.02,0.02
				c-0.62,0.45-1.22,0.9-1.8,1.35c-0.07,0.05-0.15,0.12-0.22,0.17c-0.42,0.32-0.82,0.67-1.2,1c-0.1,0.07-0.17,0.15-0.25,0.22
				c-0.2,0.15-0.37,0.32-0.55,0.47c-0.17,0.17-0.35,0.32-0.52,0.47c-0.15,0.17-0.32,0.32-0.47,0.47c-0.25,0.25-0.47,0.47-0.7,0.72
				c-0.25,0.22-0.47,0.47-0.7,0.7v0.02c-0.45,0.47-0.87,0.97-1.27,1.47c-0.27,0.35-0.57,0.72-0.85,1.12c-0.1,0.12-0.2,0.25-0.3,0.4
				c-0.35,0.5-0.67,1-0.97,1.52h-0.02c0,0,0,0,0,0.02c-0.15,0.25-0.3,0.5-0.42,0.75c-0.15,0.25-0.3,0.52-0.42,0.77
				c-0.25,0.45-0.45,0.92-0.65,1.37c-0.02,0.07-0.08,0.15-0.1,0.22c-0.07,0.2-0.15,0.37-0.22,0.57c-0.1,0.22-0.2,0.47-0.27,0.72
				c-0.03,0.1-0.08,0.2-0.1,0.3c-0.07,0.2-0.12,0.4-0.17,0.6c-0.07,0.15-0.12,0.3-0.15,0.47c-0.1,0.35-0.2,0.7-0.25,1.05
				c-0.1,0.37-0.17,0.77-0.25,1.17c-0.07,0.5-0.15,1-0.17,1.5v0.02C33.78,189.81,33.75,190.31,33.75,190.81z M40.59,197.99
				c-4.12-9.98,0.6-20.94,14.1-28.75c20.74-11.95,54.35-11.95,75.06,0c13.5,7.81,18.22,18.76,14.1,28.75
				c-2.17,5.34-6.89,10.43-14.1,14.6c-20.71,11.98-54.32,11.98-75.06,0C47.48,208.43,42.76,203.33,40.59,197.99z"/>
		</g>
		<g>
			<path class="st21" d="M40.59,197.99c-4.12-9.98,0.6-20.94,14.1-28.75c20.74-11.95,54.35-11.95,75.06,0
				c13.5,7.81,18.22,18.76,14.1,28.75c-2.17,5.34-6.89,10.43-14.1,14.6c-20.71,11.98-54.32,11.98-75.06,0
				C47.48,208.43,42.76,203.33,40.59,197.99z"/>
			<path class="st22" d="M129.75,177.31c-20.71-11.95-54.32-11.95-75.06,0c-8.57,4.96-13.6,11.19-15.07,17.63
				c0.24,1.03,0.56,2.05,0.97,3.06c2.17,5.34,6.89,10.43,14.1,14.6c20.74,11.98,54.35,11.98,75.06,0c7.21-4.17,11.93-9.26,14.1-14.6
				c0.42-1.01,0.74-2.03,0.97-3.06C143.34,188.5,138.32,182.27,129.75,177.31z"/>
		</g>
		<g>
			<path class="st21" d="M125.55,199.56c-3.01-1.74-7.89-1.74-10.9,0c-1.51,0.87-2.25,2.01-2.25,3.15c0,0.22,0,3.31,0,3.53
				c0,1.14,0.74,2.28,2.25,3.15c3.01,1.74,7.89,1.74,10.9,0c1.51-0.87,2.25-2.01,2.25-3.15c0-0.22,0-3.31,0-3.53
				C127.8,201.57,127.05,200.43,125.55,199.56z"/>
			<path class="st10" d="M114.65,199.56c3.01-1.74,7.89-1.74,10.9,0s3.01,4.56,0,6.29c-3.01,1.74-7.89,1.74-10.9,0
				C111.64,204.11,111.64,201.3,114.65,199.56z"/>
		</g>
		<g>
			<g>
				
					<ellipse transform="matrix(0.7071 -0.7071 0.7071 0.7071 -182.381 151.9359)" class="st4" cx="92.21" cy="296.12" rx="26.06" ry="26.06"/>
				<path class="st3" d="M92.21,323.28c-14.97,0-27.15-12.18-27.15-27.15c0-14.97,12.18-27.15,27.15-27.15
					c14.97,0,27.16,12.18,27.16,27.15C119.37,311.09,107.19,323.28,92.21,323.28z M92.21,271.15c-13.77,0-24.97,11.2-24.97,24.97
					c0,13.77,11.2,24.97,24.97,24.97c13.77,0,24.97-11.2,24.97-24.97C117.18,282.35,105.98,271.15,92.21,271.15z"/>
			</g>
			<g>
				<g>
					<path class="st3" d="M86.17,288.04c-1.55-1.55-2.51-3.69-2.51-6.05c0-2.87,1.41-5.41,3.58-6.96c-3.58,1.81-6.04,5.53-6.04,9.82
						c0,2.29,0.7,4.41,1.89,6.17c-2.12-0.15-4.31,0.31-6.29,1.45c-3.72,2.14-5.71,6.13-5.48,10.14c0.26-2.65,1.75-5.15,4.23-6.58
						c2.04-1.18,4.38-1.42,6.49-0.85c1.9,0.51,3.63,1.68,4.82,3.4l2.67-1.54c-0.07-0.24-0.1-0.49-0.1-0.75
						c0-1.3,0.89-2.38,2.09-2.69v-3.08C89.44,290.35,87.57,289.43,86.17,288.04z M100.31,310.83c-2.04-1.18-3.42-3.08-3.98-5.19
						c-0.51-1.91-0.36-3.99,0.54-5.88l-2.67-1.54c-0.5,0.52-1.21,0.84-1.98,0.84c-0.78,0-1.48-0.32-1.98-0.84l-2.67,1.54
						c0.9,1.89,1.05,3.97,0.54,5.88c-0.56,2.12-1.94,4.01-3.98,5.19c-2.49,1.44-5.39,1.48-7.82,0.37c3.36,2.2,7.81,2.47,11.52,0.32
						c1.98-1.14,3.47-2.81,4.39-4.72c0.93,1.91,2.42,3.58,4.4,4.72c3.72,2.15,8.16,1.88,11.52-0.32
						C105.7,312.31,102.8,312.26,100.31,310.83z M107.61,292.47c-1.98-1.14-4.17-1.6-6.29-1.45c1.19-1.76,1.89-3.88,1.89-6.17
						c0-4.29-2.46-8.01-6.04-9.82c2.17,1.55,3.58,4.09,3.58,6.96c0,2.36-0.96,4.5-2.51,6.05c-1.39,1.39-3.27,2.31-5.35,2.47v3.08
						c1.2,0.3,2.09,1.39,2.09,2.69c0,0.26-0.04,0.52-0.1,0.75l2.67,1.54c1.18-1.72,2.91-2.89,4.82-3.4
						c2.12-0.57,4.45-0.33,6.49,0.85c2.49,1.44,3.98,3.93,4.23,6.58C113.32,298.6,111.33,294.61,107.61,292.47z"/>
				</g>
				<g>
					<g>
						<g>
							<g>
								<g>
									<g>
										<path class="st3" d="M92.21,285.38c-1.99,0-3.9,0.53-5.59,1.54c0.1,0.12,0.21,0.23,0.32,0.34
											c0.23,0.23,0.47,0.44,0.72,0.63c1.39-0.76,2.93-1.15,4.54-1.15c1.61,0,3.15,0.39,4.54,1.15c0.25-0.19,0.49-0.41,0.72-0.63
											c0.11-0.11,0.22-0.23,0.32-0.34C96.11,285.91,94.2,285.38,92.21,285.38z M103.11,296.12c-0.15,0.03-0.31,0.07-0.46,0.11
											c-0.31,0.08-0.62,0.19-0.91,0.31c-0.09,3.24-1.82,6.2-4.54,7.87c0.04,0.32,0.1,0.63,0.19,0.95
											c0.04,0.15,0.08,0.3,0.14,0.45c3.43-1.91,5.59-5.54,5.59-9.52C103.11,296.23,103.11,296.17,103.11,296.12z M82.68,296.54
											c-0.3-0.12-0.6-0.23-0.91-0.31c-0.15-0.04-0.3-0.08-0.46-0.11c0,0.05,0,0.11,0,0.16c0,3.98,2.16,7.61,5.59,9.52
											c0.05-0.15,0.09-0.3,0.13-0.45c0.08-0.31,0.15-0.63,0.19-0.95C84.5,302.73,82.77,299.78,82.68,296.54z"/>
									</g>
								</g>
							</g>
						</g>
					</g>
				</g>
			</g>
		</g>
	</g>
	<g id="Barrel_3_">
		<g>
			<path class="st8" d="M171.2,222.51v138.91c0,8.63,5.71,17.27,17.12,23.86c22.83,13.2,59.86,13.2,82.69,0
				c0.72-0.4,1.4-0.82,2.07-1.25c1.35-0.85,2.59-1.75,3.74-2.64c0.57-0.47,1.15-0.92,1.67-1.4c0.55-0.47,1.05-0.95,1.55-1.42
				c0.42-0.42,0.85-0.85,1.22-1.27c0.45-0.47,0.87-0.95,1.25-1.42c0.3-0.37,0.6-0.75,0.87-1.12c0.27-0.37,0.55-0.72,0.77-1.1
				c0.52-0.77,1-1.55,1.4-2.32c0.12-0.22,0.25-0.42,0.32-0.65c0.25-0.47,0.47-0.95,0.65-1.42c0.2-0.47,0.37-0.92,0.52-1.4
				c0.15-0.42,0.27-0.87,0.4-1.32c0.17-0.62,0.3-1.25,0.4-1.87c0.1-0.55,0.17-1.1,0.2-1.62c0.05-0.55,0.07-1.07,0.07-1.62V222.63
				c0-4.34-1.42-8.66-4.27-12.73c-0.37-0.52-0.77-1.02-1.15-1.5c-0.4-0.5-0.82-1-1.27-1.47v-0.02c-0.45-0.47-0.92-0.95-1.4-1.42
				c0,0,0,0,0-0.02c-0.4-0.37-0.8-0.77-1.22-1.12c-0.1-0.1-0.2-0.2-0.32-0.27v-0.02c-0.02-0.03-0.07-0.07-0.12-0.1
				c-0.5-0.42-1-0.85-1.55-1.27c-0.57-0.45-1.17-0.9-1.8-1.35c-0.62-0.45-1.27-0.9-1.95-1.32c-0.67-0.45-1.35-0.87-2.07-1.27
				c-22.83-13.18-59.86-13.18-82.69,0c-1.42,0.82-2.75,1.67-3.99,2.57c0,0.02-0.03,0.02-0.03,0.02c-0.62,0.45-1.22,0.9-1.8,1.35
				c-0.07,0.05-0.15,0.12-0.22,0.17c-0.42,0.32-0.82,0.67-1.2,1c-0.07,0.05-0.15,0.12-0.25,0.2v0.02c-0.2,0.15-0.37,0.32-0.55,0.47
				c-0.17,0.17-0.35,0.32-0.52,0.47c-0.15,0.15-0.3,0.3-0.45,0.42c-0.03,0.03-0.03,0.05-0.03,0.05c-0.25,0.25-0.47,0.47-0.7,0.72
				c-0.25,0.22-0.47,0.47-0.7,0.7v0.02c-0.45,0.47-0.87,0.97-1.27,1.47c-0.27,0.35-0.57,0.72-0.85,1.12c-0.1,0.12-0.2,0.25-0.3,0.4
				c-0.35,0.5-0.67,1-0.97,1.52c-0.02,0-0.02,0-0.02,0.02c-0.15,0.25-0.3,0.5-0.42,0.75c-0.15,0.25-0.3,0.52-0.42,0.77
				c-0.25,0.45-0.45,0.92-0.65,1.37c-0.02,0.07-0.08,0.15-0.1,0.22c-0.07,0.2-0.15,0.37-0.22,0.57c-0.1,0.22-0.2,0.47-0.27,0.72
				c-0.03,0.1-0.08,0.2-0.1,0.3c-0.07,0.2-0.12,0.4-0.17,0.6c-0.07,0.15-0.12,0.3-0.15,0.47c-0.1,0.35-0.2,0.7-0.25,1.05
				c-0.1,0.37-0.17,0.77-0.25,1.17c-0.07,0.5-0.15,1-0.17,1.5v0.02C171.22,221.51,171.2,222.01,171.2,222.51z"/>
			<path class="st20" d="M171.18,312.45l0.02-44.21c0-0.01-0.01-0.01-0.02-0.02c-3.33-4.78-5.09-10.03-5.09-15.5
				c0-5.37,1.7-10.56,5.09-15.42l0.02-14.67c0,0.55,0.03,1.07,0.08,1.62v0.12c0.05,0.4,0.07,0.77,0.15,1.17
				c0.02,0.17,0.07,0.35,0.1,0.52c0.05,0.47,0.15,0.92,0.27,1.4c0.05,0.27,0.15,0.55,0.22,0.8c0.07,0.27,0.17,0.55,0.25,0.8
				c0.15,0.45,0.3,0.9,0.5,1.35c0.15,0.4,0.32,0.8,0.52,1.2c0.15,0.35,0.32,0.67,0.52,1.02c0.25,0.47,0.52,0.95,0.82,1.42
				c0.3,0.5,0.62,0.97,0.97,1.45c0.32,0.45,0.67,0.9,1.02,1.35c0.3,0.4,0.62,0.77,1,1.17c0.15,0.2,0.35,0.4,0.52,0.6
				c0.25,0.27,0.5,0.52,0.8,0.8c0.67,0.72,1.45,1.42,2.25,2.07c0.42,0.37,0.85,0.72,1.3,1.07c0.57,0.47,1.17,0.92,1.8,1.35
				c0.57,0.4,1.15,0.8,1.75,1.17c0.72,0.47,1.47,0.95,2.27,1.4c1.21,0.7,2.49,1.35,3.78,1.97c0,32.35,0,75.85,0,89.27
				c0,15.29-0.64,33.95,12.81,45.37c13.45,11.43,44.34,13.83,69.7-0.1l0,0c-0.5,0.35-1,0.69-1.53,1.02
				c-0.67,0.42-1.35,0.85-2.07,1.25c-22.83,13.2-59.86,13.2-82.69,0c-11.4-6.59-17.12-15.22-17.12-23.86v-18.03
				c0-0.01-0.01-0.01-0.02-0.02c-3.33-4.78-5.09-10.03-5.09-15.5C166.1,322.5,167.8,317.31,171.18,312.45z"/>
			<path class="st13" d="M273.56,284.35c-11.81,6.82-27.38,10.59-43.9,10.59c-16.49,0-32.09-3.77-43.9-10.59
				c-6.33-3.66-11.23-7.98-14.57-12.75v-15.33c0.08,8.59,5.79,17.14,17.11,23.68c11.43,6.59,26.39,9.9,41.35,9.9
				c14.96,0,29.92-3.31,41.35-9.9c11.39-6.57,17.09-15.17,17.12-23.8v15.46C284.8,276.39,279.89,280.69,273.56,284.35z"/>
			<path class="st13" d="M273.56,359.69c-11.81,6.82-27.38,10.59-43.9,10.59c-16.49,0-32.09-3.77-43.9-10.59
				c-6.33-3.66-11.23-7.98-14.57-12.75V331.6c0.08,8.59,5.79,17.14,17.11,23.68c11.43,6.59,26.39,9.9,41.35,9.9
				c14.96,0,29.92-3.31,41.35-9.9c11.39-6.57,17.09-15.17,17.12-23.8v15.46C284.8,351.73,279.89,356.03,273.56,359.69z"/>
			<path class="st16" d="M282.27,356.19c0,7.58,0.44,16.24-13.22,25.23c-12.98,8.55-29.78,11.09-52.25,7.91
				c15.66,0.31,25.29,1.18,41.97-7.6c13.67-7.19,12.24-18.82,12.24-18.82L282.27,356.19z"/>
			<path class="st16" d="M241.03,357.6c13.66-1.2,32.11-7.33,41.23-18.32v-95.78c-10.57,9.63-27.57,14.99-41.23,16.19V357.6z"/>
			<g>
				<g>
					<path class="st10" d="M293.23,327.87c0,5.47-1.76,10.71-5.09,15.52c-3.33,4.78-8.24,9.08-14.58,12.75
						c-11.81,6.82-27.38,10.59-43.9,10.59c-16.49,0-32.09-3.77-43.9-10.59c-6.34-3.66-11.25-7.99-14.58-12.77
						c-3.33-4.78-5.09-10.03-5.09-15.5c0-5.37,1.7-10.56,5.09-15.42v15.42c0,8.65,5.73,17.28,17.13,23.87
						c11.43,6.59,26.39,9.9,41.35,9.9c14.96,0,29.93-3.31,41.35-9.9c11.43-6.59,17.13-15.22,17.13-23.87v-15.45
						C291.52,317.31,293.23,322.5,293.23,327.87z"/>
				</g>
				<path class="st20" d="M192.09,353.71L192.09,353.71c-1.29-0.63-2.56-1.29-3.78-2c-11.4-6.59-17.13-15.22-17.13-23.87v-15.42
					c-3.38,4.86-5.09,10.05-5.09,15.42c0,5.47,1.76,10.71,5.09,15.5c3.33,4.78,8.24,9.11,14.58,12.77c1.99,1.15,4.09,2.2,6.27,3.17
					C189.6,358.04,190.3,353.5,192.09,353.71z"/>
				<g>
					<path class="st8" d="M245.77,363.58c6.31-1.24,12.5-3.01,18.4-5.47c5.87-2.5,11.48-5.67,16.25-9.87
						c4.72-4.15,8.82-9.36,10.42-15.49c1.61-6.08,0.52-12.89-2.92-18.31c3.81,5.18,5.37,12.12,3.84,18.54
						c-1.46,6.49-5.74,11.86-10.51,16.21c-4.95,4.25-10.69,7.47-16.72,9.83C258.49,361.36,252.15,362.82,245.77,363.58z"/>
				</g>
			</g>
			<g>
				<g>
					<path class="st10" d="M293.23,252.72c0,5.47-1.76,10.71-5.09,15.52c-3.33,4.78-8.24,9.08-14.58,12.75
						c-11.81,6.82-27.38,10.59-43.9,10.59c-16.49,0-32.09-3.77-43.9-10.59c-6.34-3.66-11.25-7.99-14.58-12.77
						c-3.33-4.78-5.09-10.03-5.09-15.5c0-5.37,1.7-10.56,5.09-15.42v15.42c0,8.65,5.73,17.28,17.13,23.87
						c11.43,6.59,26.39,9.9,41.35,9.9c14.96,0,29.93-3.31,41.35-9.9c11.43-6.59,17.13-15.22,17.13-23.87v-15.45
						C291.52,242.16,293.23,247.35,293.23,252.72z"/>
				</g>
				<path class="st20" d="M192.09,278.56L192.09,278.56c-1.29-0.63-2.56-1.29-3.78-2c-11.4-6.59-17.13-15.22-17.13-23.87v-15.42
					c-3.38,4.86-5.09,10.05-5.09,15.42c0,5.47,1.76,10.71,5.09,15.5c3.33,4.78,8.24,9.11,14.58,12.77c1.99,1.15,4.09,2.2,6.27,3.17
					C189.6,282.9,190.3,278.36,192.09,278.56z"/>
				<g>
					<path class="st8" d="M245.77,288.44c6.31-1.24,12.5-3.01,18.4-5.47c5.87-2.5,11.48-5.67,16.25-9.87
						c4.72-4.15,8.82-9.36,10.42-15.49c1.61-6.08,0.52-12.89-2.92-18.31c3.81,5.18,5.37,12.12,3.84,18.54
						c-1.46,6.49-5.74,11.86-10.51,16.21c-4.95,4.25-10.69,7.47-16.72,9.83C258.49,286.21,252.15,287.67,245.77,288.44z"/>
				</g>
			</g>
			<path class="st10" d="M171.2,222.51v0.12c0,0.55,0.03,1.07,0.08,1.62v0.12c0.05,0.4,0.07,0.77,0.15,1.17
				c0.02,0.17,0.07,0.35,0.1,0.52c0.05,0.47,0.15,0.92,0.27,1.4c0.05,0.27,0.15,0.55,0.22,0.8c0.07,0.27,0.17,0.55,0.25,0.8
				c0.15,0.45,0.3,0.9,0.5,1.35c0.15,0.4,0.32,0.8,0.52,1.2c0.15,0.35,0.32,0.67,0.52,1.02c0.25,0.47,0.52,0.95,0.82,1.42
				c0.3,0.5,0.62,0.97,0.97,1.45c0.32,0.45,0.67,0.9,1.02,1.35c0.3,0.4,0.62,0.77,1,1.17c0.15,0.2,0.35,0.4,0.52,0.6
				c0.25,0.27,0.5,0.52,0.8,0.8c0.67,0.72,1.45,1.42,2.25,2.07c0.42,0.37,0.85,0.72,1.3,1.07c0.57,0.47,1.17,0.92,1.8,1.35
				c0.57,0.4,1.15,0.8,1.75,1.17c0.72,0.47,1.47,0.95,2.27,1.4c22.83,13.2,59.86,13.2,82.69,0c0.8-0.45,1.55-0.92,2.27-1.4
				c0.6-0.37,1.17-0.77,1.75-1.17c0.62-0.42,1.22-0.87,1.8-1.35c0.45-0.35,0.87-0.7,1.3-1.07c0.8-0.65,1.57-1.35,2.25-2.07
				c0.3-0.27,0.55-0.52,0.8-0.8c0.17-0.2,0.37-0.4,0.52-0.6c0.37-0.4,0.7-0.77,1-1.17c0.35-0.45,0.7-0.9,1.02-1.35
				c0.35-0.47,0.67-0.95,0.97-1.45c0.3-0.47,0.57-0.95,0.82-1.42c0.2-0.35,0.37-0.67,0.52-1.02c0.2-0.4,0.37-0.8,0.52-1.2
				c0.2-0.45,0.35-0.9,0.5-1.35c0.07-0.25,0.17-0.52,0.25-0.8c0.07-0.25,0.17-0.52,0.22-0.8c0.12-0.47,0.22-0.92,0.27-1.4
				c0.02-0.17,0.07-0.35,0.1-0.52c0.08-0.4,0.1-0.77,0.15-1.17v-0.12c0.05-0.55,0.07-1.07,0.07-1.62c0-4.34-1.42-8.66-4.27-12.73
				c-0.37-0.52-0.77-1.02-1.15-1.5c-0.4-0.5-0.82-1-1.27-1.47v-0.02c-0.45-0.47-0.92-0.95-1.4-1.42c-0.4-0.4-0.8-0.77-1.22-1.15
				c-0.1-0.1-0.2-0.2-0.32-0.27c-0.02-0.05-0.07-0.07-0.12-0.12c-0.5-0.42-1-0.85-1.55-1.27c-0.57-0.45-1.17-0.9-1.8-1.35
				c-1.25-0.87-2.6-1.75-4.02-2.57c-22.83-13.18-59.86-13.18-82.69,0c-1.42,0.82-2.75,1.67-3.99,2.55c0,0.02-0.03,0.02-0.03,0.02
				c-0.62,0.45-1.22,0.9-1.8,1.35c-0.07,0.05-0.15,0.12-0.22,0.17c-0.42,0.32-0.82,0.67-1.2,1c-0.1,0.07-0.17,0.15-0.25,0.22
				c-0.2,0.15-0.37,0.32-0.55,0.47c-0.17,0.17-0.35,0.32-0.52,0.47c-0.15,0.17-0.32,0.32-0.47,0.47c-0.25,0.25-0.47,0.47-0.7,0.72
				c-0.25,0.22-0.47,0.47-0.7,0.7v0.02c-0.45,0.47-0.87,0.97-1.27,1.47c-0.27,0.35-0.57,0.72-0.85,1.12c-0.1,0.12-0.2,0.25-0.3,0.4
				c-0.35,0.5-0.67,1-0.97,1.52h-0.02c0,0,0,0,0,0.02c-0.15,0.25-0.3,0.5-0.42,0.75c-0.15,0.25-0.3,0.52-0.42,0.77
				c-0.25,0.45-0.45,0.92-0.65,1.37c-0.02,0.07-0.08,0.15-0.1,0.22c-0.07,0.2-0.15,0.37-0.22,0.57c-0.1,0.22-0.2,0.47-0.27,0.72
				c-0.03,0.1-0.08,0.2-0.1,0.3c-0.07,0.2-0.12,0.4-0.17,0.6c-0.07,0.15-0.12,0.3-0.15,0.47c-0.1,0.35-0.2,0.7-0.25,1.05
				c-0.1,0.37-0.17,0.77-0.25,1.17c-0.07,0.5-0.15,1-0.17,1.5v0.02C171.22,221.51,171.2,222.01,171.2,222.51z M178.04,229.69
				c-4.12-9.98,0.6-20.94,14.1-28.75c20.74-11.95,54.35-11.95,75.06,0c13.5,7.81,18.22,18.76,14.1,28.75
				c-2.17,5.34-6.89,10.43-14.1,14.6c-20.71,11.98-54.32,11.98-75.06,0C184.92,240.12,180.21,235.03,178.04,229.69z"/>
		</g>
		<g>
			<path class="st21" d="M178.04,229.69c-4.12-9.98,0.6-20.94,14.1-28.75c20.74-11.95,54.35-11.95,75.06,0
				c13.5,7.81,18.22,18.76,14.1,28.75c-2.17,5.34-6.89,10.43-14.1,14.6c-20.71,11.98-54.32,11.98-75.06,0
				C184.92,240.12,180.21,235.03,178.04,229.69z"/>
			<path class="st22" d="M267.19,209.01c-20.71-11.95-54.32-11.95-75.06,0c-8.57,4.96-13.6,11.19-15.07,17.63
				c0.24,1.03,0.56,2.05,0.97,3.06c2.17,5.34,6.89,10.43,14.1,14.6c20.74,11.98,54.35,11.98,75.06,0c7.21-4.17,11.93-9.26,14.1-14.6
				c0.42-1.01,0.74-2.03,0.97-3.06C280.79,220.19,275.77,213.97,267.19,209.01z"/>
		</g>
		<g>
			<path class="st21" d="M263,231.26c-3.01-1.74-7.89-1.74-10.9,0c-1.51,0.87-2.25,2.01-2.25,3.15c0,0.22,0,3.31,0,3.53
				c0,1.14,0.74,2.28,2.25,3.15c3.01,1.74,7.89,1.74,10.9,0c1.51-0.87,2.25-2.01,2.25-3.15c0-0.22,0-3.31,0-3.53
				C265.25,233.26,264.5,232.13,263,231.26z"/>
			<path class="st10" d="M252.09,231.26c3.01-1.74,7.89-1.74,10.9,0s3.01,4.56,0,6.29c-3.01,1.74-7.89,1.74-10.9,0
				C249.08,235.81,249.08,232.99,252.09,231.26z"/>
		</g>
		<g>
			<g>
				
					<ellipse transform="matrix(0.2298 -0.9732 0.9732 0.2298 -142.1547 476.0185)" class="st4" cx="229.66" cy="327.82" rx="26.06" ry="26.06"/>
				<path class="st3" d="M229.66,354.97c-14.97,0-27.15-12.18-27.15-27.15c0-14.97,12.18-27.15,27.15-27.15
					c14.97,0,27.16,12.18,27.16,27.15C256.82,342.79,244.63,354.97,229.66,354.97z M229.66,302.85c-13.77,0-24.97,11.2-24.97,24.97
					c0,13.77,11.2,24.97,24.97,24.97c13.77,0,24.97-11.2,24.97-24.97C254.63,314.05,243.43,302.85,229.66,302.85z"/>
			</g>
			<g>
				<g>
					<path class="st3" d="M223.62,319.74c-1.55-1.55-2.51-3.69-2.51-6.05c0-2.87,1.41-5.41,3.58-6.96
						c-3.58,1.81-6.04,5.53-6.04,9.82c0,2.29,0.7,4.41,1.89,6.17c-2.12-0.15-4.31,0.31-6.29,1.45c-3.72,2.14-5.71,6.13-5.48,10.14
						c0.26-2.65,1.75-5.15,4.23-6.58c2.04-1.18,4.38-1.42,6.49-0.85c1.9,0.51,3.63,1.68,4.82,3.4l2.67-1.54
						c-0.07-0.24-0.1-0.49-0.1-0.75c0-1.3,0.89-2.38,2.09-2.69v-3.08C226.89,322.05,225.02,321.13,223.62,319.74z M237.76,342.53
						c-2.05-1.18-3.42-3.08-3.98-5.19c-0.51-1.91-0.36-3.99,0.54-5.88l-2.67-1.54c-0.5,0.52-1.21,0.84-1.98,0.84
						c-0.78,0-1.48-0.32-1.98-0.84l-2.67,1.54c0.9,1.89,1.05,3.97,0.54,5.88c-0.56,2.12-1.94,4.01-3.98,5.19
						c-2.49,1.44-5.39,1.48-7.82,0.37c3.36,2.2,7.81,2.47,11.52,0.32c1.98-1.14,3.47-2.81,4.39-4.72c0.93,1.91,2.42,3.58,4.4,4.72
						c3.72,2.15,8.16,1.88,11.52-0.32C243.15,344,240.24,343.96,237.76,342.53z M245.06,324.16c-1.98-1.14-4.17-1.6-6.29-1.45
						c1.19-1.76,1.89-3.88,1.89-6.17c0-4.29-2.46-8.01-6.04-9.82c2.17,1.55,3.58,4.09,3.58,6.96c0,2.36-0.96,4.5-2.51,6.05
						c-1.39,1.39-3.27,2.31-5.35,2.47v3.08c1.2,0.3,2.09,1.39,2.09,2.69c0,0.26-0.04,0.52-0.1,0.75l2.67,1.54
						c1.18-1.72,2.91-2.89,4.82-3.4c2.12-0.57,4.45-0.33,6.49,0.85c2.49,1.44,3.98,3.93,4.23,6.58
						C250.76,330.3,248.77,326.31,245.06,324.16z"/>
				</g>
				<g>
					<g>
						<g>
							<g>
								<g>
									<g>
										<path class="st3" d="M229.66,317.08c-1.99,0-3.9,0.53-5.59,1.54c0.1,0.12,0.21,0.23,0.32,0.34
											c0.23,0.23,0.47,0.44,0.72,0.63c1.39-0.76,2.93-1.15,4.54-1.15c1.61,0,3.16,0.39,4.54,1.15c0.25-0.19,0.49-0.41,0.72-0.63
											c0.11-0.11,0.22-0.23,0.32-0.34C233.56,317.61,231.65,317.08,229.66,317.08z M240.56,327.82
											c-0.15,0.03-0.31,0.07-0.46,0.11c-0.31,0.08-0.62,0.19-0.91,0.31c-0.09,3.24-1.82,6.2-4.54,7.87
											c0.04,0.32,0.1,0.63,0.19,0.95c0.04,0.15,0.08,0.3,0.14,0.45c3.43-1.91,5.59-5.54,5.59-9.52
											C240.56,327.93,240.56,327.87,240.56,327.82z M220.13,328.23c-0.3-0.12-0.6-0.23-0.91-0.31c-0.15-0.04-0.3-0.08-0.46-0.11
											c0,0.05,0,0.11,0,0.16c0,3.98,2.16,7.61,5.59,9.52c0.05-0.15,0.09-0.3,0.13-0.45c0.08-0.31,0.15-0.63,0.19-0.95
											C221.95,334.43,220.22,331.48,220.13,328.23z"/>
									</g>
								</g>
							</g>
						</g>
					</g>
				</g>
			</g>
		</g>
	</g>
	<g id="Barrel_4_">
		<g>
			<path class="st8" d="M65.33,266.79V405.7c0,8.63,5.71,17.27,17.12,23.86c22.83,13.2,59.86,13.2,82.69,0
				c0.72-0.4,1.4-0.82,2.07-1.25c1.35-0.85,2.59-1.75,3.74-2.65c0.57-0.47,1.15-0.92,1.67-1.4c0.55-0.47,1.05-0.95,1.55-1.42
				c0.42-0.42,0.85-0.85,1.22-1.27c0.45-0.47,0.87-0.95,1.25-1.42c0.3-0.37,0.6-0.75,0.87-1.12c0.27-0.37,0.55-0.72,0.77-1.1
				c0.52-0.77,1-1.55,1.4-2.32c0.12-0.22,0.25-0.42,0.32-0.65c0.25-0.47,0.47-0.95,0.65-1.42c0.2-0.47,0.37-0.92,0.52-1.4
				c0.15-0.42,0.27-0.87,0.4-1.32c0.17-0.62,0.3-1.25,0.4-1.87c0.1-0.55,0.17-1.1,0.2-1.62c0.05-0.55,0.07-1.07,0.07-1.62V266.92
				c0-4.34-1.42-8.66-4.27-12.73c-0.37-0.52-0.77-1.02-1.15-1.5c-0.4-0.5-0.82-1-1.27-1.47v-0.02c-0.45-0.47-0.92-0.95-1.4-1.42
				c0,0,0,0,0-0.02c-0.4-0.37-0.8-0.77-1.22-1.12c-0.1-0.1-0.2-0.2-0.32-0.27v-0.02c-0.02-0.02-0.07-0.07-0.12-0.1
				c-0.5-0.42-1-0.85-1.55-1.27c-0.57-0.45-1.17-0.9-1.8-1.35s-1.27-0.9-1.95-1.32c-0.67-0.45-1.35-0.87-2.07-1.27
				c-22.83-13.18-59.86-13.18-82.69,0c-1.42,0.82-2.75,1.67-3.99,2.57c0,0.02-0.02,0.02-0.02,0.02c-0.62,0.45-1.22,0.9-1.8,1.35
				c-0.07,0.05-0.15,0.12-0.22,0.17c-0.42,0.32-0.82,0.67-1.2,1c-0.07,0.05-0.15,0.12-0.25,0.2v0.02c-0.2,0.15-0.37,0.32-0.55,0.47
				c-0.17,0.17-0.35,0.32-0.52,0.47c-0.15,0.15-0.3,0.3-0.45,0.42c-0.03,0.03-0.03,0.05-0.03,0.05c-0.25,0.25-0.47,0.47-0.7,0.72
				c-0.25,0.22-0.47,0.47-0.7,0.7v0.02c-0.45,0.47-0.87,0.97-1.27,1.47c-0.27,0.35-0.57,0.72-0.85,1.12c-0.1,0.12-0.2,0.25-0.3,0.4
				c-0.35,0.5-0.67,1-0.97,1.52c-0.02,0-0.02,0-0.02,0.03c-0.15,0.25-0.3,0.5-0.42,0.75c-0.15,0.25-0.3,0.52-0.42,0.77
				c-0.25,0.45-0.45,0.92-0.65,1.37c-0.02,0.07-0.08,0.15-0.1,0.22c-0.07,0.2-0.15,0.37-0.22,0.57c-0.1,0.22-0.2,0.47-0.27,0.72
				c-0.03,0.1-0.08,0.2-0.1,0.3c-0.07,0.2-0.12,0.4-0.17,0.6c-0.07,0.15-0.12,0.3-0.15,0.47c-0.1,0.35-0.2,0.7-0.25,1.05
				c-0.1,0.37-0.17,0.77-0.25,1.17c-0.07,0.5-0.15,1-0.17,1.5v0.02C65.35,265.79,65.33,266.29,65.33,266.79z"/>
			<path class="st20" d="M65.31,356.74l0.02-44.21c0-0.01-0.01-0.01-0.02-0.02c-3.33-4.78-5.09-10.03-5.09-15.5
				c0-5.37,1.7-10.56,5.09-15.42l0.02-14.67c0,0.55,0.03,1.07,0.08,1.62v0.12c0.05,0.4,0.07,0.77,0.15,1.17
				c0.02,0.17,0.07,0.35,0.1,0.52c0.05,0.47,0.15,0.92,0.27,1.4c0.05,0.27,0.15,0.55,0.22,0.8c0.07,0.27,0.17,0.55,0.25,0.8
				c0.15,0.45,0.3,0.9,0.5,1.35c0.15,0.4,0.32,0.8,0.52,1.2c0.15,0.35,0.32,0.67,0.52,1.02c0.25,0.47,0.52,0.95,0.82,1.42
				c0.3,0.5,0.62,0.97,0.97,1.45c0.32,0.45,0.67,0.9,1.02,1.35c0.3,0.4,0.62,0.77,1,1.17c0.15,0.2,0.35,0.4,0.52,0.6
				c0.25,0.27,0.5,0.52,0.8,0.8c0.67,0.72,1.45,1.42,2.25,2.07c0.42,0.37,0.85,0.72,1.3,1.07c0.57,0.47,1.17,0.92,1.8,1.35
				c0.57,0.4,1.15,0.8,1.75,1.17c0.72,0.47,1.47,0.95,2.27,1.4c1.21,0.7,2.49,1.35,3.78,1.97c0,32.35,0,75.85,0,89.27
				c0,15.29-0.64,33.95,12.81,45.37c13.45,11.43,44.34,13.83,69.7-0.1l0,0c-0.5,0.35-1,0.69-1.53,1.02
				c-0.67,0.42-1.35,0.85-2.07,1.25c-22.83,13.2-59.86,13.2-82.69,0c-11.4-6.59-17.12-15.22-17.12-23.86v-18.03
				c0-0.01-0.01-0.01-0.02-0.02c-3.33-4.78-5.09-10.03-5.09-15.5C60.22,366.79,61.93,361.6,65.31,356.74z"/>
			<path class="st13" d="M167.69,328.64c-11.81,6.82-27.38,10.59-43.9,10.59c-16.49,0-32.09-3.77-43.9-10.59
				c-6.33-3.66-11.23-7.98-14.57-12.75v-15.33c0.08,8.59,5.79,17.14,17.11,23.68c11.43,6.59,26.39,9.9,41.35,9.9
				c14.96,0,29.92-3.31,41.35-9.9c11.39-6.57,17.09-15.17,17.12-23.8v15.46C178.93,320.68,174.02,324.98,167.69,328.64z"/>
			<path class="st13" d="M167.69,403.98c-11.81,6.82-27.38,10.59-43.9,10.59c-16.49,0-32.09-3.77-43.9-10.59
				c-6.33-3.66-11.23-7.98-14.57-12.75v-15.33c0.08,8.59,5.79,17.14,17.11,23.68c11.43,6.59,26.39,9.9,41.35,9.9
				c14.96,0,29.92-3.31,41.35-9.9c11.39-6.57,17.09-15.17,17.12-23.8v15.46C178.93,396.02,174.02,400.32,167.69,403.98z"/>
			<path class="st16" d="M176.4,400.47c0,7.58,0.44,16.24-13.22,25.23c-12.98,8.55-29.78,11.09-52.25,7.91
				c15.66,0.31,25.29,1.18,41.97-7.6c13.67-7.19,12.24-18.82,12.24-18.82L176.4,400.47z"/>
			<path class="st16" d="M135.16,401.88c13.66-1.2,32.11-7.33,41.23-18.32v-95.78c-10.57,9.63-27.57,14.99-41.23,16.19V401.88z"/>
			<g>
				<g>
					<path class="st10" d="M187.36,372.16c0,5.47-1.76,10.71-5.09,15.52c-3.33,4.78-8.24,9.08-14.58,12.75
						c-11.81,6.82-27.38,10.59-43.9,10.59c-16.49,0-32.09-3.77-43.9-10.59c-6.34-3.66-11.25-7.99-14.58-12.77
						c-3.33-4.78-5.09-10.03-5.09-15.5c0-5.37,1.7-10.56,5.09-15.42v15.42c0,8.65,5.73,17.28,17.13,23.87
						c11.43,6.59,26.39,9.9,41.35,9.9c14.96,0,29.93-3.31,41.35-9.9c11.43-6.59,17.13-15.22,17.13-23.87v-15.45
						C185.65,361.6,187.36,366.79,187.36,372.16z"/>
				</g>
				<path class="st20" d="M86.22,398L86.22,398c-1.29-0.63-2.56-1.29-3.78-2c-11.4-6.59-17.13-15.22-17.13-23.87v-15.42
					c-3.38,4.86-5.09,10.05-5.09,15.42c0,5.47,1.76,10.71,5.09,15.5c3.33,4.78,8.24,9.11,14.58,12.77c1.99,1.15,4.09,2.2,6.27,3.17
					C83.73,402.33,84.43,397.79,86.22,398z"/>
				<g>
					<path class="st8" d="M139.9,407.87c6.31-1.24,12.5-3.01,18.4-5.47c5.87-2.5,11.48-5.67,16.25-9.87
						c4.72-4.15,8.82-9.36,10.42-15.49c1.61-6.08,0.52-12.89-2.92-18.31c3.81,5.18,5.37,12.12,3.84,18.54
						c-1.46,6.49-5.74,11.86-10.51,16.21c-4.95,4.25-10.69,7.47-16.72,9.83C152.62,405.65,146.28,407.11,139.9,407.87z"/>
				</g>
			</g>
			<g>
				<g>
					<path class="st10" d="M187.36,297.01c0,5.47-1.76,10.71-5.09,15.52c-3.33,4.78-8.24,9.08-14.58,12.75
						c-11.81,6.82-27.38,10.59-43.9,10.59c-16.49,0-32.09-3.77-43.9-10.59c-6.34-3.66-11.25-7.99-14.58-12.77
						c-3.33-4.78-5.09-10.03-5.09-15.5c0-5.37,1.7-10.56,5.09-15.42v15.42c0,8.65,5.73,17.28,17.13,23.87
						c11.43,6.59,26.39,9.9,41.35,9.9c14.96,0,29.93-3.31,41.35-9.9c11.43-6.59,17.13-15.22,17.13-23.87v-15.45
						C185.65,286.45,187.36,291.64,187.36,297.01z"/>
				</g>
				<path class="st20" d="M86.22,322.87L86.22,322.87c-1.29-0.63-2.56-1.29-3.78-2c-11.4-6.59-17.13-15.22-17.13-23.87v-15.42
					c-3.38,4.86-5.09,10.05-5.09,15.42c0,5.47,1.76,10.71,5.09,15.5c3.33,4.78,8.24,9.11,14.58,12.77c1.99,1.15,4.09,2.2,6.27,3.17
					C83.73,327.21,84.43,322.67,86.22,322.87z"/>
				<g>
					<path class="st8" d="M139.9,332.72c6.31-1.24,12.5-3.01,18.4-5.47c5.87-2.5,11.48-5.67,16.25-9.87
						c4.72-4.15,8.82-9.36,10.42-15.49c1.61-6.08,0.52-12.89-2.92-18.31c3.81,5.18,5.37,12.12,3.84,18.54
						c-1.46,6.49-5.74,11.86-10.51,16.21c-4.95,4.25-10.69,7.47-16.72,9.83C152.62,330.5,146.28,331.96,139.9,332.72z"/>
				</g>
			</g>
			<path class="st10" d="M65.33,266.79v0.12c0,0.55,0.03,1.07,0.08,1.62v0.12c0.05,0.4,0.07,0.77,0.15,1.17
				c0.02,0.17,0.07,0.35,0.1,0.52c0.05,0.47,0.15,0.92,0.27,1.4c0.05,0.27,0.15,0.55,0.22,0.8c0.07,0.27,0.17,0.55,0.25,0.8
				c0.15,0.45,0.3,0.9,0.5,1.35c0.15,0.4,0.32,0.8,0.52,1.2c0.15,0.35,0.32,0.67,0.52,1.02c0.25,0.47,0.52,0.95,0.82,1.42
				c0.3,0.5,0.62,0.97,0.97,1.45c0.32,0.45,0.67,0.9,1.02,1.35c0.3,0.4,0.62,0.77,1,1.17c0.15,0.2,0.35,0.4,0.52,0.6
				c0.25,0.27,0.5,0.52,0.8,0.8c0.67,0.72,1.45,1.42,2.25,2.07c0.42,0.37,0.85,0.72,1.3,1.07c0.57,0.47,1.17,0.92,1.8,1.35
				c0.57,0.4,1.15,0.8,1.75,1.17c0.72,0.47,1.47,0.95,2.27,1.4c22.83,13.2,59.86,13.2,82.69,0c0.8-0.45,1.55-0.92,2.27-1.4
				c0.6-0.37,1.17-0.77,1.75-1.17c0.62-0.42,1.22-0.87,1.8-1.35c0.45-0.35,0.87-0.7,1.3-1.07c0.8-0.65,1.57-1.35,2.25-2.07
				c0.3-0.27,0.55-0.52,0.8-0.8c0.17-0.2,0.37-0.4,0.52-0.6c0.37-0.4,0.7-0.77,1-1.17c0.35-0.45,0.7-0.9,1.02-1.35
				c0.35-0.47,0.67-0.95,0.97-1.45c0.3-0.47,0.57-0.95,0.82-1.42c0.2-0.35,0.37-0.67,0.52-1.02c0.2-0.4,0.37-0.8,0.52-1.2
				c0.2-0.45,0.35-0.9,0.5-1.35c0.07-0.25,0.17-0.52,0.25-0.8c0.07-0.25,0.17-0.52,0.22-0.8c0.12-0.47,0.22-0.92,0.27-1.4
				c0.02-0.17,0.07-0.35,0.1-0.52c0.08-0.4,0.1-0.77,0.15-1.17v-0.12c0.05-0.55,0.07-1.07,0.07-1.62c0-4.34-1.42-8.66-4.27-12.73
				c-0.37-0.52-0.77-1.02-1.15-1.5c-0.4-0.5-0.82-1-1.27-1.47v-0.02c-0.45-0.47-0.92-0.95-1.4-1.42c-0.4-0.4-0.8-0.77-1.22-1.15
				c-0.1-0.1-0.2-0.2-0.32-0.27c-0.02-0.05-0.07-0.07-0.12-0.12c-0.5-0.42-1-0.85-1.55-1.27c-0.57-0.45-1.17-0.9-1.8-1.35
				c-1.25-0.87-2.6-1.75-4.02-2.57c-22.83-13.18-59.86-13.18-82.69,0c-1.42,0.82-2.75,1.67-3.99,2.55c0,0.02-0.02,0.02-0.02,0.02
				c-0.62,0.45-1.22,0.9-1.8,1.35c-0.07,0.05-0.15,0.12-0.22,0.17c-0.42,0.32-0.82,0.67-1.2,1c-0.1,0.07-0.17,0.15-0.25,0.22
				c-0.2,0.15-0.37,0.32-0.55,0.47c-0.17,0.17-0.35,0.32-0.52,0.47c-0.15,0.17-0.32,0.32-0.47,0.47c-0.25,0.25-0.47,0.47-0.7,0.72
				c-0.25,0.22-0.47,0.47-0.7,0.7v0.02c-0.45,0.47-0.87,0.97-1.27,1.47c-0.27,0.35-0.57,0.72-0.85,1.12c-0.1,0.12-0.2,0.25-0.3,0.4
				c-0.35,0.5-0.67,1-0.97,1.52H68.6c0,0,0,0,0,0.03c-0.15,0.25-0.3,0.5-0.42,0.75c-0.15,0.25-0.3,0.52-0.42,0.77
				c-0.25,0.45-0.45,0.92-0.65,1.37c-0.02,0.07-0.08,0.15-0.1,0.22c-0.07,0.2-0.15,0.37-0.22,0.57c-0.1,0.22-0.2,0.47-0.27,0.72
				c-0.03,0.1-0.08,0.2-0.1,0.3c-0.07,0.2-0.12,0.4-0.17,0.6c-0.07,0.15-0.12,0.3-0.15,0.47c-0.1,0.35-0.2,0.7-0.25,1.05
				c-0.1,0.37-0.17,0.77-0.25,1.17c-0.07,0.5-0.15,1-0.17,1.5v0.02C65.35,265.79,65.33,266.29,65.33,266.79z M72.17,273.98
				c-4.12-9.98,0.6-20.94,14.1-28.75c20.74-11.95,54.35-11.95,75.06,0c13.5,7.81,18.22,18.76,14.1,28.75
				c-2.17,5.34-6.89,10.43-14.1,14.6c-20.71,11.98-54.32,11.98-75.06,0C79.05,284.41,74.34,279.32,72.17,273.98z"/>
		</g>
		<g>
			<path class="st21" d="M72.17,273.98c-4.12-9.98,0.6-20.94,14.1-28.75c20.74-11.95,54.35-11.95,75.06,0
				c13.5,7.81,18.22,18.76,14.1,28.75c-2.17,5.34-6.89,10.43-14.1,14.6c-20.71,11.98-54.32,11.98-75.06,0
				C79.05,284.41,74.34,279.32,72.17,273.98z"/>
			<path class="st22" d="M161.32,253.29c-20.71-11.95-54.32-11.95-75.06,0c-8.57,4.96-13.6,11.19-15.07,17.63
				c0.24,1.03,0.56,2.05,0.97,3.06c2.17,5.34,6.89,10.43,14.1,14.6c20.74,11.98,54.35,11.98,75.06,0c7.21-4.17,11.93-9.26,14.1-14.6
				c0.42-1.01,0.74-2.03,0.97-3.06C174.92,264.48,169.9,258.25,161.32,253.29z"/>
		</g>
		<g>
			<path class="st21" d="M110.7,252.26c-3.01-1.74-7.89-1.74-10.9,0c-1.51,0.87-2.25,2.01-2.25,3.15c0,0.22,0,3.31,0,3.53
				c0,1.14,0.74,2.28,2.25,3.15c3.01,1.74,7.89,1.74,10.9,0c1.51-0.87,2.25-2.01,2.25-3.15c0-0.22,0-3.31,0-3.53
				C112.95,254.27,112.2,253.13,110.7,252.26z"/>
			<path class="st10" d="M99.8,252.26c3.01-1.74,7.89-1.74,10.9,0c3.01,1.74,3.01,4.56,0,6.29c-3.01,1.74-7.89,1.74-10.9,0
				C96.78,256.81,96.79,254,99.8,252.26z"/>
		</g>
		<g>
			<g>
				
					<ellipse transform="matrix(0.2298 -0.9732 0.9732 0.2298 -266.8028 407.0918)" class="st4" cx="123.79" cy="372.11" rx="26.06" ry="26.06"/>
				<path class="st3" d="M123.79,399.26c-14.97,0-27.15-12.18-27.15-27.15c0-14.97,12.18-27.15,27.15-27.15
					c14.97,0,27.16,12.18,27.16,27.15C150.95,387.08,138.76,399.26,123.79,399.26z M123.79,347.14c-13.77,0-24.97,11.2-24.97,24.97
					c0,13.77,11.2,24.97,24.97,24.97c13.77,0,24.97-11.2,24.97-24.97C148.76,358.34,137.56,347.14,123.79,347.14z"/>
			</g>
			<g>
				<g>
					<path class="st3" d="M117.75,364.02c-1.55-1.55-2.51-3.69-2.51-6.05c0-2.87,1.41-5.41,3.58-6.96
						c-3.58,1.81-6.04,5.53-6.04,9.82c0,2.29,0.7,4.41,1.89,6.17c-2.12-0.15-4.31,0.31-6.29,1.45c-3.72,2.14-5.71,6.13-5.48,10.14
						c0.26-2.65,1.75-5.15,4.23-6.58c2.04-1.18,4.38-1.42,6.49-0.85c1.9,0.51,3.63,1.68,4.82,3.4l2.67-1.54
						c-0.07-0.24-0.1-0.49-0.1-0.75c0-1.3,0.89-2.38,2.09-2.69v-3.08C121.02,366.33,119.15,365.42,117.75,364.02z M131.89,386.81
						c-2.04-1.18-3.42-3.08-3.98-5.19c-0.51-1.91-0.36-3.99,0.54-5.88l-2.67-1.54c-0.5,0.52-1.21,0.84-1.98,0.84
						c-0.78,0-1.48-0.32-1.98-0.84l-2.67,1.54c0.9,1.89,1.05,3.97,0.54,5.88c-0.56,2.12-1.94,4.01-3.98,5.19
						c-2.49,1.44-5.39,1.48-7.82,0.37c3.36,2.2,7.81,2.47,11.52,0.32c1.98-1.14,3.47-2.81,4.39-4.72c0.93,1.91,2.42,3.58,4.4,4.72
						c3.72,2.15,8.16,1.88,11.52-0.32C137.28,388.29,134.37,388.25,131.89,386.81z M139.19,368.45c-1.98-1.14-4.17-1.6-6.29-1.45
						c1.19-1.76,1.89-3.88,1.89-6.17c0-4.29-2.46-8.01-6.04-9.82c2.17,1.55,3.58,4.09,3.58,6.96c0,2.36-0.96,4.5-2.51,6.05
						c-1.39,1.39-3.27,2.31-5.35,2.47v3.08c1.2,0.3,2.09,1.39,2.09,2.69c0,0.26-0.04,0.52-0.1,0.75l2.67,1.54
						c1.18-1.72,2.91-2.89,4.82-3.4c2.12-0.57,4.45-0.33,6.49,0.85c2.49,1.44,3.98,3.93,4.23,6.58
						C144.89,374.58,142.9,370.59,139.19,368.45z"/>
				</g>
				<g>
					<g>
						<g>
							<g>
								<g>
									<g>
										<path class="st3" d="M123.79,361.37c-1.99,0-3.9,0.53-5.59,1.54c0.1,0.12,0.21,0.23,0.32,0.34
											c0.23,0.23,0.47,0.44,0.72,0.63c1.39-0.76,2.93-1.15,4.54-1.15c1.61,0,3.16,0.39,4.54,1.15c0.25-0.19,0.49-0.41,0.72-0.63
											c0.11-0.11,0.22-0.23,0.32-0.34C127.69,361.89,125.78,361.37,123.79,361.37z M134.69,372.11
											c-0.15,0.03-0.31,0.07-0.46,0.11c-0.31,0.08-0.62,0.19-0.91,0.31c-0.09,3.24-1.82,6.2-4.54,7.87
											c0.04,0.32,0.1,0.63,0.19,0.95c0.04,0.15,0.08,0.3,0.14,0.45c3.43-1.91,5.59-5.54,5.59-9.52
											C134.69,372.21,134.69,372.16,134.69,372.11z M114.26,372.52c-0.3-0.12-0.6-0.23-0.91-0.31c-0.15-0.04-0.3-0.08-0.46-0.11
											c0,0.05,0,0.11,0,0.16c0,3.98,2.16,7.61,5.59,9.52c0.05-0.15,0.09-0.3,0.13-0.45c0.08-0.31,0.15-0.63,0.19-0.95
											C116.08,378.72,114.35,375.76,114.26,372.52z"/>
									</g>
								</g>
							</g>
						</g>
					</g>
				</g>
			</g>
		</g>
	</g>
</g>
<g id="Cone">
	<g id="Cone_2_">
		<g>
			<path class="st4" d="M182.85,427.32l36.86-21.28c0.69-0.4,1.58-0.59,2.47-0.59c0.89,0,1.8,0.19,2.48,0.59l36.85,21.28
				c0.69,0.4,1.02,0.91,1.02,1.43v2.69c0,0.51-0.33,1.03-1.02,1.43l-36.85,21.27c-0.69,0.4-1.59,0.59-2.48,0.59
				c-0.89,0-1.78-0.19-2.47-0.59l-36.86-21.27c-0.69-0.4-1.02-0.92-1.02-1.43v-2.69C181.83,428.23,182.16,427.72,182.85,427.32z"/>
			<path class="st13" d="M181.83,428.75v2.69c0,0.51,0.33,1.03,1.02,1.43l36.86,21.27c0.69,0.4,1.58,0.59,2.47,0.59v-49.29
				c-0.89,0-1.78,0.19-2.47,0.59l-36.86,21.28C182.16,427.72,181.83,428.23,181.83,428.75z"/>
			<path class="st20" d="M222.18,405.44v49.29c0.89,0,1.8-0.19,2.48-0.59l36.85-21.27c0.69-0.4,1.02-0.92,1.02-1.43v-2.69
				c0-0.51-0.33-1.03-1.02-1.43l-36.85-21.28C223.97,405.63,223.07,405.44,222.18,405.44z"/>
			<path class="st4" d="M224.65,451.46l36.86-21.28c1.37-0.79,1.37-2.07,0-2.86l-36.86-21.28c-1.37-0.79-3.58-0.79-4.95,0
				l-36.86,21.28c-1.37,0.79-1.37,2.07,0,2.86l36.86,21.28C221.07,452.25,223.29,452.25,224.65,451.46z"/>
			<path class="st9" d="M224.65,451.46l36.86-21.28c1.37-0.79,1.37-2.07,0-2.86l-36.86-21.28c-1.37-0.79-3.58-0.79-4.95,0
				l-36.86,21.28c-1.37,0.79-1.37,2.07,0,2.86l36.86,21.28C221.07,452.25,223.29,452.25,224.65,451.46z"/>
			<path class="st23" d="M222.18,405.45c0.9,0,1.79,0.2,2.48,0.59l36.86,21.28c1.37,0.79,1.37,2.07,0,2.86l-36.86,21.28
				c-0.68,0.39-1.58,0.59-2.48,0.59V405.45z"/>
		</g>
		<path class="st4" d="M199.43,426.07L199.43,426.07l16.3-48.99c0-0.01,0.01-0.02,0.01-0.03l0.02-0.05h0.01
			c0.25-0.7,0.84-1.36,1.77-1.9c2.57-1.48,6.73-1.48,9.29,0c0.93,0.54,1.52,1.2,1.77,1.9h0.01l0.02,0.05c0,0,0,0.01,0,0.01l16.31,49
			h-0.01c1.5,4.26-0.6,8.86-6.33,12.17c-9.07,5.24-23.78,5.24-32.85,0C200.03,434.93,197.93,430.33,199.43,426.07z"/>
		<g>
			<path class="st15" d="M211.05,391.12l0.02-0.05l2.32-6.96c-0.39,1.18-0.04,2.43,1.01,3.5c0.39,0.4,0.87,0.77,1.45,1.11
				c3.5,2.02,9.16,2.02,12.66,0c0.58-0.34,1.06-0.71,1.45-1.11c1.06-1.08,1.4-2.33,1.01-3.52l2.32,6.98l0.01,0.04
				c0.38,1.17,0.21,2.38-0.51,3.5c-0.55,0.86-1.41,1.66-2.6,2.35c-0.84,0.49-1.81,0.85-2.81,1.15c-3.26,0.98-7.13,0.98-10.39,0
				c-1.01-0.3-1.97-0.67-2.81-1.15c-1.19-0.69-2.05-1.5-2.6-2.35C210.84,393.5,210.67,392.29,211.05,391.12z"/>
			<path class="st15" d="M201.7,419.19l0.01-0.05l2.32-6.97c-0.38,1.16-0.41,2.34-0.13,3.5c0.3,1.22,0.94,2.41,1.97,3.52
				c0.84,0.91,1.92,1.76,3.24,2.53c7.21,4.16,18.91,4.16,26.12,0c1.33-0.77,2.4-1.62,3.24-2.53c1.03-1.11,1.67-2.3,1.97-3.52
				c0.28-1.16,0.25-2.34-0.13-3.5l2.31,6.95l0.02,0.07c0.38,1.16,0.46,2.34,0.25,3.51c-0.47,2.65-2.47,5.23-5.99,7.27
				c-8.14,4.7-21.34,4.7-29.48,0c-3.52-2.03-5.51-4.61-5.99-7.27C201.24,421.54,201.32,420.35,201.7,419.19z"/>
			<path class="st15" d="M206.38,405.16l0.02-0.05l2.32-6.97c-0.38,1.16-0.3,2.36,0.22,3.5c0.58,1.28,1.73,2.5,3.45,3.51
				c0.04,0.02,0.07,0.05,0.1,0.07c5.35,3.09,14.03,3.09,19.39,0c0.04-0.02,0.07-0.05,0.1-0.07c1.72-1.01,2.86-2.23,3.45-3.51
				c0.52-1.15,0.6-2.34,0.22-3.5l2.32,6.97l0.02,0.05c0.38,1.16,0.38,2.36-0.01,3.52c-0.41,1.23-1.27,2.42-2.55,3.49
				c-0.55,0.46-1.16,0.9-1.86,1.3c-1.8,1.04-3.92,1.77-6.18,2.21c-3.37,0.66-7.03,0.66-10.39,0c-2.26-0.44-4.38-1.17-6.18-2.21
				c-0.7-0.41-1.32-0.85-1.86-1.3c-1.28-1.07-2.14-2.26-2.55-3.49C205.99,407.52,205.99,406.32,206.38,405.16z"/>
		</g>
		<path class="st13" d="M222.18,373.99c1.68,0,3.36,0.37,4.65,1.11c0.93,0.54,1.52,1.2,1.77,1.9h0.01l0.02,0.05c0,0,0,0.01,0,0.01
			l16.31,49h-0.01c1.5,4.26-0.6,8.86-6.33,12.17c-4.54,2.62-10.48,3.93-16.42,3.93c0.05-0.01,0.09-0.01,0.14-0.02
			c7.36-1.18,12.32-8.2,11.29-15.58l-6.78-48.77L222.18,373.99z"/>
		<path class="st4" d="M226.82,380.47c2.57-1.48,2.57-3.88,0-5.36c-2.57-1.48-6.73-1.48-9.29,0c-2.57,1.48-2.57,3.88,0,5.36
			C220.1,381.95,224.26,381.95,226.82,380.47z"/>
		<path class="st9" d="M226.82,380.47c2.57-1.48,2.57-3.88,0-5.36c-2.57-1.48-6.73-1.48-9.29,0c-2.57,1.48-2.57,3.88,0,5.36
			C220.1,381.95,224.26,381.95,226.82,380.47z"/>
	</g>
</g>
<g id="Speech_Bubble">
	<g id="Speech_Bubble_9_">
		<g>
			<path class="st4" d="M159.31,34.37c-26.86,0-48.71,21.85-48.71,48.71c0,26.86,21.85,48.7,48.71,48.7
				c26.86,0,48.71-21.84,48.71-48.7C208.03,56.23,186.17,34.37,159.31,34.37z M192.08,113.74l-3.72,3.54
				c-7.83,6.66-17.97,10.7-29.05,10.7c-24.76,0-44.9-20.14-44.9-44.9c0-11.07,4.04-21.21,10.7-29.05l3.54-3.72
				c8.04-7.52,18.81-12.14,30.66-12.14c24.77,0,44.91,20.14,44.91,44.91C204.22,94.93,199.6,105.7,192.08,113.74z"/>
			<path class="st15" d="M204.22,83.09c0,11.84-4.62,22.62-12.14,30.66l-3.72,3.54c-7.83,6.66-17.97,10.7-29.05,10.7
				c-24.76,0-44.9-20.14-44.9-44.9c0-11.07,4.04-21.21,10.7-29.05l3.54-3.72c8.04-7.52,18.81-12.14,30.66-12.14
				C184.08,38.18,204.22,58.32,204.22,83.09z"/>
			<path class="st4" d="M156.68,145.21l-6.24-16.1h17.75l-6.24,16.1C161.02,147.62,157.61,147.62,156.68,145.21z"/>
		</g>
		<g>
			<path class="st3" d="M133.91,104.02c0.63-0.17,1.27-0.08,1.84,0.2c1.67,0.84,3.54,0.99,5.28,0.38l34.75-12.32
				c1.23-0.44,2.1-1.65,2.38-3.11c0-0.01,0-0.02,0-0.02c0.37-1.89,2.01-3.05,3.63-2.58c0.97,0.28,1.67,1.28,1.84,2.45
				c0.14,0.92,0.7,1.68,1.48,1.93c0.88,0.28,1.57,1,1.8,1.97c0.44,1.86-0.53,3.77-2.15,4.24c-0.56,0.16-1.14,0.12-1.66-0.09
				c-2.18-0.87-4.52-1.06-6.73-0.28l-33.19,11.76c-1.42,0.5-2.43,1.89-2.77,3.56c0,0.01,0,0.02-0.01,0.03
				c-0.39,1.88-2.05,3.01-3.66,2.52c-0.97-0.3-1.65-1.31-1.81-2.48c-0.13-0.93-0.68-1.69-1.46-1.95c-0.88-0.29-1.55-1.02-1.77-2
				C131.29,106.36,132.28,104.46,133.91,104.02z"/>
			<path class="st3" d="M176.15,72.56c0-2.51,1.96-3.54,1.96-10.92c0-7.37-6.23-15.08-18.8-15.08c-12.57,0-18.79,7.71-18.79,15.08
				c0,7.38,1.95,8.41,1.95,10.92c0,2.5-3.57,3.97-1.95,7.52c1.62,3.54,4.6,1.86,6.33,3.04c1.72,1.17,2.2,2.71,2.2,5.96
				c0,0,2.76,3.4,10.26,3.4c7.5,0,10.27-3.4,10.27-3.4c0-3.24,0.47-4.78,2.2-5.96c1.73-1.18,4.71,0.5,6.33-3.04
				C179.73,76.53,176.15,75.06,176.15,72.56z M148.1,77.28c-2.9-1.42-3.14-5.19-2.34-6.9c0.79-1.71,3.07-2.58,5.55-2.26
				c3.87,0.49,5.93,3.97,4.55,6.66C154.49,77.48,150.1,78.27,148.1,77.28z M162.36,84.81c-0.83,0.51-2.44-0.08-3.05-2.01
				c-0.6,1.93-2.22,2.52-3.05,2.01c-0.82-0.51-0.64-1.51,0.1-3.11c0.73-1.6,2.95-4.43,2.95-4.43s2.22,2.83,2.96,4.43
				C163.01,83.3,163.19,84.3,162.36,84.81z M170.53,77.28c-2.01,0.98-6.39,0.18-7.77-2.5c-1.38-2.68,0.68-6.17,4.55-6.66
				c2.48-0.32,4.76,0.55,5.55,2.26C173.67,72.1,173.43,75.86,170.53,77.28z"/>
			<path class="st3" d="M184.72,104.02c-0.63-0.17-1.27-0.08-1.84,0.2c-1.67,0.84-3.54,0.99-5.28,0.38l-34.75-12.32
				c-1.23-0.44-2.1-1.65-2.38-3.11c0-0.01,0-0.02,0-0.02c-0.37-1.89-2.01-3.05-3.63-2.58c-0.97,0.28-1.67,1.28-1.84,2.45
				c-0.14,0.93-0.7,1.68-1.48,1.93c-0.88,0.28-1.57,1-1.8,1.97c-0.44,1.86,0.53,3.77,2.15,4.24c0.56,0.16,1.14,0.12,1.66-0.09
				c2.18-0.87,4.52-1.06,6.73-0.28l33.19,11.76c1.42,0.5,2.43,1.89,2.77,3.56c0,0.01,0,0.02,0.01,0.03
				c0.39,1.88,2.05,3.01,3.66,2.52c0.97-0.3,1.65-1.31,1.81-2.48c0.13-0.93,0.68-1.69,1.46-1.95c0.88-0.29,1.55-1.02,1.77-2
				C187.34,106.36,186.35,104.46,184.72,104.02z"/>
		</g>
	</g>
</g>
</svg>